  0
SECTION
  2
HEADER
  9
$ANGBASE
  50
0.0
  9
$ANGDIR
  70
1
  9
$MEASUREMENT
  70
0
  0
ENDSEC
  0
SECTION
  2
TABLES
  0
TABLE
  2
LTYPE
  70
4
  0
LTYPE
  5
40F
  2
CONTINUOUS
  70
0
  3
Solid line
  72
65
  73
0
  40
0.0
  0
LTYPE
  5
410
  2
DASHDOT
 70
0
  3
Dash Dot ____ _ ____ _
 72
65
 73
4
 40
2.0
 49
1.25
 49
-0.25
 49
0.25
 49
-0.25
  0
LTYPE
  5
411
  2
DASHED
 70
0
  3
Dashed __ __ __ __ __
 72
65
 73
2
 40
0.75
 49
0.5
 49
-0.25
  0
LTYPE
  5
43B
  2
DOTTED
 70
0
  3
Dotted .  .  .  .
 72
65
 73
2
 40
0.2
 49
0.0
 49
-0.2
  0
ENDTAB
  0
TABLE
  2
STYLE
  70
4
  0
STYLE
  2
KICAD
  70
0
  40
0
  41
1
  42
1
  50
0
  71
0
  3
isocp.shx
  0
STYLE
  2
KICADB
  70
0
  40
0
  41
1
  42
1
  50
0
  71
0
  3
isocp.shx
  0
STYLE
  2
KICADI
  70
0
  40
0
  41
1
  42
1
  50
15
  71
0
  3
isocp.shx
  0
STYLE
  2
KICADBI
  70
0
  40
0
  41
1
  42
1
  50
15
  71
0
  3
isocp.shx
  0
ENDTAB
  0
TABLE
  2
LAYER
  70
1
  0
LAYER
  2
BLACK
  70
0
  62
7
  6
CONTINUOUS
  0
ENDTAB
  0
ENDSEC
  0
SECTION
  2
ENTITIES
0
LINE
8
BLACK
6
CONTINUOUS
10
6.5581090157480313
20
-3.7054215354330706
11
6.5668784645669289
21
-3.7084320866141733
0
LINE
8
BLACK
6
CONTINUOUS
10
6.5668784645669289
20
-3.7084320866141733
11
6.5750327952755905
21
-3.7128449999999997
0
LINE
8
BLACK
6
CONTINUOUS
10
6.5750327952755905
20
-3.7128449999999997
11
6.5823495275590549
21
-3.7185398425196849
0
LINE
8
BLACK
6
CONTINUOUS
10
6.5823495275590549
20
-3.7185398425196849
11
6.5886291732283464
21
-3.7253613385826769
0
LINE
8
BLACK
6
CONTINUOUS
10
6.5886291732283464
20
-3.7253613385826769
11
6.5937003543307089
21
-3.7331233858267714
0
LINE
8
BLACK
6
CONTINUOUS
10
6.5937003543307089
20
-3.7331233858267714
11
6.5974248031496066
21
-3.7416142913385828
0
LINE
8
BLACK
6
CONTINUOUS
10
6.5974248031496066
20
-3.7416142913385828
11
6.5997009055118108
21
-3.7506023622047242
0
LINE
8
BLACK
6
CONTINUOUS
10
6.5997009055118108
20
-3.7506023622047242
11
6.600466574803149
21
-3.7598425196850394
0
LINE
8
BLACK
6
CONTINUOUS
10
6.600466574803149
20
-3.7598425196850394
11
6.5997009055118108
21
-3.7690826771653541
0
LINE
8
BLACK
6
CONTINUOUS
10
6.5997009055118108
20
-3.7690826771653541
11
6.5974248031496066
21
-3.7780707480314959
0
LINE
8
BLACK
6
CONTINUOUS
10
6.5974248031496066
20
-3.7780707480314959
11
6.5937003543307089
21
-3.7865616535433069
0
LINE
8
BLACK
6
CONTINUOUS
10
6.5937003543307089
20
-3.7865616535433069
11
6.5886291732283464
21
-3.7943237007874013
0
LINE
8
BLACK
6
CONTINUOUS
10
6.5886291732283464
20
-3.7943237007874013
11
6.5823495275590549
21
-3.8011451968503938
0
LINE
8
BLACK
6
CONTINUOUS
10
6.5823495275590549
20
-3.8011451968503938
11
6.5750327952755905
21
-3.8068400393700785
0
LINE
8
BLACK
6
CONTINUOUS
10
6.5750327952755905
20
-3.8068400393700785
11
6.5668784645669289
21
-3.8112529527559054
0
LINE
8
BLACK
6
CONTINUOUS
10
6.5668784645669289
20
-3.8112529527559054
11
6.5581090157480313
21
-3.8142635039370076
0
LINE
8
BLACK
6
CONTINUOUS
10
6.5581090157480313
20
-3.8142635039370076
11
6.5489636614173223
21
-3.8157896062992127
0
LINE
8
BLACK
6
CONTINUOUS
10
6.5489636614173223
20
-3.8157896062992127
11
6.5396918503937007
21
-3.8157896062992127
0
LINE
8
BLACK
6
CONTINUOUS
10
6.5396918503937007
20
-3.8157896062992127
11
6.5305464960629918
21
-3.8142635039370076
0
LINE
8
BLACK
6
CONTINUOUS
10
6.5305464960629918
20
-3.8142635039370076
11
6.5217770472440941
21
-3.8112529527559054
0
LINE
8
BLACK
6
CONTINUOUS
10
6.5217770472440941
20
-3.8112529527559054
11
6.5136227165354326
21
-3.8068400393700785
0
LINE
8
BLACK
6
CONTINUOUS
10
6.5136227165354326
20
-3.8068400393700785
11
6.5063059842519682
21
-3.8011451968503938
0
LINE
8
BLACK
6
CONTINUOUS
10
6.5063059842519682
20
-3.8011451968503938
11
6.5000263385826766
21
-3.7943237007874013
0
LINE
8
BLACK
6
CONTINUOUS
10
6.5000263385826766
20
-3.7943237007874013
11
6.494955157480315
21
-3.7865616535433069
0
LINE
8
BLACK
6
CONTINUOUS
10
6.494955157480315
20
-3.7865616535433069
11
6.4912307086614174
21
-3.7780707480314959
0
LINE
8
BLACK
6
CONTINUOUS
10
6.4912307086614174
20
-3.7780707480314959
11
6.4889546062992123
21
-3.7690826771653541
0
LINE
8
BLACK
6
CONTINUOUS
10
6.4889546062992123
20
-3.7690826771653541
11
6.488188937007874
21
-3.7598425196850394
0
LINE
8
BLACK
6
CONTINUOUS
10
6.488188937007874
20
-3.7598425196850394
11
6.4889546062992123
21
-3.7506023622047242
0
LINE
8
BLACK
6
CONTINUOUS
10
6.4889546062992123
20
-3.7506023622047242
11
6.4912307086614174
21
-3.7416142913385828
0
LINE
8
BLACK
6
CONTINUOUS
10
6.4912307086614174
20
-3.7416142913385828
11
6.494955157480315
21
-3.7331233858267714
0
LINE
8
BLACK
6
CONTINUOUS
10
6.494955157480315
20
-3.7331233858267714
11
6.5000263385826766
21
-3.7253613385826769
0
LINE
8
BLACK
6
CONTINUOUS
10
6.5000263385826766
20
-3.7253613385826769
11
6.5063059842519682
21
-3.7185398425196849
0
LINE
8
BLACK
6
CONTINUOUS
10
6.5063059842519682
20
-3.7185398425196849
11
6.5136227165354326
21
-3.7128449999999997
0
LINE
8
BLACK
6
CONTINUOUS
10
6.5136227165354326
20
-3.7128449999999997
11
6.5217770472440941
21
-3.7084320866141733
0
LINE
8
BLACK
6
CONTINUOUS
10
6.5217770472440941
20
-3.7084320866141733
11
6.5305464960629918
21
-3.7054215354330706
0
LINE
8
BLACK
6
CONTINUOUS
10
6.5305464960629918
20
-3.7054215354330706
11
6.5396918503937007
21
-3.703895433070866
0
LINE
8
BLACK
6
CONTINUOUS
10
6.5396918503937007
20
-3.703895433070866
11
6.5489636614173223
21
-3.703895433070866
0
LINE
8
BLACK
6
CONTINUOUS
10
6.5489636614173223
20
-3.703895433070866
11
6.5581090157480313
21
-3.7054215354330706
0
LINE
8
BLACK
6
CONTINUOUS
10
6.4946686220472438
20
-3.7685987795275588
11
6.4969435826771651
21
-3.777088937007874
0
LINE
8
BLACK
6
CONTINUOUS
10
6.4969435826771651
20
-3.777088937007874
11
6.5006582677165357
21
-3.7850551181102361
0
LINE
8
BLACK
6
CONTINUOUS
10
6.5006582677165357
20
-3.7850551181102361
11
6.5056998031496063
21
-3.7922551968503937
0
LINE
8
BLACK
6
CONTINUOUS
10
6.5056998031496063
20
-3.7922551968503937
11
6.5119150787401576
21
-3.7984704724409446
0
LINE
8
BLACK
6
CONTINUOUS
10
6.5119150787401576
20
-3.7984704724409446
11
6.5191151574803152
21
-3.8035120078740157
0
LINE
8
BLACK
6
CONTINUOUS
10
6.5191151574803152
20
-3.8035120078740157
11
6.5270813385826774
21
-3.8072266929133858
0
LINE
8
BLACK
6
CONTINUOUS
10
6.5270813385826774
20
-3.8072266929133858
11
6.5355714960629916
21
-3.8095016535433071
0
LINE
8
BLACK
6
CONTINUOUS
10
6.5355714960629916
20
-3.8095016535433071
11
6.5443277559055115
21
-3.8102677165354328
0
LINE
8
BLACK
6
CONTINUOUS
10
6.5443277559055115
20
-3.8102677165354328
11
6.5530840157480315
21
-3.8095016535433071
0
LINE
8
BLACK
6
CONTINUOUS
10
6.5530840157480315
20
-3.8095016535433071
11
6.5615741732283466
21
-3.8072266929133858
0
LINE
8
BLACK
6
CONTINUOUS
10
6.5615741732283466
20
-3.8072266929133858
11
6.5695403543307087
21
-3.8035120078740157
0
LINE
8
BLACK
6
CONTINUOUS
10
6.5695403543307087
20
-3.8035120078740157
11
6.5767404330708663
21
-3.7984704724409446
0
LINE
8
BLACK
6
CONTINUOUS
10
6.5767404330708663
20
-3.7984704724409446
11
6.5829557086614168
21
-3.7922551968503937
0
LINE
8
BLACK
6
CONTINUOUS
10
6.5829557086614168
20
-3.7922551968503937
11
6.5879972440944883
21
-3.7850551181102361
0
LINE
8
BLACK
6
CONTINUOUS
10
6.5879972440944883
20
-3.7850551181102361
11
6.591711929133858
21
-3.777088937007874
0
LINE
8
BLACK
6
CONTINUOUS
10
6.591711929133858
20
-3.777088937007874
11
6.5939868897637792
21
-3.7685987795275588
0
LINE
8
BLACK
6
CONTINUOUS
10
6.5939868897637792
20
-3.7685987795275588
11
6.594752952755905
21
-3.7598425196850394
0
LINE
8
BLACK
6
CONTINUOUS
10
6.594752952755905
20
-3.7598425196850394
11
6.5939868897637792
21
-3.7510862598425194
0
LINE
8
BLACK
6
CONTINUOUS
10
6.5939868897637792
20
-3.7510862598425194
11
6.591711929133858
21
-3.7425961023622047
0
LINE
8
BLACK
6
CONTINUOUS
10
6.591711929133858
20
-3.7425961023622047
11
6.5879972440944883
21
-3.7346299212598426
0
LINE
8
BLACK
6
CONTINUOUS
10
6.5879972440944883
20
-3.7346299212598426
11
6.5829557086614168
21
-3.727429842519685
0
LINE
8
BLACK
6
CONTINUOUS
10
6.5829557086614168
20
-3.727429842519685
11
6.5767404330708663
21
-3.7212145669291337
0
LINE
8
BLACK
6
CONTINUOUS
10
6.5767404330708663
20
-3.7212145669291337
11
6.5695403543307087
21
-3.716173031496063
0
LINE
8
BLACK
6
CONTINUOUS
10
6.5695403543307087
20
-3.716173031496063
11
6.5615741732283466
21
-3.7124583464566929
0
LINE
8
BLACK
6
CONTINUOUS
10
6.5615741732283466
20
-3.7124583464566929
11
6.5530840157480315
21
-3.7101833858267717
0
LINE
8
BLACK
6
CONTINUOUS
10
6.5530840157480315
20
-3.7101833858267717
11
6.5443277559055115
21
-3.7094173228346454
0
LINE
8
BLACK
6
CONTINUOUS
10
6.5443277559055115
20
-3.7094173228346454
11
6.5355714960629916
21
-3.7101833858267717
0
LINE
8
BLACK
6
CONTINUOUS
10
6.5355714960629916
20
-3.7101833858267717
11
6.5270813385826774
21
-3.7124583464566929
0
LINE
8
BLACK
6
CONTINUOUS
10
6.5270813385826774
20
-3.7124583464566929
11
6.5191151574803152
21
-3.716173031496063
0
LINE
8
BLACK
6
CONTINUOUS
10
6.5191151574803152
20
-3.716173031496063
11
6.5119150787401576
21
-3.7212145669291337
0
LINE
8
BLACK
6
CONTINUOUS
10
6.5119150787401576
20
-3.7212145669291337
11
6.5056998031496063
21
-3.727429842519685
0
LINE
8
BLACK
6
CONTINUOUS
10
6.5056998031496063
20
-3.727429842519685
11
6.5006582677165357
21
-3.7346299212598426
0
LINE
8
BLACK
6
CONTINUOUS
10
6.5006582677165357
20
-3.7346299212598426
11
6.4969435826771651
21
-3.7425961023622047
0
LINE
8
BLACK
6
CONTINUOUS
10
6.4969435826771651
20
-3.7425961023622047
11
6.4946686220472438
21
-3.7510862598425194
0
LINE
8
BLACK
6
CONTINUOUS
10
6.4946686220472438
20
-3.7510862598425194
11
6.493902559055118
21
-3.7598425196850394
0
LINE
8
BLACK
6
CONTINUOUS
10
6.493902559055118
20
-3.7598425196850394
11
6.4946686220472438
21
-3.7685987795275588
0
LINE
8
BLACK
6
CONTINUOUS
10
5.0906879133858265
20
-3.5903500393700787
11
5.1024312598425192
21
-3.5926859055118108
0
LINE
8
BLACK
6
CONTINUOUS
10
5.1024312598425192
20
-3.5926859055118108
11
5.1137692519685034
21
-3.596534645669291
0
LINE
8
BLACK
6
CONTINUOUS
10
5.1137692519685034
20
-3.596534645669291
11
5.1245078740157481
21
-3.6018303543307084
0
LINE
8
BLACK
6
CONTINUOUS
10
5.1245078740157481
20
-3.6018303543307084
11
5.1344633858267716
21
-3.6084824015748032
0
LINE
8
BLACK
6
CONTINUOUS
10
5.1344633858267716
20
-3.6084824015748032
11
5.143465472440945
21
-3.6163770472440944
0
LINE
8
BLACK
6
CONTINUOUS
10
5.143465472440945
20
-3.6163770472440944
11
5.1513601181102358
21
-3.6253791338582677
0
LINE
8
BLACK
6
CONTINUOUS
10
5.1513601181102358
20
-3.6253791338582677
11
5.1580121653543305
21
-3.6353346456692912
0
LINE
8
BLACK
6
CONTINUOUS
10
5.1580121653543305
20
-3.6353346456692912
11
5.1633078740157483
21
-3.6460732677165355
0
LINE
8
BLACK
6
CONTINUOUS
10
5.1633078740157483
20
-3.6460732677165355
11
5.1671566141732281
21
-3.6574112598425197
0
LINE
8
BLACK
6
CONTINUOUS
10
5.1671566141732281
20
-3.6574112598425197
11
5.1694924803149602
21
-3.6691546062992124
0
LINE
8
BLACK
6
CONTINUOUS
10
5.1694924803149602
20
-3.6691546062992124
11
5.1702755905511806
21
-3.6811023622047245
0
LINE
8
BLACK
6
CONTINUOUS
10
5.1702755905511806
20
-3.6811023622047245
11
5.1694924803149602
21
-3.6930501181102362
0
LINE
8
BLACK
6
CONTINUOUS
10
5.1694924803149602
20
-3.6930501181102362
11
5.1671566141732281
21
-3.7047934645669289
0
LINE
8
BLACK
6
CONTINUOUS
10
5.1671566141732281
20
-3.7047934645669289
11
5.1633078740157483
21
-3.7161314566929131
0
LINE
8
BLACK
6
CONTINUOUS
10
5.1633078740157483
20
-3.7161314566929131
11
5.1580121653543305
21
-3.7268700787401574
0
LINE
8
BLACK
6
CONTINUOUS
10
5.1580121653543305
20
-3.7268700787401574
11
5.1513601181102358
21
-3.7368255905511809
0
LINE
8
BLACK
6
CONTINUOUS
10
5.1513601181102358
20
-3.7368255905511809
11
5.143465472440945
21
-3.7458276771653543
0
LINE
8
BLACK
6
CONTINUOUS
10
5.143465472440945
20
-3.7458276771653543
11
5.1344633858267716
21
-3.7537223228346455
0
LINE
8
BLACK
6
CONTINUOUS
10
5.1344633858267716
20
-3.7537223228346455
11
5.1245078740157481
21
-3.7603743700787402
0
LINE
8
BLACK
6
CONTINUOUS
10
5.1245078740157481
20
-3.7603743700787402
11
5.1137692519685034
21
-3.7656700787401576
0
LINE
8
BLACK
6
CONTINUOUS
10
5.1137692519685034
20
-3.7656700787401576
11
5.1024312598425192
21
-3.7695188188976378
0
LINE
8
BLACK
6
CONTINUOUS
10
5.1024312598425192
20
-3.7695188188976378
11
5.0906879133858265
21
-3.7718546850393699
0
LINE
8
BLACK
6
CONTINUOUS
10
5.0906879133858265
20
-3.7718546850393699
11
5.0787401574803148
21
-3.7726377952755903
0
LINE
8
BLACK
6
CONTINUOUS
10
5.0787401574803148
20
-3.7726377952755903
11
5.0667924015748032
21
-3.7718546850393699
0
LINE
8
BLACK
6
CONTINUOUS
10
5.0667924015748032
20
-3.7718546850393699
11
5.0550490551181104
21
-3.7695188188976378
0
LINE
8
BLACK
6
CONTINUOUS
10
5.0550490551181104
20
-3.7695188188976378
11
5.0437110629921262
21
-3.7656700787401576
0
LINE
8
BLACK
6
CONTINUOUS
10
5.0437110629921262
20
-3.7656700787401576
11
5.0329724409448815
21
-3.7603743700787402
0
LINE
8
BLACK
6
CONTINUOUS
10
5.0329724409448815
20
-3.7603743700787402
11
5.023016929133858
21
-3.7537223228346455
0
LINE
8
BLACK
6
CONTINUOUS
10
5.023016929133858
20
-3.7537223228346455
11
5.0140148425196847
21
-3.7458276771653543
0
LINE
8
BLACK
6
CONTINUOUS
10
5.0140148425196847
20
-3.7458276771653543
11
5.0061201968503939
21
-3.7368255905511809
0
LINE
8
BLACK
6
CONTINUOUS
10
5.0061201968503939
20
-3.7368255905511809
11
4.9994681496062991
21
-3.7268700787401574
0
LINE
8
BLACK
6
CONTINUOUS
10
4.9994681496062991
20
-3.7268700787401574
11
4.9941724409448822
21
-3.7161314566929131
0
LINE
8
BLACK
6
CONTINUOUS
10
4.9941724409448822
20
-3.7161314566929131
11
4.9903237007874015
21
-3.7047934645669289
0
LINE
8
BLACK
6
CONTINUOUS
10
4.9903237007874015
20
-3.7047934645669289
11
4.9879878346456694
21
-3.6930501181102362
0
LINE
8
BLACK
6
CONTINUOUS
10
4.9879878346456694
20
-3.6930501181102362
11
4.9872047244094491
21
-3.6811023622047245
0
LINE
8
BLACK
6
CONTINUOUS
10
4.9872047244094491
20
-3.6811023622047245
11
4.9879878346456694
21
-3.6691546062992124
0
LINE
8
BLACK
6
CONTINUOUS
10
4.9879878346456694
20
-3.6691546062992124
11
4.9903237007874015
21
-3.6574112598425197
0
LINE
8
BLACK
6
CONTINUOUS
10
4.9903237007874015
20
-3.6574112598425197
11
4.9941724409448822
21
-3.6460732677165355
0
LINE
8
BLACK
6
CONTINUOUS
10
4.9941724409448822
20
-3.6460732677165355
11
4.9994681496062991
21
-3.6353346456692912
0
LINE
8
BLACK
6
CONTINUOUS
10
4.9994681496062991
20
-3.6353346456692912
11
5.0061201968503939
21
-3.6253791338582677
0
LINE
8
BLACK
6
CONTINUOUS
10
5.0061201968503939
20
-3.6253791338582677
11
5.0140148425196847
21
-3.6163770472440944
0
LINE
8
BLACK
6
CONTINUOUS
10
5.0140148425196847
20
-3.6163770472440944
11
5.023016929133858
21
-3.6084824015748032
0
LINE
8
BLACK
6
CONTINUOUS
10
5.023016929133858
20
-3.6084824015748032
11
5.0329724409448815
21
-3.6018303543307084
0
LINE
8
BLACK
6
CONTINUOUS
10
5.0329724409448815
20
-3.6018303543307084
11
5.0437110629921262
21
-3.596534645669291
0
LINE
8
BLACK
6
CONTINUOUS
10
5.0437110629921262
20
-3.596534645669291
11
5.0550490551181104
21
-3.5926859055118108
0
LINE
8
BLACK
6
CONTINUOUS
10
5.0550490551181104
20
-3.5926859055118108
11
5.0667924015748032
21
-3.5903500393700787
0
LINE
8
BLACK
6
CONTINUOUS
10
5.0667924015748032
20
-3.5903500393700787
11
5.0787401574803148
21
-3.5895669291338583
0
LINE
8
BLACK
6
CONTINUOUS
10
5.0787401574803148
20
-3.5895669291338583
11
5.0906879133858265
21
-3.5903500393700787
0
LINE
8
BLACK
6
CONTINUOUS
10
4.9937095669291338
20
-3.692789527559055
11
4.9960929527559053
21
-3.7042590157480313
0
LINE
8
BLACK
6
CONTINUOUS
10
4.9960929527559053
20
-3.7042590157480313
11
5.0000159055118107
21
-3.715297125984252
0
LINE
8
BLACK
6
CONTINUOUS
10
5.0000159055118107
20
-3.715297125984252
11
5.0054053543307084
21
-3.7256982677165356
0
LINE
8
BLACK
6
CONTINUOUS
10
5.0054053543307084
20
-3.7256982677165356
11
5.0121608661417323
21
-3.735268622047244
0
LINE
8
BLACK
6
CONTINUOUS
10
5.0121608661417323
20
-3.735268622047244
11
5.0201566141732279
21
-3.74383
0
LINE
8
BLACK
6
CONTINUOUS
10
5.0201566141732279
20
-3.74383
11
5.0292437007874016
21
-3.7512228740157481
0
LINE
8
BLACK
6
CONTINUOUS
10
5.0292437007874016
20
-3.7512228740157481
11
5.0392527559055118
21
-3.7573095669291336
0
LINE
8
BLACK
6
CONTINUOUS
10
5.0392527559055118
20
-3.7573095669291336
11
5.0499974409448818
21
-3.761976614173228
0
LINE
8
BLACK
6
CONTINUOUS
10
5.0499974409448818
20
-3.761976614173228
11
5.0612775196850395
21
-3.7651371653543304
0
LINE
8
BLACK
6
CONTINUOUS
10
5.0612775196850395
20
-3.7651371653543304
11
5.0728829133858264
21
-3.7667322834645667
0
LINE
8
BLACK
6
CONTINUOUS
10
5.0728829133858264
20
-3.7667322834645667
11
5.0845974015748032
21
-3.7667322834645667
0
LINE
8
BLACK
6
CONTINUOUS
10
5.0845974015748032
20
-3.7667322834645667
11
5.0962027952755902
21
-3.7651371653543304
0
LINE
8
BLACK
6
CONTINUOUS
10
5.0962027952755902
20
-3.7651371653543304
11
5.1074828740157479
21
-3.761976614173228
0
LINE
8
BLACK
6
CONTINUOUS
10
5.1074828740157479
20
-3.761976614173228
11
5.1182275590551178
21
-3.7573095669291336
0
LINE
8
BLACK
6
CONTINUOUS
10
5.1182275590551178
20
-3.7573095669291336
11
5.1282366141732281
21
-3.7512228740157481
0
LINE
8
BLACK
6
CONTINUOUS
10
5.1282366141732281
20
-3.7512228740157481
11
5.1373237007874017
21
-3.74383
0
LINE
8
BLACK
6
CONTINUOUS
10
5.1373237007874017
20
-3.74383
11
5.1453194488188974
21
-3.735268622047244
0
LINE
8
BLACK
6
CONTINUOUS
10
5.1453194488188974
20
-3.735268622047244
11
5.1520749606299212
21
-3.7256982677165356
0
LINE
8
BLACK
6
CONTINUOUS
10
5.1520749606299212
20
-3.7256982677165356
11
5.1574644094488189
21
-3.715297125984252
0
LINE
8
BLACK
6
CONTINUOUS
10
5.1574644094488189
20
-3.715297125984252
11
5.1613873622047244
21
-3.7042590157480313
0
LINE
8
BLACK
6
CONTINUOUS
10
5.1613873622047244
20
-3.7042590157480313
11
5.1637707480314958
21
-3.692789527559055
0
LINE
8
BLACK
6
CONTINUOUS
10
5.1637707480314958
20
-3.692789527559055
11
5.1645701574803144
21
-3.6811023622047245
0
LINE
8
BLACK
6
CONTINUOUS
10
5.1645701574803144
20
-3.6811023622047245
11
5.1637707480314958
21
-3.6694151968503936
0
LINE
8
BLACK
6
CONTINUOUS
10
5.1637707480314958
20
-3.6694151968503936
11
5.1613873622047244
21
-3.6579457086614173
0
LINE
8
BLACK
6
CONTINUOUS
10
5.1613873622047244
20
-3.6579457086614173
11
5.1574644094488189
21
-3.6469075984251966
0
LINE
8
BLACK
6
CONTINUOUS
10
5.1574644094488189
20
-3.6469075984251966
11
5.1520749606299212
21
-3.6365064566929135
0
LINE
8
BLACK
6
CONTINUOUS
10
5.1520749606299212
20
-3.6365064566929135
11
5.1453194488188974
21
-3.6269361023622047
0
LINE
8
BLACK
6
CONTINUOUS
10
5.1453194488188974
20
-3.6269361023622047
11
5.1373237007874017
21
-3.6183747244094486
0
LINE
8
BLACK
6
CONTINUOUS
10
5.1373237007874017
20
-3.6183747244094486
11
5.1282366141732281
21
-3.6109818503937006
0
LINE
8
BLACK
6
CONTINUOUS
10
5.1282366141732281
20
-3.6109818503937006
11
5.1182275590551178
21
-3.604895157480315
0
LINE
8
BLACK
6
CONTINUOUS
10
5.1182275590551178
20
-3.604895157480315
11
5.1074828740157479
21
-3.6002281102362206
0
LINE
8
BLACK
6
CONTINUOUS
10
5.1074828740157479
20
-3.6002281102362206
11
5.0962027952755902
21
-3.5970675590551182
0
LINE
8
BLACK
6
CONTINUOUS
10
5.0962027952755902
20
-3.5970675590551182
11
5.0845974015748032
21
-3.5954724409448819
0
LINE
8
BLACK
6
CONTINUOUS
10
5.0845974015748032
20
-3.5954724409448819
11
5.0728829133858264
21
-3.5954724409448819
0
LINE
8
BLACK
6
CONTINUOUS
10
5.0728829133858264
20
-3.5954724409448819
11
5.0612775196850395
21
-3.5970675590551182
0
LINE
8
BLACK
6
CONTINUOUS
10
5.0612775196850395
20
-3.5970675590551182
11
5.0499974409448818
21
-3.6002281102362206
0
LINE
8
BLACK
6
CONTINUOUS
10
5.0499974409448818
20
-3.6002281102362206
11
5.0392527559055118
21
-3.604895157480315
0
LINE
8
BLACK
6
CONTINUOUS
10
5.0392527559055118
20
-3.604895157480315
11
5.0292437007874016
21
-3.6109818503937006
0
LINE
8
BLACK
6
CONTINUOUS
10
5.0292437007874016
20
-3.6109818503937006
11
5.0201566141732279
21
-3.6183747244094486
0
LINE
8
BLACK
6
CONTINUOUS
10
5.0201566141732279
20
-3.6183747244094486
11
5.0121608661417323
21
-3.6269361023622047
0
LINE
8
BLACK
6
CONTINUOUS
10
5.0121608661417323
20
-3.6269361023622047
11
5.0054053543307084
21
-3.6365064566929135
0
LINE
8
BLACK
6
CONTINUOUS
10
5.0054053543307084
20
-3.6365064566929135
11
5.0000159055118107
21
-3.6469075984251966
0
LINE
8
BLACK
6
CONTINUOUS
10
5.0000159055118107
20
-3.6469075984251966
11
4.9960929527559053
21
-3.6579457086614173
0
LINE
8
BLACK
6
CONTINUOUS
10
4.9960929527559053
20
-3.6579457086614173
11
4.9937095669291338
21
-3.6694151968503936
0
LINE
8
BLACK
6
CONTINUOUS
10
4.9937095669291338
20
-3.6694151968503936
11
4.9929101574803152
21
-3.6811023622047245
0
LINE
8
BLACK
6
CONTINUOUS
10
4.9929101574803152
20
-3.6811023622047245
11
4.9937095669291338
21
-3.692789527559055
0
LINE
8
BLACK
6
CONTINUOUS
10
5.5434438188976376
20
-3.5903500393700787
11
5.5551871653543303
21
-3.5926859055118108
0
LINE
8
BLACK
6
CONTINUOUS
10
5.5551871653543303
20
-3.5926859055118108
11
5.5665251574803145
21
-3.596534645669291
0
LINE
8
BLACK
6
CONTINUOUS
10
5.5665251574803145
20
-3.596534645669291
11
5.5772637795275593
21
-3.6018303543307084
0
LINE
8
BLACK
6
CONTINUOUS
10
5.5772637795275593
20
-3.6018303543307084
11
5.5872192913385827
21
-3.6084824015748032
0
LINE
8
BLACK
6
CONTINUOUS
10
5.5872192913385827
20
-3.6084824015748032
11
5.5962213779527561
21
-3.6163770472440944
0
LINE
8
BLACK
6
CONTINUOUS
10
5.5962213779527561
20
-3.6163770472440944
11
5.6041160236220469
21
-3.6253791338582677
0
LINE
8
BLACK
6
CONTINUOUS
10
5.6041160236220469
20
-3.6253791338582677
11
5.6107680708661416
21
-3.6353346456692912
0
LINE
8
BLACK
6
CONTINUOUS
10
5.6107680708661416
20
-3.6353346456692912
11
5.6160637795275585
21
-3.6460732677165355
0
LINE
8
BLACK
6
CONTINUOUS
10
5.6160637795275585
20
-3.6460732677165355
11
5.6199125196850392
21
-3.6574112598425197
0
LINE
8
BLACK
6
CONTINUOUS
10
5.6199125196850392
20
-3.6574112598425197
11
5.6222483858267713
21
-3.6691546062992124
0
LINE
8
BLACK
6
CONTINUOUS
10
5.6222483858267713
20
-3.6691546062992124
11
5.6230314960629917
21
-3.6811023622047245
0
LINE
8
BLACK
6
CONTINUOUS
10
5.6230314960629917
20
-3.6811023622047245
11
5.6222483858267713
21
-3.6930501181102362
0
LINE
8
BLACK
6
CONTINUOUS
10
5.6222483858267713
20
-3.6930501181102362
11
5.6199125196850392
21
-3.7047934645669289
0
LINE
8
BLACK
6
CONTINUOUS
10
5.6199125196850392
20
-3.7047934645669289
11
5.6160637795275585
21
-3.7161314566929131
0
LINE
8
BLACK
6
CONTINUOUS
10
5.6160637795275585
20
-3.7161314566929131
11
5.6107680708661416
21
-3.7268700787401574
0
LINE
8
BLACK
6
CONTINUOUS
10
5.6107680708661416
20
-3.7268700787401574
11
5.6041160236220469
21
-3.7368255905511809
0
LINE
8
BLACK
6
CONTINUOUS
10
5.6041160236220469
20
-3.7368255905511809
11
5.5962213779527561
21
-3.7458276771653543
0
LINE
8
BLACK
6
CONTINUOUS
10
5.5962213779527561
20
-3.7458276771653543
11
5.5872192913385827
21
-3.7537223228346455
0
LINE
8
BLACK
6
CONTINUOUS
10
5.5872192913385827
20
-3.7537223228346455
11
5.5772637795275593
21
-3.7603743700787402
0
LINE
8
BLACK
6
CONTINUOUS
10
5.5772637795275593
20
-3.7603743700787402
11
5.5665251574803145
21
-3.7656700787401576
0
LINE
8
BLACK
6
CONTINUOUS
10
5.5665251574803145
20
-3.7656700787401576
11
5.5551871653543303
21
-3.7695188188976378
0
LINE
8
BLACK
6
CONTINUOUS
10
5.5551871653543303
20
-3.7695188188976378
11
5.5434438188976376
21
-3.7718546850393699
0
LINE
8
BLACK
6
CONTINUOUS
10
5.5434438188976376
20
-3.7718546850393699
11
5.5314960629921259
21
-3.7726377952755903
0
LINE
8
BLACK
6
CONTINUOUS
10
5.5314960629921259
20
-3.7726377952755903
11
5.5195483070866143
21
-3.7718546850393699
0
LINE
8
BLACK
6
CONTINUOUS
10
5.5195483070866143
20
-3.7718546850393699
11
5.5078049606299215
21
-3.7695188188976378
0
LINE
8
BLACK
6
CONTINUOUS
10
5.5078049606299215
20
-3.7695188188976378
11
5.4964669685039365
21
-3.7656700787401576
0
LINE
8
BLACK
6
CONTINUOUS
10
5.4964669685039365
20
-3.7656700787401576
11
5.4857283464566926
21
-3.7603743700787402
0
LINE
8
BLACK
6
CONTINUOUS
10
5.4857283464566926
20
-3.7603743700787402
11
5.4757728346456691
21
-3.7537223228346455
0
LINE
8
BLACK
6
CONTINUOUS
10
5.4757728346456691
20
-3.7537223228346455
11
5.4667707480314958
21
-3.7458276771653543
0
LINE
8
BLACK
6
CONTINUOUS
10
5.4667707480314958
20
-3.7458276771653543
11
5.458876102362205
21
-3.7368255905511809
0
LINE
8
BLACK
6
CONTINUOUS
10
5.458876102362205
20
-3.7368255905511809
11
5.4522240551181103
21
-3.7268700787401574
0
LINE
8
BLACK
6
CONTINUOUS
10
5.4522240551181103
20
-3.7268700787401574
11
5.4469283464566924
21
-3.7161314566929131
0
LINE
8
BLACK
6
CONTINUOUS
10
5.4469283464566924
20
-3.7161314566929131
11
5.4430796062992126
21
-3.7047934645669289
0
LINE
8
BLACK
6
CONTINUOUS
10
5.4430796062992126
20
-3.7047934645669289
11
5.4407437401574805
21
-3.6930501181102362
0
LINE
8
BLACK
6
CONTINUOUS
10
5.4407437401574805
20
-3.6930501181102362
11
5.4399606299212593
21
-3.6811023622047245
0
LINE
8
BLACK
6
CONTINUOUS
10
5.4399606299212593
20
-3.6811023622047245
11
5.4407437401574805
21
-3.6691546062992124
0
LINE
8
BLACK
6
CONTINUOUS
10
5.4407437401574805
20
-3.6691546062992124
11
5.4430796062992126
21
-3.6574112598425197
0
LINE
8
BLACK
6
CONTINUOUS
10
5.4430796062992126
20
-3.6574112598425197
11
5.4469283464566924
21
-3.6460732677165355
0
LINE
8
BLACK
6
CONTINUOUS
10
5.4469283464566924
20
-3.6460732677165355
11
5.4522240551181103
21
-3.6353346456692912
0
LINE
8
BLACK
6
CONTINUOUS
10
5.4522240551181103
20
-3.6353346456692912
11
5.458876102362205
21
-3.6253791338582677
0
LINE
8
BLACK
6
CONTINUOUS
10
5.458876102362205
20
-3.6253791338582677
11
5.4667707480314958
21
-3.6163770472440944
0
LINE
8
BLACK
6
CONTINUOUS
10
5.4667707480314958
20
-3.6163770472440944
11
5.4757728346456691
21
-3.6084824015748032
0
LINE
8
BLACK
6
CONTINUOUS
10
5.4757728346456691
20
-3.6084824015748032
11
5.4857283464566926
21
-3.6018303543307084
0
LINE
8
BLACK
6
CONTINUOUS
10
5.4857283464566926
20
-3.6018303543307084
11
5.4964669685039365
21
-3.596534645669291
0
LINE
8
BLACK
6
CONTINUOUS
10
5.4964669685039365
20
-3.596534645669291
11
5.5078049606299215
21
-3.5926859055118108
0
LINE
8
BLACK
6
CONTINUOUS
10
5.5078049606299215
20
-3.5926859055118108
11
5.5195483070866143
21
-3.5903500393700787
0
LINE
8
BLACK
6
CONTINUOUS
10
5.5195483070866143
20
-3.5903500393700787
11
5.5314960629921259
21
-3.5895669291338583
0
LINE
8
BLACK
6
CONTINUOUS
10
5.5314960629921259
20
-3.5895669291338583
11
5.5434438188976376
21
-3.5903500393700787
0
LINE
8
BLACK
6
CONTINUOUS
10
5.4464654724409449
20
-3.692789527559055
11
5.4488488582677164
21
-3.7042590157480313
0
LINE
8
BLACK
6
CONTINUOUS
10
5.4488488582677164
20
-3.7042590157480313
11
5.4527718110236219
21
-3.715297125984252
0
LINE
8
BLACK
6
CONTINUOUS
10
5.4527718110236219
20
-3.715297125984252
11
5.4581612598425195
21
-3.7256982677165356
0
LINE
8
BLACK
6
CONTINUOUS
10
5.4581612598425195
20
-3.7256982677165356
11
5.4649167716535434
21
-3.735268622047244
0
LINE
8
BLACK
6
CONTINUOUS
10
5.4649167716535434
20
-3.735268622047244
11
5.472912519685039
21
-3.74383
0
LINE
8
BLACK
6
CONTINUOUS
10
5.472912519685039
20
-3.74383
11
5.4819996062992127
21
-3.7512228740157481
0
LINE
8
BLACK
6
CONTINUOUS
10
5.4819996062992127
20
-3.7512228740157481
11
5.4920086614173229
21
-3.7573095669291336
0
LINE
8
BLACK
6
CONTINUOUS
10
5.4920086614173229
20
-3.7573095669291336
11
5.5027533464566929
21
-3.761976614173228
0
LINE
8
BLACK
6
CONTINUOUS
10
5.5027533464566929
20
-3.761976614173228
11
5.5140334251968506
21
-3.7651371653543304
0
LINE
8
BLACK
6
CONTINUOUS
10
5.5140334251968506
20
-3.7651371653543304
11
5.5256388188976375
21
-3.7667322834645667
0
LINE
8
BLACK
6
CONTINUOUS
10
5.5256388188976375
20
-3.7667322834645667
11
5.5373533070866143
21
-3.7667322834645667
0
LINE
8
BLACK
6
CONTINUOUS
10
5.5373533070866143
20
-3.7667322834645667
11
5.5489587007874013
21
-3.7651371653543304
0
LINE
8
BLACK
6
CONTINUOUS
10
5.5489587007874013
20
-3.7651371653543304
11
5.560238779527559
21
-3.761976614173228
0
LINE
8
BLACK
6
CONTINUOUS
10
5.560238779527559
20
-3.761976614173228
11
5.5709834645669289
21
-3.7573095669291336
0
LINE
8
BLACK
6
CONTINUOUS
10
5.5709834645669289
20
-3.7573095669291336
11
5.5809925196850392
21
-3.7512228740157481
0
LINE
8
BLACK
6
CONTINUOUS
10
5.5809925196850392
20
-3.7512228740157481
11
5.5900796062992129
21
-3.74383
0
LINE
8
BLACK
6
CONTINUOUS
10
5.5900796062992129
20
-3.74383
11
5.5980753543307085
21
-3.735268622047244
0
LINE
8
BLACK
6
CONTINUOUS
10
5.5980753543307085
20
-3.735268622047244
11
5.6048308661417323
21
-3.7256982677165356
0
LINE
8
BLACK
6
CONTINUOUS
10
5.6048308661417323
20
-3.7256982677165356
11
5.61022031496063
21
-3.715297125984252
0
LINE
8
BLACK
6
CONTINUOUS
10
5.61022031496063
20
-3.715297125984252
11
5.6141432677165355
21
-3.7042590157480313
0
LINE
8
BLACK
6
CONTINUOUS
10
5.6141432677165355
20
-3.7042590157480313
11
5.6165266535433069
21
-3.692789527559055
0
LINE
8
BLACK
6
CONTINUOUS
10
5.6165266535433069
20
-3.692789527559055
11
5.6173260629921256
21
-3.6811023622047245
0
LINE
8
BLACK
6
CONTINUOUS
10
5.6173260629921256
20
-3.6811023622047245
11
5.6165266535433069
21
-3.6694151968503936
0
LINE
8
BLACK
6
CONTINUOUS
10
5.6165266535433069
20
-3.6694151968503936
11
5.6141432677165355
21
-3.6579457086614173
0
LINE
8
BLACK
6
CONTINUOUS
10
5.6141432677165355
20
-3.6579457086614173
11
5.61022031496063
21
-3.6469075984251966
0
LINE
8
BLACK
6
CONTINUOUS
10
5.61022031496063
20
-3.6469075984251966
11
5.6048308661417323
21
-3.6365064566929135
0
LINE
8
BLACK
6
CONTINUOUS
10
5.6048308661417323
20
-3.6365064566929135
11
5.5980753543307085
21
-3.6269361023622047
0
LINE
8
BLACK
6
CONTINUOUS
10
5.5980753543307085
20
-3.6269361023622047
11
5.5900796062992129
21
-3.6183747244094486
0
LINE
8
BLACK
6
CONTINUOUS
10
5.5900796062992129
20
-3.6183747244094486
11
5.5809925196850392
21
-3.6109818503937006
0
LINE
8
BLACK
6
CONTINUOUS
10
5.5809925196850392
20
-3.6109818503937006
11
5.5709834645669289
21
-3.604895157480315
0
LINE
8
BLACK
6
CONTINUOUS
10
5.5709834645669289
20
-3.604895157480315
11
5.560238779527559
21
-3.6002281102362206
0
LINE
8
BLACK
6
CONTINUOUS
10
5.560238779527559
20
-3.6002281102362206
11
5.5489587007874013
21
-3.5970675590551182
0
LINE
8
BLACK
6
CONTINUOUS
10
5.5489587007874013
20
-3.5970675590551182
11
5.5373533070866143
21
-3.5954724409448819
0
LINE
8
BLACK
6
CONTINUOUS
10
5.5373533070866143
20
-3.5954724409448819
11
5.5256388188976375
21
-3.5954724409448819
0
LINE
8
BLACK
6
CONTINUOUS
10
5.5256388188976375
20
-3.5954724409448819
11
5.5140334251968506
21
-3.5970675590551182
0
LINE
8
BLACK
6
CONTINUOUS
10
5.5140334251968506
20
-3.5970675590551182
11
5.5027533464566929
21
-3.6002281102362206
0
LINE
8
BLACK
6
CONTINUOUS
10
5.5027533464566929
20
-3.6002281102362206
11
5.4920086614173229
21
-3.604895157480315
0
LINE
8
BLACK
6
CONTINUOUS
10
5.4920086614173229
20
-3.604895157480315
11
5.4819996062992127
21
-3.6109818503937006
0
LINE
8
BLACK
6
CONTINUOUS
10
5.4819996062992127
20
-3.6109818503937006
11
5.472912519685039
21
-3.6183747244094486
0
LINE
8
BLACK
6
CONTINUOUS
10
5.472912519685039
20
-3.6183747244094486
11
5.4649167716535434
21
-3.6269361023622047
0
LINE
8
BLACK
6
CONTINUOUS
10
5.4649167716535434
20
-3.6269361023622047
11
5.4581612598425195
21
-3.6365064566929135
0
LINE
8
BLACK
6
CONTINUOUS
10
5.4581612598425195
20
-3.6365064566929135
11
5.4527718110236219
21
-3.6469075984251966
0
LINE
8
BLACK
6
CONTINUOUS
10
5.4527718110236219
20
-3.6469075984251966
11
5.4488488582677164
21
-3.6579457086614173
0
LINE
8
BLACK
6
CONTINUOUS
10
5.4488488582677164
20
-3.6579457086614173
11
5.4464654724409449
21
-3.6694151968503936
0
LINE
8
BLACK
6
CONTINUOUS
10
5.4464654724409449
20
-3.6694151968503936
11
5.4456660629921263
21
-3.6811023622047245
0
LINE
8
BLACK
6
CONTINUOUS
10
5.4456660629921263
20
-3.6811023622047245
11
5.4464654724409449
21
-3.692789527559055
0
LINE
8
BLACK
6
CONTINUOUS
10
5.9961997244094487
20
-3.5903500393700787
11
6.0079430708661414
21
-3.5926859055118108
0
LINE
8
BLACK
6
CONTINUOUS
10
6.0079430708661414
20
-3.5926859055118108
11
6.0192810629921256
21
-3.596534645669291
0
LINE
8
BLACK
6
CONTINUOUS
10
6.0192810629921256
20
-3.596534645669291
11
6.0300196850393704
21
-3.6018303543307084
0
LINE
8
BLACK
6
CONTINUOUS
10
6.0300196850393704
20
-3.6018303543307084
11
6.0399751968503939
21
-3.6084824015748032
0
LINE
8
BLACK
6
CONTINUOUS
10
6.0399751968503939
20
-3.6084824015748032
11
6.0489772834645672
21
-3.6163770472440944
0
LINE
8
BLACK
6
CONTINUOUS
10
6.0489772834645672
20
-3.6163770472440944
11
6.056871929133858
21
-3.6253791338582677
0
LINE
8
BLACK
6
CONTINUOUS
10
6.056871929133858
20
-3.6253791338582677
11
6.0635239763779527
21
-3.6353346456692912
0
LINE
8
BLACK
6
CONTINUOUS
10
6.0635239763779527
20
-3.6353346456692912
11
6.0688196850393696
21
-3.6460732677165355
0
LINE
8
BLACK
6
CONTINUOUS
10
6.0688196850393696
20
-3.6460732677165355
11
6.0726684251968504
21
-3.6574112598425197
0
LINE
8
BLACK
6
CONTINUOUS
10
6.0726684251968504
20
-3.6574112598425197
11
6.0750042913385824
21
-3.6691546062992124
0
LINE
8
BLACK
6
CONTINUOUS
10
6.0750042913385824
20
-3.6691546062992124
11
6.0757874015748028
21
-3.6811023622047245
0
LINE
8
BLACK
6
CONTINUOUS
10
6.0757874015748028
20
-3.6811023622047245
11
6.0750042913385824
21
-3.6930501181102362
0
LINE
8
BLACK
6
CONTINUOUS
10
6.0750042913385824
20
-3.6930501181102362
11
6.0726684251968504
21
-3.7047934645669289
0
LINE
8
BLACK
6
CONTINUOUS
10
6.0726684251968504
20
-3.7047934645669289
11
6.0688196850393696
21
-3.7161314566929131
0
LINE
8
BLACK
6
CONTINUOUS
10
6.0688196850393696
20
-3.7161314566929131
11
6.0635239763779527
21
-3.7268700787401574
0
LINE
8
BLACK
6
CONTINUOUS
10
6.0635239763779527
20
-3.7268700787401574
11
6.056871929133858
21
-3.7368255905511809
0
LINE
8
BLACK
6
CONTINUOUS
10
6.056871929133858
20
-3.7368255905511809
11
6.0489772834645672
21
-3.7458276771653543
0
LINE
8
BLACK
6
CONTINUOUS
10
6.0489772834645672
20
-3.7458276771653543
11
6.0399751968503939
21
-3.7537223228346455
0
LINE
8
BLACK
6
CONTINUOUS
10
6.0399751968503939
20
-3.7537223228346455
11
6.0300196850393704
21
-3.7603743700787402
0
LINE
8
BLACK
6
CONTINUOUS
10
6.0300196850393704
20
-3.7603743700787402
11
6.0192810629921256
21
-3.7656700787401576
0
LINE
8
BLACK
6
CONTINUOUS
10
6.0192810629921256
20
-3.7656700787401576
11
6.0079430708661414
21
-3.7695188188976378
0
LINE
8
BLACK
6
CONTINUOUS
10
6.0079430708661414
20
-3.7695188188976378
11
5.9961997244094487
21
-3.7718546850393699
0
LINE
8
BLACK
6
CONTINUOUS
10
5.9961997244094487
20
-3.7718546850393699
11
5.984251968503937
21
-3.7726377952755903
0
LINE
8
BLACK
6
CONTINUOUS
10
5.984251968503937
20
-3.7726377952755903
11
5.9723042125984254
21
-3.7718546850393699
0
LINE
8
BLACK
6
CONTINUOUS
10
5.9723042125984254
20
-3.7718546850393699
11
5.9605608661417318
21
-3.7695188188976378
0
LINE
8
BLACK
6
CONTINUOUS
10
5.9605608661417318
20
-3.7695188188976378
11
5.9492228740157476
21
-3.7656700787401576
0
LINE
8
BLACK
6
CONTINUOUS
10
5.9492228740157476
20
-3.7656700787401576
11
5.9384842519685037
21
-3.7603743700787402
0
LINE
8
BLACK
6
CONTINUOUS
10
5.9384842519685037
20
-3.7603743700787402
11
5.9285287401574802
21
-3.7537223228346455
0
LINE
8
BLACK
6
CONTINUOUS
10
5.9285287401574802
20
-3.7537223228346455
11
5.9195266535433069
21
-3.7458276771653543
0
LINE
8
BLACK
6
CONTINUOUS
10
5.9195266535433069
20
-3.7458276771653543
11
5.9116320078740152
21
-3.7368255905511809
0
LINE
8
BLACK
6
CONTINUOUS
10
5.9116320078740152
20
-3.7368255905511809
11
5.9049799606299214
21
-3.7268700787401574
0
LINE
8
BLACK
6
CONTINUOUS
10
5.9049799606299214
20
-3.7268700787401574
11
5.8996842519685035
21
-3.7161314566929131
0
LINE
8
BLACK
6
CONTINUOUS
10
5.8996842519685035
20
-3.7161314566929131
11
5.8958355118110237
21
-3.7047934645669289
0
LINE
8
BLACK
6
CONTINUOUS
10
5.8958355118110237
20
-3.7047934645669289
11
5.8934996456692916
21
-3.6930501181102362
0
LINE
8
BLACK
6
CONTINUOUS
10
5.8934996456692916
20
-3.6930501181102362
11
5.8927165354330704
21
-3.6811023622047245
0
LINE
8
BLACK
6
CONTINUOUS
10
5.8927165354330704
20
-3.6811023622047245
11
5.8934996456692916
21
-3.6691546062992124
0
LINE
8
BLACK
6
CONTINUOUS
10
5.8934996456692916
20
-3.6691546062992124
11
5.8958355118110237
21
-3.6574112598425197
0
LINE
8
BLACK
6
CONTINUOUS
10
5.8958355118110237
20
-3.6574112598425197
11
5.8996842519685035
21
-3.6460732677165355
0
LINE
8
BLACK
6
CONTINUOUS
10
5.8996842519685035
20
-3.6460732677165355
11
5.9049799606299214
21
-3.6353346456692912
0
LINE
8
BLACK
6
CONTINUOUS
10
5.9049799606299214
20
-3.6353346456692912
11
5.9116320078740152
21
-3.6253791338582677
0
LINE
8
BLACK
6
CONTINUOUS
10
5.9116320078740152
20
-3.6253791338582677
11
5.9195266535433069
21
-3.6163770472440944
0
LINE
8
BLACK
6
CONTINUOUS
10
5.9195266535433069
20
-3.6163770472440944
11
5.9285287401574802
21
-3.6084824015748032
0
LINE
8
BLACK
6
CONTINUOUS
10
5.9285287401574802
20
-3.6084824015748032
11
5.9384842519685037
21
-3.6018303543307084
0
LINE
8
BLACK
6
CONTINUOUS
10
5.9384842519685037
20
-3.6018303543307084
11
5.9492228740157476
21
-3.596534645669291
0
LINE
8
BLACK
6
CONTINUOUS
10
5.9492228740157476
20
-3.596534645669291
11
5.9605608661417318
21
-3.5926859055118108
0
LINE
8
BLACK
6
CONTINUOUS
10
5.9605608661417318
20
-3.5926859055118108
11
5.9723042125984254
21
-3.5903500393700787
0
LINE
8
BLACK
6
CONTINUOUS
10
5.9723042125984254
20
-3.5903500393700787
11
5.984251968503937
21
-3.5895669291338583
0
LINE
8
BLACK
6
CONTINUOUS
10
5.984251968503937
20
-3.5895669291338583
11
5.9961997244094487
21
-3.5903500393700787
0
LINE
8
BLACK
6
CONTINUOUS
10
5.899221377952756
20
-3.692789527559055
11
5.9016047637795275
21
-3.7042590157480313
0
LINE
8
BLACK
6
CONTINUOUS
10
5.9016047637795275
20
-3.7042590157480313
11
5.905527716535433
21
-3.715297125984252
0
LINE
8
BLACK
6
CONTINUOUS
10
5.905527716535433
20
-3.715297125984252
11
5.9109171653543306
21
-3.7256982677165356
0
LINE
8
BLACK
6
CONTINUOUS
10
5.9109171653543306
20
-3.7256982677165356
11
5.9176726771653545
21
-3.735268622047244
0
LINE
8
BLACK
6
CONTINUOUS
10
5.9176726771653545
20
-3.735268622047244
11
5.9256684251968501
21
-3.74383
0
LINE
8
BLACK
6
CONTINUOUS
10
5.9256684251968501
20
-3.74383
11
5.9347555118110238
21
-3.7512228740157481
0
LINE
8
BLACK
6
CONTINUOUS
10
5.9347555118110238
20
-3.7512228740157481
11
5.944764566929134
21
-3.7573095669291336
0
LINE
8
BLACK
6
CONTINUOUS
10
5.944764566929134
20
-3.7573095669291336
11
5.955509251968504
21
-3.761976614173228
0
LINE
8
BLACK
6
CONTINUOUS
10
5.955509251968504
20
-3.761976614173228
11
5.9667893307086617
21
-3.7651371653543304
0
LINE
8
BLACK
6
CONTINUOUS
10
5.9667893307086617
20
-3.7651371653543304
11
5.9783947244094486
21
-3.7667322834645667
0
LINE
8
BLACK
6
CONTINUOUS
10
5.9783947244094486
20
-3.7667322834645667
11
5.9901092125984254
21
-3.7667322834645667
0
LINE
8
BLACK
6
CONTINUOUS
10
5.9901092125984254
20
-3.7667322834645667
11
6.0017146062992124
21
-3.7651371653543304
0
LINE
8
BLACK
6
CONTINUOUS
10
6.0017146062992124
20
-3.7651371653543304
11
6.0129946850393701
21
-3.761976614173228
0
LINE
8
BLACK
6
CONTINUOUS
10
6.0129946850393701
20
-3.761976614173228
11
6.0237393700787401
21
-3.7573095669291336
0
LINE
8
BLACK
6
CONTINUOUS
10
6.0237393700787401
20
-3.7573095669291336
11
6.0337484251968503
21
-3.7512228740157481
0
LINE
8
BLACK
6
CONTINUOUS
10
6.0337484251968503
20
-3.7512228740157481
11
6.0428355118110231
21
-3.74383
0
LINE
8
BLACK
6
CONTINUOUS
10
6.0428355118110231
20
-3.74383
11
6.0508312598425196
21
-3.735268622047244
0
LINE
8
BLACK
6
CONTINUOUS
10
6.0508312598425196
20
-3.735268622047244
11
6.0575867716535434
21
-3.7256982677165356
0
LINE
8
BLACK
6
CONTINUOUS
10
6.0575867716535434
20
-3.7256982677165356
11
6.0629762204724411
21
-3.715297125984252
0
LINE
8
BLACK
6
CONTINUOUS
10
6.0629762204724411
20
-3.715297125984252
11
6.0668991732283466
21
-3.7042590157480313
0
LINE
8
BLACK
6
CONTINUOUS
10
6.0668991732283466
20
-3.7042590157480313
11
6.069282559055118
21
-3.692789527559055
0
LINE
8
BLACK
6
CONTINUOUS
10
6.069282559055118
20
-3.692789527559055
11
6.0700819685039367
21
-3.6811023622047245
0
LINE
8
BLACK
6
CONTINUOUS
10
6.0700819685039367
20
-3.6811023622047245
11
6.069282559055118
21
-3.6694151968503936
0
LINE
8
BLACK
6
CONTINUOUS
10
6.069282559055118
20
-3.6694151968503936
11
6.0668991732283466
21
-3.6579457086614173
0
LINE
8
BLACK
6
CONTINUOUS
10
6.0668991732283466
20
-3.6579457086614173
11
6.0629762204724411
21
-3.6469075984251966
0
LINE
8
BLACK
6
CONTINUOUS
10
6.0629762204724411
20
-3.6469075984251966
11
6.0575867716535434
21
-3.6365064566929135
0
LINE
8
BLACK
6
CONTINUOUS
10
6.0575867716535434
20
-3.6365064566929135
11
6.0508312598425196
21
-3.6269361023622047
0
LINE
8
BLACK
6
CONTINUOUS
10
6.0508312598425196
20
-3.6269361023622047
11
6.0428355118110231
21
-3.6183747244094486
0
LINE
8
BLACK
6
CONTINUOUS
10
6.0428355118110231
20
-3.6183747244094486
11
6.0337484251968503
21
-3.6109818503937006
0
LINE
8
BLACK
6
CONTINUOUS
10
6.0337484251968503
20
-3.6109818503937006
11
6.0237393700787401
21
-3.604895157480315
0
LINE
8
BLACK
6
CONTINUOUS
10
6.0237393700787401
20
-3.604895157480315
11
6.0129946850393701
21
-3.6002281102362206
0
LINE
8
BLACK
6
CONTINUOUS
10
6.0129946850393701
20
-3.6002281102362206
11
6.0017146062992124
21
-3.5970675590551182
0
LINE
8
BLACK
6
CONTINUOUS
10
6.0017146062992124
20
-3.5970675590551182
11
5.9901092125984254
21
-3.5954724409448819
0
LINE
8
BLACK
6
CONTINUOUS
10
5.9901092125984254
20
-3.5954724409448819
11
5.9783947244094486
21
-3.5954724409448819
0
LINE
8
BLACK
6
CONTINUOUS
10
5.9783947244094486
20
-3.5954724409448819
11
5.9667893307086617
21
-3.5970675590551182
0
LINE
8
BLACK
6
CONTINUOUS
10
5.9667893307086617
20
-3.5970675590551182
11
5.955509251968504
21
-3.6002281102362206
0
LINE
8
BLACK
6
CONTINUOUS
10
5.955509251968504
20
-3.6002281102362206
11
5.944764566929134
21
-3.604895157480315
0
LINE
8
BLACK
6
CONTINUOUS
10
5.944764566929134
20
-3.604895157480315
11
5.9347555118110238
21
-3.6109818503937006
0
LINE
8
BLACK
6
CONTINUOUS
10
5.9347555118110238
20
-3.6109818503937006
11
5.9256684251968501
21
-3.6183747244094486
0
LINE
8
BLACK
6
CONTINUOUS
10
5.9256684251968501
20
-3.6183747244094486
11
5.9176726771653545
21
-3.6269361023622047
0
LINE
8
BLACK
6
CONTINUOUS
10
5.9176726771653545
20
-3.6269361023622047
11
5.9109171653543306
21
-3.6365064566929135
0
LINE
8
BLACK
6
CONTINUOUS
10
5.9109171653543306
20
-3.6365064566929135
11
5.905527716535433
21
-3.6469075984251966
0
LINE
8
BLACK
6
CONTINUOUS
10
5.905527716535433
20
-3.6469075984251966
11
5.9016047637795275
21
-3.6579457086614173
0
LINE
8
BLACK
6
CONTINUOUS
10
5.9016047637795275
20
-3.6579457086614173
11
5.899221377952756
21
-3.6694151968503936
0
LINE
8
BLACK
6
CONTINUOUS
10
5.899221377952756
20
-3.6694151968503936
11
5.8984219685039365
21
-3.6811023622047245
0
LINE
8
BLACK
6
CONTINUOUS
10
5.8984219685039365
20
-3.6811023622047245
11
5.899221377952756
21
-3.692789527559055
0
LINE
8
BLACK
6
CONTINUOUS
10
6.5548238188976375
20
-3.3545964566929132
11
6.5674594881889758
21
-3.3575911811023622
0
LINE
8
BLACK
6
CONTINUOUS
10
6.5674594881889758
20
-3.3575911811023622
11
6.5796620866141735
21
-3.3620325590551179
0
LINE
8
BLACK
6
CONTINUOUS
10
6.5796620866141735
20
-3.3620325590551179
11
6.5912665354330704
21
-3.3678605511811024
0
LINE
8
BLACK
6
CONTINUOUS
10
6.5912665354330704
20
-3.3678605511811024
11
6.6021159448818896
21
-3.3749962992125981
0
LINE
8
BLACK
6
CONTINUOUS
10
6.6021159448818896
20
-3.3749962992125981
11
6.6120635826771652
21
-3.3833433464566927
0
LINE
8
BLACK
6
CONTINUOUS
10
6.6120635826771652
20
-3.3833433464566927
11
6.6209748818897634
21
-3.3927888188976376
0
LINE
8
BLACK
6
CONTINUOUS
10
6.6209748818897634
20
-3.3927888188976376
11
6.6287294094488187
21
-3.4032049606299211
0
LINE
8
BLACK
6
CONTINUOUS
10
6.6287294094488187
20
-3.4032049606299211
11
6.6352222834645671
21
-3.4144509055118109
0
LINE
8
BLACK
6
CONTINUOUS
10
6.6352222834645671
20
-3.4144509055118109
11
6.6403656692913389
21
-3.4263746062992126
0
LINE
8
BLACK
6
CONTINUOUS
10
6.6403656692913389
20
-3.4263746062992126
11
6.6440900000000003
21
-3.4388147637795274
0
LINE
8
BLACK
6
CONTINUOUS
10
6.6440900000000003
20
-3.4388147637795274
11
6.6463449606299214
21
-3.4516031889763781
0
LINE
8
BLACK
6
CONTINUOUS
10
6.6463449606299214
20
-3.4516031889763781
11
6.6471
21
-3.4645669291338583
0
LINE
8
BLACK
6
CONTINUOUS
10
6.6471
20
-3.4645669291338583
11
6.6463449606299214
21
-3.4775306692913386
0
LINE
8
BLACK
6
CONTINUOUS
10
6.6463449606299214
20
-3.4775306692913386
11
6.6440900000000003
21
-3.4903190944881888
0
LINE
8
BLACK
6
CONTINUOUS
10
6.6440900000000003
20
-3.4903190944881888
11
6.6403656692913389
21
-3.502759251968504
0
LINE
8
BLACK
6
CONTINUOUS
10
6.6403656692913389
20
-3.502759251968504
11
6.6352222834645671
21
-3.5146829527559054
0
LINE
8
BLACK
6
CONTINUOUS
10
6.6352222834645671
20
-3.5146829527559054
11
6.6287294094488187
21
-3.5259288976377952
0
LINE
8
BLACK
6
CONTINUOUS
10
6.6287294094488187
20
-3.5259288976377952
11
6.6209748818897634
21
-3.5363450393700786
0
LINE
8
BLACK
6
CONTINUOUS
10
6.6209748818897634
20
-3.5363450393700786
11
6.6120635826771652
21
-3.5457905118110236
0
LINE
8
BLACK
6
CONTINUOUS
10
6.6120635826771652
20
-3.5457905118110236
11
6.6021159448818896
21
-3.5541375590551181
0
LINE
8
BLACK
6
CONTINUOUS
10
6.6021159448818896
20
-3.5541375590551181
11
6.5912665354330704
21
-3.5612733070866143
0
LINE
8
BLACK
6
CONTINUOUS
10
6.5912665354330704
20
-3.5612733070866143
11
6.5796620866141735
21
-3.5671012992125983
0
LINE
8
BLACK
6
CONTINUOUS
10
6.5796620866141735
20
-3.5671012992125983
11
6.5674594881889758
21
-3.5715426771653545
0
LINE
8
BLACK
6
CONTINUOUS
10
6.5674594881889758
20
-3.5715426771653545
11
6.5548238188976375
21
-3.574537401574803
0
LINE
8
BLACK
6
CONTINUOUS
10
6.5548238188976375
20
-3.574537401574803
11
6.5419259448818901
21
-3.5760449212598426
0
LINE
8
BLACK
6
CONTINUOUS
10
6.5419259448818901
20
-3.5760449212598426
11
6.5289401968503933
21
-3.5760449212598426
0
LINE
8
BLACK
6
CONTINUOUS
10
6.5289401968503933
20
-3.5760449212598426
11
6.5160423228346458
21
-3.574537401574803
0
LINE
8
BLACK
6
CONTINUOUS
10
6.5160423228346458
20
-3.574537401574803
11
6.5034066535433066
21
-3.5715426771653545
0
LINE
8
BLACK
6
CONTINUOUS
10
6.5034066535433066
20
-3.5715426771653545
11
6.4912040551181098
21
-3.5671012992125983
0
LINE
8
BLACK
6
CONTINUOUS
10
6.4912040551181098
20
-3.5671012992125983
11
6.4795996062992121
21
-3.5612733070866143
0
LINE
8
BLACK
6
CONTINUOUS
10
6.4795996062992121
20
-3.5612733070866143
11
6.4687501968503938
21
-3.5541375590551181
0
LINE
8
BLACK
6
CONTINUOUS
10
6.4687501968503938
20
-3.5541375590551181
11
6.4588025590551181
21
-3.5457905118110236
0
LINE
8
BLACK
6
CONTINUOUS
10
6.4588025590551181
20
-3.5457905118110236
11
6.4498912598425191
21
-3.5363450393700786
0
LINE
8
BLACK
6
CONTINUOUS
10
6.4498912598425191
20
-3.5363450393700786
11
6.4421367322834646
21
-3.5259288976377952
0
LINE
8
BLACK
6
CONTINUOUS
10
6.4421367322834646
20
-3.5259288976377952
11
6.4356438582677162
21
-3.5146829527559054
0
LINE
8
BLACK
6
CONTINUOUS
10
6.4356438582677162
20
-3.5146829527559054
11
6.4305004724409445
21
-3.502759251968504
0
LINE
8
BLACK
6
CONTINUOUS
10
6.4305004724409445
20
-3.502759251968504
11
6.4267761417322831
21
-3.4903190944881888
0
LINE
8
BLACK
6
CONTINUOUS
10
6.4267761417322831
20
-3.4903190944881888
11
6.4245211811023619
21
-3.4775306692913386
0
LINE
8
BLACK
6
CONTINUOUS
10
6.4245211811023619
20
-3.4775306692913386
11
6.4237661417322833
21
-3.4645669291338583
0
LINE
8
BLACK
6
CONTINUOUS
10
6.4237661417322833
20
-3.4645669291338583
11
6.4245211811023619
21
-3.4516031889763781
0
LINE
8
BLACK
6
CONTINUOUS
10
6.4245211811023619
20
-3.4516031889763781
11
6.4267761417322831
21
-3.4388147637795274
0
LINE
8
BLACK
6
CONTINUOUS
10
6.4267761417322831
20
-3.4388147637795274
11
6.4305004724409445
21
-3.4263746062992126
0
LINE
8
BLACK
6
CONTINUOUS
10
6.4305004724409445
20
-3.4263746062992126
11
6.4356438582677162
21
-3.4144509055118109
0
LINE
8
BLACK
6
CONTINUOUS
10
6.4356438582677162
20
-3.4144509055118109
11
6.4421367322834646
21
-3.4032049606299211
0
LINE
8
BLACK
6
CONTINUOUS
10
6.4421367322834646
20
-3.4032049606299211
11
6.4498912598425191
21
-3.3927888188976376
0
LINE
8
BLACK
6
CONTINUOUS
10
6.4498912598425191
20
-3.3927888188976376
11
6.4588025590551181
21
-3.3833433464566927
0
LINE
8
BLACK
6
CONTINUOUS
10
6.4588025590551181
20
-3.3833433464566927
11
6.4687501968503938
21
-3.3749962992125981
0
LINE
8
BLACK
6
CONTINUOUS
10
6.4687501968503938
20
-3.3749962992125981
11
6.4795996062992121
21
-3.3678605511811024
0
LINE
8
BLACK
6
CONTINUOUS
10
6.4795996062992121
20
-3.3678605511811024
11
6.4912040551181098
21
-3.3620325590551179
0
LINE
8
BLACK
6
CONTINUOUS
10
6.4912040551181098
20
-3.3620325590551179
11
6.5034066535433066
21
-3.3575911811023622
0
LINE
8
BLACK
6
CONTINUOUS
10
6.5034066535433066
20
-3.3575911811023622
11
6.5160423228346458
21
-3.3545964566929132
0
LINE
8
BLACK
6
CONTINUOUS
10
6.5160423228346458
20
-3.3545964566929132
11
6.5289401968503933
21
-3.353088937007874
0
LINE
8
BLACK
6
CONTINUOUS
10
6.5289401968503933
20
-3.353088937007874
11
6.5419259448818901
21
-3.353088937007874
0
LINE
8
BLACK
6
CONTINUOUS
10
6.5419259448818901
20
-3.353088937007874
11
6.5548238188976375
21
-3.3545964566929132
0
LINE
8
BLACK
6
CONTINUOUS
10
6.4302508661417326
20
-3.4773383464566927
11
6.4325572047244091
21
-3.4899235433070865
0
LINE
8
BLACK
6
CONTINUOUS
10
6.4325572047244091
20
-3.4899235433070865
11
6.4363637007874015
21
-3.5021389763779527
0
LINE
8
BLACK
6
CONTINUOUS
10
6.4363637007874015
20
-3.5021389763779527
11
6.4416148031496059
21
-3.513806535433071
0
LINE
8
BLACK
6
CONTINUOUS
10
6.4416148031496059
20
-3.513806535433071
11
6.4482340551181103
21
-3.5247560629921257
0
LINE
8
BLACK
6
CONTINUOUS
10
6.4482340551181103
20
-3.5247560629921257
11
6.4561248031496064
21
-3.5348279133858265
0
LINE
8
BLACK
6
CONTINUOUS
10
6.4561248031496064
20
-3.5348279133858265
11
6.4651720866141726
21
-3.5438751968503936
0
LINE
8
BLACK
6
CONTINUOUS
10
6.4651720866141726
20
-3.5438751968503936
11
6.4752439370078738
21
-3.5517659448818897
0
LINE
8
BLACK
6
CONTINUOUS
10
6.4752439370078738
20
-3.5517659448818897
11
6.486193464566929
21
-3.5583851968503937
0
LINE
8
BLACK
6
CONTINUOUS
10
6.486193464566929
20
-3.5583851968503937
11
6.4978610236220469
21
-3.5636362992125985
0
LINE
8
BLACK
6
CONTINUOUS
10
6.4978610236220469
20
-3.5636362992125985
11
6.5100764566929135
21
-3.5674427952755905
0
LINE
8
BLACK
6
CONTINUOUS
10
6.5100764566929135
20
-3.5674427952755905
11
6.5226616535433068
21
-3.5697491338582674
0
LINE
8
BLACK
6
CONTINUOUS
10
6.5226616535433068
20
-3.5697491338582674
11
6.5354330708661417
21
-3.5705216535433069
0
LINE
8
BLACK
6
CONTINUOUS
10
6.5354330708661417
20
-3.5705216535433069
11
6.5482044881889765
21
-3.5697491338582674
0
LINE
8
BLACK
6
CONTINUOUS
10
6.5482044881889765
20
-3.5697491338582674
11
6.5607896850393699
21
-3.5674427952755905
0
LINE
8
BLACK
6
CONTINUOUS
10
6.5607896850393699
20
-3.5674427952755905
11
6.5730051181102365
21
-3.5636362992125985
0
LINE
8
BLACK
6
CONTINUOUS
10
6.5730051181102365
20
-3.5636362992125985
11
6.5846726771653543
21
-3.5583851968503937
0
LINE
8
BLACK
6
CONTINUOUS
10
6.5846726771653543
20
-3.5583851968503937
11
6.5956222047244095
21
-3.5517659448818897
0
LINE
8
BLACK
6
CONTINUOUS
10
6.5956222047244095
20
-3.5517659448818897
11
6.6056940551181098
21
-3.5438751968503936
0
LINE
8
BLACK
6
CONTINUOUS
10
6.6056940551181098
20
-3.5438751968503936
11
6.614741338582677
21
-3.5348279133858265
0
LINE
8
BLACK
6
CONTINUOUS
10
6.614741338582677
20
-3.5348279133858265
11
6.622632086614173
21
-3.5247560629921257
0
LINE
8
BLACK
6
CONTINUOUS
10
6.622632086614173
20
-3.5247560629921257
11
6.6292513385826775
21
-3.513806535433071
0
LINE
8
BLACK
6
CONTINUOUS
10
6.6292513385826775
20
-3.513806535433071
11
6.6345024409448818
21
-3.5021389763779527
0
LINE
8
BLACK
6
CONTINUOUS
10
6.6345024409448818
20
-3.5021389763779527
11
6.6383089370078743
21
-3.4899235433070865
0
LINE
8
BLACK
6
CONTINUOUS
10
6.6383089370078743
20
-3.4899235433070865
11
6.6406152755905508
21
-3.4773383464566927
0
LINE
8
BLACK
6
CONTINUOUS
10
6.6406152755905508
20
-3.4773383464566927
11
6.6413877952755902
21
-3.4645669291338583
0
LINE
8
BLACK
6
CONTINUOUS
10
6.6413877952755902
20
-3.4645669291338583
11
6.6406152755905508
21
-3.4517955118110235
0
LINE
8
BLACK
6
CONTINUOUS
10
6.6406152755905508
20
-3.4517955118110235
11
6.6383089370078743
21
-3.4392103149606297
0
LINE
8
BLACK
6
CONTINUOUS
10
6.6383089370078743
20
-3.4392103149606297
11
6.6345024409448818
21
-3.4269948818897635
0
LINE
8
BLACK
6
CONTINUOUS
10
6.6345024409448818
20
-3.4269948818897635
11
6.6292513385826775
21
-3.4153273228346457
0
LINE
8
BLACK
6
CONTINUOUS
10
6.6292513385826775
20
-3.4153273228346457
11
6.622632086614173
21
-3.4043777952755905
0
LINE
8
BLACK
6
CONTINUOUS
10
6.622632086614173
20
-3.4043777952755905
11
6.614741338582677
21
-3.3943059448818897
0
LINE
8
BLACK
6
CONTINUOUS
10
6.614741338582677
20
-3.3943059448818897
11
6.6056940551181098
21
-3.3852586614173226
0
LINE
8
BLACK
6
CONTINUOUS
10
6.6056940551181098
20
-3.3852586614173226
11
6.5956222047244095
21
-3.3773679133858265
0
LINE
8
BLACK
6
CONTINUOUS
10
6.5956222047244095
20
-3.3773679133858265
11
6.5846726771653543
21
-3.3707486614173225
0
LINE
8
BLACK
6
CONTINUOUS
10
6.5846726771653543
20
-3.3707486614173225
11
6.5730051181102365
21
-3.3654975590551182
0
LINE
8
BLACK
6
CONTINUOUS
10
6.5730051181102365
20
-3.3654975590551182
11
6.5607896850393699
21
-3.3616910629921257
0
LINE
8
BLACK
6
CONTINUOUS
10
6.5607896850393699
20
-3.3616910629921257
11
6.5482044881889765
21
-3.3593847244094488
0
LINE
8
BLACK
6
CONTINUOUS
10
6.5482044881889765
20
-3.3593847244094488
11
6.5354330708661417
21
-3.3586122047244094
0
LINE
8
BLACK
6
CONTINUOUS
10
6.5354330708661417
20
-3.3586122047244094
11
6.5226616535433068
21
-3.3593847244094488
0
LINE
8
BLACK
6
CONTINUOUS
10
6.5226616535433068
20
-3.3593847244094488
11
6.5100764566929135
21
-3.3616910629921257
0
LINE
8
BLACK
6
CONTINUOUS
10
6.5100764566929135
20
-3.3616910629921257
11
6.4978610236220469
21
-3.3654975590551182
0
LINE
8
BLACK
6
CONTINUOUS
10
6.4978610236220469
20
-3.3654975590551182
11
6.486193464566929
21
-3.3707486614173225
0
LINE
8
BLACK
6
CONTINUOUS
10
6.486193464566929
20
-3.3707486614173225
11
6.4752439370078738
21
-3.3773679133858265
0
LINE
8
BLACK
6
CONTINUOUS
10
6.4752439370078738
20
-3.3773679133858265
11
6.4651720866141726
21
-3.3852586614173226
0
LINE
8
BLACK
6
CONTINUOUS
10
6.4651720866141726
20
-3.3852586614173226
11
6.4561248031496064
21
-3.3943059448818897
0
LINE
8
BLACK
6
CONTINUOUS
10
6.4561248031496064
20
-3.3943059448818897
11
6.4482340551181103
21
-3.4043777952755905
0
LINE
8
BLACK
6
CONTINUOUS
10
6.4482340551181103
20
-3.4043777952755905
11
6.4416148031496059
21
-3.4153273228346457
0
LINE
8
BLACK
6
CONTINUOUS
10
6.4416148031496059
20
-3.4153273228346457
11
6.4363637007874015
21
-3.4269948818897635
0
LINE
8
BLACK
6
CONTINUOUS
10
6.4363637007874015
20
-3.4269948818897635
11
6.4325572047244091
21
-3.4392103149606297
0
LINE
8
BLACK
6
CONTINUOUS
10
6.4325572047244091
20
-3.4392103149606297
11
6.4302508661417326
21
-3.4517955118110235
0
LINE
8
BLACK
6
CONTINUOUS
10
6.4302508661417326
20
-3.4517955118110235
11
6.4294783464566931
21
-3.4645669291338583
0
LINE
8
BLACK
6
CONTINUOUS
10
6.4294783464566931
20
-3.4645669291338583
11
6.4302508661417326
21
-3.4773383464566927
0
LINE
8
BLACK
6
CONTINUOUS
10
6.4682751181102365
20
-3.0990565748031496
11
6.4755578346456693
21
-3.1018779133858265
0
LINE
8
BLACK
6
CONTINUOUS
10
6.4755578346456693
20
-3.1018779133858265
11
6.4821981102362205
21
-3.105989409448819
0
LINE
8
BLACK
6
CONTINUOUS
10
6.4821981102362205
20
-3.105989409448819
11
6.4879698818897635
21
-3.1112510629921259
0
LINE
8
BLACK
6
CONTINUOUS
10
6.4879698818897635
20
-3.1112510629921259
11
6.4926764960629919
21
-3.1174836614173227
0
LINE
8
BLACK
6
CONTINUOUS
10
6.4926764960629919
20
-3.1174836614173227
11
6.4961577952755905
21
-3.1244749999999999
0
LINE
8
BLACK
6
CONTINUOUS
10
6.4961577952755905
20
-3.1244749999999999
11
6.498295118110236
21
-3.131986968503937
0
LINE
8
BLACK
6
CONTINUOUS
10
6.498295118110236
20
-3.131986968503937
11
6.4990157480314963
21
-3.1397637795275588
0
LINE
8
BLACK
6
CONTINUOUS
10
6.4990157480314963
20
-3.1397637795275588
11
6.498295118110236
21
-3.1475405905511811
0
LINE
8
BLACK
6
CONTINUOUS
10
6.498295118110236
20
-3.1475405905511811
11
6.4961577952755905
21
-3.1550525590551182
0
LINE
8
BLACK
6
CONTINUOUS
10
6.4961577952755905
20
-3.1550525590551182
11
6.4926764960629919
21
-3.1620438976377954
0
LINE
8
BLACK
6
CONTINUOUS
10
6.4926764960629919
20
-3.1620438976377954
11
6.4879698818897635
21
-3.1682764960629921
0
LINE
8
BLACK
6
CONTINUOUS
10
6.4879698818897635
20
-3.1682764960629921
11
6.4821981102362205
21
-3.1735381496062991
0
LINE
8
BLACK
6
CONTINUOUS
10
6.4821981102362205
20
-3.1735381496062991
11
6.4755578346456693
21
-3.1776496456692911
0
LINE
8
BLACK
6
CONTINUOUS
10
6.4755578346456693
20
-3.1776496456692911
11
6.4682751181102365
21
-3.1804709842519685
0
LINE
8
BLACK
6
CONTINUOUS
10
6.4682751181102365
20
-3.1804709842519685
11
6.4605979527559052
21
-3.1819060629921259
0
LINE
8
BLACK
6
CONTINUOUS
10
6.4605979527559052
20
-3.1819060629921259
11
6.4527878740157476
21
-3.1819060629921259
0
LINE
8
BLACK
6
CONTINUOUS
10
6.4527878740157476
20
-3.1819060629921259
11
6.4451107086614172
21
-3.1804709842519685
0
LINE
8
BLACK
6
CONTINUOUS
10
6.4451107086614172
20
-3.1804709842519685
11
6.4378279921259844
21
-3.1776496456692911
0
LINE
8
BLACK
6
CONTINUOUS
10
6.4378279921259844
20
-3.1776496456692911
11
6.4311877165354332
21
-3.1735381496062991
0
LINE
8
BLACK
6
CONTINUOUS
10
6.4311877165354332
20
-3.1735381496062991
11
6.4254159448818893
21
-3.1682764960629921
0
LINE
8
BLACK
6
CONTINUOUS
10
6.4254159448818893
20
-3.1682764960629921
11
6.4207093307086609
21
-3.1620438976377954
0
LINE
8
BLACK
6
CONTINUOUS
10
6.4207093307086609
20
-3.1620438976377954
11
6.4172280314960632
21
-3.1550525590551182
0
LINE
8
BLACK
6
CONTINUOUS
10
6.4172280314960632
20
-3.1550525590551182
11
6.4150907086614168
21
-3.1475405905511811
0
LINE
8
BLACK
6
CONTINUOUS
10
6.4150907086614168
20
-3.1475405905511811
11
6.4143700787401574
21
-3.1397637795275588
0
LINE
8
BLACK
6
CONTINUOUS
10
6.4143700787401574
20
-3.1397637795275588
11
6.4150907086614168
21
-3.131986968503937
0
LINE
8
BLACK
6
CONTINUOUS
10
6.4150907086614168
20
-3.131986968503937
11
6.4172280314960632
21
-3.1244749999999999
0
LINE
8
BLACK
6
CONTINUOUS
10
6.4172280314960632
20
-3.1244749999999999
11
6.4207093307086609
21
-3.1174836614173227
0
LINE
8
BLACK
6
CONTINUOUS
10
6.4207093307086609
20
-3.1174836614173227
11
6.4254159448818893
21
-3.1112510629921259
0
LINE
8
BLACK
6
CONTINUOUS
10
6.4254159448818893
20
-3.1112510629921259
11
6.4311877165354332
21
-3.105989409448819
0
LINE
8
BLACK
6
CONTINUOUS
10
6.4311877165354332
20
-3.105989409448819
11
6.4378279921259844
21
-3.1018779133858265
0
LINE
8
BLACK
6
CONTINUOUS
10
6.4378279921259844
20
-3.1018779133858265
11
6.4451107086614172
21
-3.0990565748031496
0
LINE
8
BLACK
6
CONTINUOUS
10
6.4451107086614172
20
-3.0990565748031496
11
6.4527878740157476
21
-3.0976214960629922
0
LINE
8
BLACK
6
CONTINUOUS
10
6.4527878740157476
20
-3.0976214960629922
11
6.4605979527559052
21
-3.0976214960629922
0
LINE
8
BLACK
6
CONTINUOUS
10
6.4605979527559052
20
-3.0976214960629922
11
6.4682751181102365
21
-3.0990565748031496
0
LINE
8
BLACK
6
CONTINUOUS
10
6.4208751968503934
20
-3.1473770866141733
11
6.4232407874015749
21
-3.1546576377952755
0
LINE
8
BLACK
6
CONTINUOUS
10
6.4232407874015749
20
-3.1546576377952755
11
6.4270683858267716
21
-3.1612872440944879
0
LINE
8
BLACK
6
CONTINUOUS
10
6.4270683858267716
20
-3.1612872440944879
11
6.4321907480314957
21
-3.166976181102362
0
LINE
8
BLACK
6
CONTINUOUS
10
6.4321907480314957
20
-3.166976181102362
11
6.4383839370078739
21
-3.1714758267716534
0
LINE
8
BLACK
6
CONTINUOUS
10
6.4383839370078739
20
-3.1714758267716534
11
6.4453773622047246
21
-3.1745894881889765
0
LINE
8
BLACK
6
CONTINUOUS
10
6.4453773622047246
20
-3.1745894881889765
11
6.4528653149606301
21
-3.1761811023622046
0
LINE
8
BLACK
6
CONTINUOUS
10
6.4528653149606301
20
-3.1761811023622046
11
6.4605205118110236
21
-3.1761811023622046
0
LINE
8
BLACK
6
CONTINUOUS
10
6.4605205118110236
20
-3.1761811023622046
11
6.4680084645669291
21
-3.1745894881889765
0
LINE
8
BLACK
6
CONTINUOUS
10
6.4680084645669291
20
-3.1745894881889765
11
6.4750018897637798
21
-3.1714758267716534
0
LINE
8
BLACK
6
CONTINUOUS
10
6.4750018897637798
20
-3.1714758267716534
11
6.4811950787401571
21
-3.166976181102362
0
LINE
8
BLACK
6
CONTINUOUS
10
6.4811950787401571
20
-3.166976181102362
11
6.4863174409448821
21
-3.1612872440944879
0
LINE
8
BLACK
6
CONTINUOUS
10
6.4863174409448821
20
-3.1612872440944879
11
6.4901450393700788
21
-3.1546576377952755
0
LINE
8
BLACK
6
CONTINUOUS
10
6.4901450393700788
20
-3.1546576377952755
11
6.4925106299212594
21
-3.1473770866141733
0
LINE
8
BLACK
6
CONTINUOUS
10
6.4925106299212594
20
-3.1473770866141733
11
6.4933108267716531
21
-3.1397637795275588
0
LINE
8
BLACK
6
CONTINUOUS
10
6.4933108267716531
20
-3.1397637795275588
11
6.4925106299212594
21
-3.1321504724409448
0
LINE
8
BLACK
6
CONTINUOUS
10
6.4925106299212594
20
-3.1321504724409448
11
6.4901450393700788
21
-3.1248699212598425
0
LINE
8
BLACK
6
CONTINUOUS
10
6.4901450393700788
20
-3.1248699212598425
11
6.4863174409448821
21
-3.1182403149606297
0
LINE
8
BLACK
6
CONTINUOUS
10
6.4863174409448821
20
-3.1182403149606297
11
6.4811950787401571
21
-3.112551377952756
0
LINE
8
BLACK
6
CONTINUOUS
10
6.4811950787401571
20
-3.112551377952756
11
6.4750018897637798
21
-3.1080517322834647
0
LINE
8
BLACK
6
CONTINUOUS
10
6.4750018897637798
20
-3.1080517322834647
11
6.4680084645669291
21
-3.1049380708661416
0
LINE
8
BLACK
6
CONTINUOUS
10
6.4680084645669291
20
-3.1049380708661416
11
6.4605205118110236
21
-3.1033464566929134
0
LINE
8
BLACK
6
CONTINUOUS
10
6.4605205118110236
20
-3.1033464566929134
11
6.4528653149606301
21
-3.1033464566929134
0
LINE
8
BLACK
6
CONTINUOUS
10
6.4528653149606301
20
-3.1033464566929134
11
6.4453773622047246
21
-3.1049380708661416
0
LINE
8
BLACK
6
CONTINUOUS
10
6.4453773622047246
20
-3.1049380708661416
11
6.4383839763779527
21
-3.1080517322834647
0
LINE
8
BLACK
6
CONTINUOUS
10
6.4383839763779527
20
-3.1080517322834647
11
6.4321907480314957
21
-3.112551377952756
0
LINE
8
BLACK
6
CONTINUOUS
10
6.4321907480314957
20
-3.112551377952756
11
6.4270683858267716
21
-3.1182403149606297
0
LINE
8
BLACK
6
CONTINUOUS
10
6.4270683858267716
20
-3.1182403149606297
11
6.4232407874015749
21
-3.1248699212598425
0
LINE
8
BLACK
6
CONTINUOUS
10
6.4232407874015749
20
-3.1248699212598425
11
6.4208751968503934
21
-3.1321504724409448
0
LINE
8
BLACK
6
CONTINUOUS
10
6.4208751968503934
20
-3.1321504724409448
11
6.4200749999999998
21
-3.1397637795275588
0
LINE
8
BLACK
6
CONTINUOUS
10
6.4200749999999998
20
-3.1397637795275588
11
6.4208751968503934
21
-3.1473770866141733
0
LINE
8
BLACK
6
CONTINUOUS
10
6.3107948031496059
20
-2.9415762598425195
11
6.3180775196850396
21
-2.9443975984251969
0
LINE
8
BLACK
6
CONTINUOUS
10
6.3180775196850396
20
-2.9443975984251969
11
6.32471779527559
21
-2.9485090944881889
0
LINE
8
BLACK
6
CONTINUOUS
10
6.32471779527559
20
-2.9485090944881889
11
6.3304895669291339
21
-2.9537707480314959
0
LINE
8
BLACK
6
CONTINUOUS
10
6.3304895669291339
20
-2.9537707480314959
11
6.3351961811023623
21
-2.9600033464566931
0
LINE
8
BLACK
6
CONTINUOUS
10
6.3351961811023623
20
-2.9600033464566931
11
6.3386774803149608
21
-2.9669946850393698
0
LINE
8
BLACK
6
CONTINUOUS
10
6.3386774803149608
20
-2.9669946850393698
11
6.3408148031496063
21
-2.9745066535433069
0
LINE
8
BLACK
6
CONTINUOUS
10
6.3408148031496063
20
-2.9745066535433069
11
6.3415354330708658
21
-2.9822834645669292
0
LINE
8
BLACK
6
CONTINUOUS
10
6.3415354330708658
20
-2.9822834645669292
11
6.3408148031496063
21
-2.990060275590551
0
LINE
8
BLACK
6
CONTINUOUS
10
6.3408148031496063
20
-2.990060275590551
11
6.3386774803149608
21
-2.9975722440944881
0
LINE
8
BLACK
6
CONTINUOUS
10
6.3386774803149608
20
-2.9975722440944881
11
6.3351961811023623
21
-3.0045635826771653
0
LINE
8
BLACK
6
CONTINUOUS
10
6.3351961811023623
20
-3.0045635826771653
11
6.3304895669291339
21
-3.010796181102362
0
LINE
8
BLACK
6
CONTINUOUS
10
6.3304895669291339
20
-3.010796181102362
11
6.32471779527559
21
-3.016057834645669
0
LINE
8
BLACK
6
CONTINUOUS
10
6.32471779527559
20
-3.016057834645669
11
6.3180775196850396
21
-3.0201693307086614
0
LINE
8
BLACK
6
CONTINUOUS
10
6.3180775196850396
20
-3.0201693307086614
11
6.3107948031496059
21
-3.0229906692913384
0
LINE
8
BLACK
6
CONTINUOUS
10
6.3107948031496059
20
-3.0229906692913384
11
6.3031176377952756
21
-3.0244257480314958
0
LINE
8
BLACK
6
CONTINUOUS
10
6.3031176377952756
20
-3.0244257480314958
11
6.295307559055118
21
-3.0244257480314958
0
LINE
8
BLACK
6
CONTINUOUS
10
6.295307559055118
20
-3.0244257480314958
11
6.2876303937007876
21
-3.0229906692913384
0
LINE
8
BLACK
6
CONTINUOUS
10
6.2876303937007876
20
-3.0229906692913384
11
6.2803476771653539
21
-3.0201693307086614
0
LINE
8
BLACK
6
CONTINUOUS
10
6.2803476771653539
20
-3.0201693307086614
11
6.2737074015748027
21
-3.016057834645669
0
LINE
8
BLACK
6
CONTINUOUS
10
6.2737074015748027
20
-3.016057834645669
11
6.2679356299212596
21
-3.010796181102362
0
LINE
8
BLACK
6
CONTINUOUS
10
6.2679356299212596
20
-3.010796181102362
11
6.2632290157480313
21
-3.0045635826771653
0
LINE
8
BLACK
6
CONTINUOUS
10
6.2632290157480313
20
-3.0045635826771653
11
6.2597477165354327
21
-2.9975722440944881
0
LINE
8
BLACK
6
CONTINUOUS
10
6.2597477165354327
20
-2.9975722440944881
11
6.2576103937007872
21
-2.990060275590551
0
LINE
8
BLACK
6
CONTINUOUS
10
6.2576103937007872
20
-2.990060275590551
11
6.2568897637795278
21
-2.9822834645669292
0
LINE
8
BLACK
6
CONTINUOUS
10
6.2568897637795278
20
-2.9822834645669292
11
6.2576103937007872
21
-2.9745066535433069
0
LINE
8
BLACK
6
CONTINUOUS
10
6.2576103937007872
20
-2.9745066535433069
11
6.2597477165354327
21
-2.9669946850393698
0
LINE
8
BLACK
6
CONTINUOUS
10
6.2597477165354327
20
-2.9669946850393698
11
6.2632290157480313
21
-2.9600033464566931
0
LINE
8
BLACK
6
CONTINUOUS
10
6.2632290157480313
20
-2.9600033464566931
11
6.2679356299212596
21
-2.9537707480314959
0
LINE
8
BLACK
6
CONTINUOUS
10
6.2679356299212596
20
-2.9537707480314959
11
6.2737074015748027
21
-2.9485090944881889
0
LINE
8
BLACK
6
CONTINUOUS
10
6.2737074015748027
20
-2.9485090944881889
11
6.2803476771653539
21
-2.9443975984251969
0
LINE
8
BLACK
6
CONTINUOUS
10
6.2803476771653539
20
-2.9443975984251969
11
6.2876303937007876
21
-2.9415762598425195
0
LINE
8
BLACK
6
CONTINUOUS
10
6.2876303937007876
20
-2.9415762598425195
11
6.295307559055118
21
-2.9401411811023621
0
LINE
8
BLACK
6
CONTINUOUS
10
6.295307559055118
20
-2.9401411811023621
11
6.3031176377952756
21
-2.9401411811023621
0
LINE
8
BLACK
6
CONTINUOUS
10
6.3031176377952756
20
-2.9401411811023621
11
6.3107948031496059
21
-2.9415762598425195
0
LINE
8
BLACK
6
CONTINUOUS
10
6.2633948818897638
20
-2.9898967716535432
11
6.2657604724409444
21
-2.9971773228346454
0
LINE
8
BLACK
6
CONTINUOUS
10
6.2657604724409444
20
-2.9971773228346454
11
6.269588070866142
21
-3.0038069291338583
0
LINE
8
BLACK
6
CONTINUOUS
10
6.269588070866142
20
-3.0038069291338583
11
6.2747104330708661
21
-3.0094958661417324
0
LINE
8
BLACK
6
CONTINUOUS
10
6.2747104330708661
20
-3.0094958661417324
11
6.2809036220472443
21
-3.0139955118110238
0
LINE
8
BLACK
6
CONTINUOUS
10
6.2809036220472443
20
-3.0139955118110238
11
6.287897047244094
21
-3.0171091732283464
0
LINE
8
BLACK
6
CONTINUOUS
10
6.287897047244094
20
-3.0171091732283464
11
6.2953849999999996
21
-3.0187007874015745
0
LINE
8
BLACK
6
CONTINUOUS
10
6.2953849999999996
20
-3.0187007874015745
11
6.303040196850394
21
-3.0187007874015745
0
LINE
8
BLACK
6
CONTINUOUS
10
6.303040196850394
20
-3.0187007874015745
11
6.3105281496062995
21
-3.0171091732283464
0
LINE
8
BLACK
6
CONTINUOUS
10
6.3105281496062995
20
-3.0171091732283464
11
6.3175215748031492
21
-3.0139955118110238
0
LINE
8
BLACK
6
CONTINUOUS
10
6.3175215748031492
20
-3.0139955118110238
11
6.3237147637795275
21
-3.0094958661417324
0
LINE
8
BLACK
6
CONTINUOUS
10
6.3237147637795275
20
-3.0094958661417324
11
6.3288371259842515
21
-3.0038069291338583
0
LINE
8
BLACK
6
CONTINUOUS
10
6.3288371259842515
20
-3.0038069291338583
11
6.3326647244094483
21
-2.9971773228346454
0
LINE
8
BLACK
6
CONTINUOUS
10
6.3326647244094483
20
-2.9971773228346454
11
6.3350303149606297
21
-2.9898967716535432
0
LINE
8
BLACK
6
CONTINUOUS
10
6.3350303149606297
20
-2.9898967716535432
11
6.3358305118110234
21
-2.9822834645669292
0
LINE
8
BLACK
6
CONTINUOUS
10
6.3358305118110234
20
-2.9822834645669292
11
6.3350303149606297
21
-2.9746701574803147
0
LINE
8
BLACK
6
CONTINUOUS
10
6.3350303149606297
20
-2.9746701574803147
11
6.3326647244094483
21
-2.9673896062992124
0
LINE
8
BLACK
6
CONTINUOUS
10
6.3326647244094483
20
-2.9673896062992124
11
6.3288371259842515
21
-2.9607600000000001
0
LINE
8
BLACK
6
CONTINUOUS
10
6.3288371259842515
20
-2.9607600000000001
11
6.3237147637795275
21
-2.955071062992126
0
LINE
8
BLACK
6
CONTINUOUS
10
6.3237147637795275
20
-2.955071062992126
11
6.3175215748031492
21
-2.9505714173228346
0
LINE
8
BLACK
6
CONTINUOUS
10
6.3175215748031492
20
-2.9505714173228346
11
6.3105281496062995
21
-2.947457755905512
0
LINE
8
BLACK
6
CONTINUOUS
10
6.3105281496062995
20
-2.947457755905512
11
6.303040196850394
21
-2.9458661417322833
0
LINE
8
BLACK
6
CONTINUOUS
10
6.303040196850394
20
-2.9458661417322833
11
6.2953849999999996
21
-2.9458661417322833
0
LINE
8
BLACK
6
CONTINUOUS
10
6.2953849999999996
20
-2.9458661417322833
11
6.287897047244094
21
-2.947457755905512
0
LINE
8
BLACK
6
CONTINUOUS
10
6.287897047244094
20
-2.947457755905512
11
6.280903661417323
21
-2.9505714173228346
0
LINE
8
BLACK
6
CONTINUOUS
10
6.280903661417323
20
-2.9505714173228346
11
6.2747104330708661
21
-2.955071062992126
0
LINE
8
BLACK
6
CONTINUOUS
10
6.2747104330708661
20
-2.955071062992126
11
6.269588070866142
21
-2.9607600000000001
0
LINE
8
BLACK
6
CONTINUOUS
10
6.269588070866142
20
-2.9607600000000001
11
6.2657604724409444
21
-2.9673896062992124
0
LINE
8
BLACK
6
CONTINUOUS
10
6.2657604724409444
20
-2.9673896062992124
11
6.2633948818897638
21
-2.9746701574803147
0
LINE
8
BLACK
6
CONTINUOUS
10
6.2633948818897638
20
-2.9746701574803147
11
6.2625946850393701
21
-2.9822834645669292
0
LINE
8
BLACK
6
CONTINUOUS
10
6.2625946850393701
20
-2.9822834645669292
11
6.2633948818897638
21
-2.9898967716535432
0
LINE
8
BLACK
6
CONTINUOUS
10
6.4682751181102365
20
-2.9415762598425195
11
6.4755578346456693
21
-2.9443975984251969
0
LINE
8
BLACK
6
CONTINUOUS
10
6.4755578346456693
20
-2.9443975984251969
11
6.4821981102362205
21
-2.9485090944881889
0
LINE
8
BLACK
6
CONTINUOUS
10
6.4821981102362205
20
-2.9485090944881889
11
6.4879698818897635
21
-2.9537707480314959
0
LINE
8
BLACK
6
CONTINUOUS
10
6.4879698818897635
20
-2.9537707480314959
11
6.4926764960629919
21
-2.9600033464566931
0
LINE
8
BLACK
6
CONTINUOUS
10
6.4926764960629919
20
-2.9600033464566931
11
6.4961577952755905
21
-2.9669946850393698
0
LINE
8
BLACK
6
CONTINUOUS
10
6.4961577952755905
20
-2.9669946850393698
11
6.498295118110236
21
-2.9745066535433069
0
LINE
8
BLACK
6
CONTINUOUS
10
6.498295118110236
20
-2.9745066535433069
11
6.4990157480314963
21
-2.9822834645669292
0
LINE
8
BLACK
6
CONTINUOUS
10
6.4990157480314963
20
-2.9822834645669292
11
6.498295118110236
21
-2.990060275590551
0
LINE
8
BLACK
6
CONTINUOUS
10
6.498295118110236
20
-2.990060275590551
11
6.4961577952755905
21
-2.9975722440944881
0
LINE
8
BLACK
6
CONTINUOUS
10
6.4961577952755905
20
-2.9975722440944881
11
6.4926764960629919
21
-3.0045635826771653
0
LINE
8
BLACK
6
CONTINUOUS
10
6.4926764960629919
20
-3.0045635826771653
11
6.4879698818897635
21
-3.010796181102362
0
LINE
8
BLACK
6
CONTINUOUS
10
6.4879698818897635
20
-3.010796181102362
11
6.4821981102362205
21
-3.016057834645669
0
LINE
8
BLACK
6
CONTINUOUS
10
6.4821981102362205
20
-3.016057834645669
11
6.4755578346456693
21
-3.0201693307086614
0
LINE
8
BLACK
6
CONTINUOUS
10
6.4755578346456693
20
-3.0201693307086614
11
6.4682751181102365
21
-3.0229906692913384
0
LINE
8
BLACK
6
CONTINUOUS
10
6.4682751181102365
20
-3.0229906692913384
11
6.4605979527559052
21
-3.0244257480314958
0
LINE
8
BLACK
6
CONTINUOUS
10
6.4605979527559052
20
-3.0244257480314958
11
6.4527878740157476
21
-3.0244257480314958
0
LINE
8
BLACK
6
CONTINUOUS
10
6.4527878740157476
20
-3.0244257480314958
11
6.4451107086614172
21
-3.0229906692913384
0
LINE
8
BLACK
6
CONTINUOUS
10
6.4451107086614172
20
-3.0229906692913384
11
6.4378279921259844
21
-3.0201693307086614
0
LINE
8
BLACK
6
CONTINUOUS
10
6.4378279921259844
20
-3.0201693307086614
11
6.4311877165354332
21
-3.016057834645669
0
LINE
8
BLACK
6
CONTINUOUS
10
6.4311877165354332
20
-3.016057834645669
11
6.4254159448818893
21
-3.010796181102362
0
LINE
8
BLACK
6
CONTINUOUS
10
6.4254159448818893
20
-3.010796181102362
11
6.4207093307086609
21
-3.0045635826771653
0
LINE
8
BLACK
6
CONTINUOUS
10
6.4207093307086609
20
-3.0045635826771653
11
6.4172280314960632
21
-2.9975722440944881
0
LINE
8
BLACK
6
CONTINUOUS
10
6.4172280314960632
20
-2.9975722440944881
11
6.4150907086614168
21
-2.990060275590551
0
LINE
8
BLACK
6
CONTINUOUS
10
6.4150907086614168
20
-2.990060275590551
11
6.4143700787401574
21
-2.9822834645669292
0
LINE
8
BLACK
6
CONTINUOUS
10
6.4143700787401574
20
-2.9822834645669292
11
6.4150907086614168
21
-2.9745066535433069
0
LINE
8
BLACK
6
CONTINUOUS
10
6.4150907086614168
20
-2.9745066535433069
11
6.4172280314960632
21
-2.9669946850393698
0
LINE
8
BLACK
6
CONTINUOUS
10
6.4172280314960632
20
-2.9669946850393698
11
6.4207093307086609
21
-2.9600033464566931
0
LINE
8
BLACK
6
CONTINUOUS
10
6.4207093307086609
20
-2.9600033464566931
11
6.4254159448818893
21
-2.9537707480314959
0
LINE
8
BLACK
6
CONTINUOUS
10
6.4254159448818893
20
-2.9537707480314959
11
6.4311877165354332
21
-2.9485090944881889
0
LINE
8
BLACK
6
CONTINUOUS
10
6.4311877165354332
20
-2.9485090944881889
11
6.4378279921259844
21
-2.9443975984251969
0
LINE
8
BLACK
6
CONTINUOUS
10
6.4378279921259844
20
-2.9443975984251969
11
6.4451107086614172
21
-2.9415762598425195
0
LINE
8
BLACK
6
CONTINUOUS
10
6.4451107086614172
20
-2.9415762598425195
11
6.4527878740157476
21
-2.9401411811023621
0
LINE
8
BLACK
6
CONTINUOUS
10
6.4527878740157476
20
-2.9401411811023621
11
6.4605979527559052
21
-2.9401411811023621
0
LINE
8
BLACK
6
CONTINUOUS
10
6.4605979527559052
20
-2.9401411811023621
11
6.4682751181102365
21
-2.9415762598425195
0
LINE
8
BLACK
6
CONTINUOUS
10
6.4208751968503934
20
-2.9898967716535432
11
6.4232407874015749
21
-2.9971773228346454
0
LINE
8
BLACK
6
CONTINUOUS
10
6.4232407874015749
20
-2.9971773228346454
11
6.4270683858267716
21
-3.0038069291338583
0
LINE
8
BLACK
6
CONTINUOUS
10
6.4270683858267716
20
-3.0038069291338583
11
6.4321907480314957
21
-3.0094958661417324
0
LINE
8
BLACK
6
CONTINUOUS
10
6.4321907480314957
20
-3.0094958661417324
11
6.4383839370078739
21
-3.0139955118110238
0
LINE
8
BLACK
6
CONTINUOUS
10
6.4383839370078739
20
-3.0139955118110238
11
6.4453773622047246
21
-3.0171091732283464
0
LINE
8
BLACK
6
CONTINUOUS
10
6.4453773622047246
20
-3.0171091732283464
11
6.4528653149606301
21
-3.0187007874015745
0
LINE
8
BLACK
6
CONTINUOUS
10
6.4528653149606301
20
-3.0187007874015745
11
6.4605205118110236
21
-3.0187007874015745
0
LINE
8
BLACK
6
CONTINUOUS
10
6.4605205118110236
20
-3.0187007874015745
11
6.4680084645669291
21
-3.0171091732283464
0
LINE
8
BLACK
6
CONTINUOUS
10
6.4680084645669291
20
-3.0171091732283464
11
6.4750018897637798
21
-3.0139955118110238
0
LINE
8
BLACK
6
CONTINUOUS
10
6.4750018897637798
20
-3.0139955118110238
11
6.4811950787401571
21
-3.0094958661417324
0
LINE
8
BLACK
6
CONTINUOUS
10
6.4811950787401571
20
-3.0094958661417324
11
6.4863174409448821
21
-3.0038069291338583
0
LINE
8
BLACK
6
CONTINUOUS
10
6.4863174409448821
20
-3.0038069291338583
11
6.4901450393700788
21
-2.9971773228346454
0
LINE
8
BLACK
6
CONTINUOUS
10
6.4901450393700788
20
-2.9971773228346454
11
6.4925106299212594
21
-2.9898967716535432
0
LINE
8
BLACK
6
CONTINUOUS
10
6.4925106299212594
20
-2.9898967716535432
11
6.4933108267716531
21
-2.9822834645669292
0
LINE
8
BLACK
6
CONTINUOUS
10
6.4933108267716531
20
-2.9822834645669292
11
6.4925106299212594
21
-2.9746701574803147
0
LINE
8
BLACK
6
CONTINUOUS
10
6.4925106299212594
20
-2.9746701574803147
11
6.4901450393700788
21
-2.9673896062992124
0
LINE
8
BLACK
6
CONTINUOUS
10
6.4901450393700788
20
-2.9673896062992124
11
6.4863174409448821
21
-2.9607600000000001
0
LINE
8
BLACK
6
CONTINUOUS
10
6.4863174409448821
20
-2.9607600000000001
11
6.4811950787401571
21
-2.955071062992126
0
LINE
8
BLACK
6
CONTINUOUS
10
6.4811950787401571
20
-2.955071062992126
11
6.4750018897637798
21
-2.9505714173228346
0
LINE
8
BLACK
6
CONTINUOUS
10
6.4750018897637798
20
-2.9505714173228346
11
6.4680084645669291
21
-2.947457755905512
0
LINE
8
BLACK
6
CONTINUOUS
10
6.4680084645669291
20
-2.947457755905512
11
6.4605205118110236
21
-2.9458661417322833
0
LINE
8
BLACK
6
CONTINUOUS
10
6.4605205118110236
20
-2.9458661417322833
11
6.4528653149606301
21
-2.9458661417322833
0
LINE
8
BLACK
6
CONTINUOUS
10
6.4528653149606301
20
-2.9458661417322833
11
6.4453773622047246
21
-2.947457755905512
0
LINE
8
BLACK
6
CONTINUOUS
10
6.4453773622047246
20
-2.947457755905512
11
6.4383839763779527
21
-2.9505714173228346
0
LINE
8
BLACK
6
CONTINUOUS
10
6.4383839763779527
20
-2.9505714173228346
11
6.4321907480314957
21
-2.955071062992126
0
LINE
8
BLACK
6
CONTINUOUS
10
6.4321907480314957
20
-2.955071062992126
11
6.4270683858267716
21
-2.9607600000000001
0
LINE
8
BLACK
6
CONTINUOUS
10
6.4270683858267716
20
-2.9607600000000001
11
6.4232407874015749
21
-2.9673896062992124
0
LINE
8
BLACK
6
CONTINUOUS
10
6.4232407874015749
20
-2.9673896062992124
11
6.4208751968503934
21
-2.9746701574803147
0
LINE
8
BLACK
6
CONTINUOUS
10
6.4208751968503934
20
-2.9746701574803147
11
6.4200749999999998
21
-2.9822834645669292
0
LINE
8
BLACK
6
CONTINUOUS
10
6.4200749999999998
20
-2.9822834645669292
11
6.4208751968503934
21
-2.9898967716535432
0
LINE
8
BLACK
6
CONTINUOUS
10
6.6257554330708661
20
-2.9415762598425195
11
6.6330381496062989
21
-2.9443975984251969
0
LINE
8
BLACK
6
CONTINUOUS
10
6.6330381496062989
20
-2.9443975984251969
11
6.6396784251968501
21
-2.9485090944881889
0
LINE
8
BLACK
6
CONTINUOUS
10
6.6396784251968501
20
-2.9485090944881889
11
6.6454501968503932
21
-2.9537707480314959
0
LINE
8
BLACK
6
CONTINUOUS
10
6.6454501968503932
20
-2.9537707480314959
11
6.6501568110236216
21
-2.9600033464566931
0
LINE
8
BLACK
6
CONTINUOUS
10
6.6501568110236216
20
-2.9600033464566931
11
6.6536381102362201
21
-2.9669946850393698
0
LINE
8
BLACK
6
CONTINUOUS
10
6.6536381102362201
20
-2.9669946850393698
11
6.6557754330708656
21
-2.9745066535433069
0
LINE
8
BLACK
6
CONTINUOUS
10
6.6557754330708656
20
-2.9745066535433069
11
6.6564960629921259
21
-2.9822834645669292
0
LINE
8
BLACK
6
CONTINUOUS
10
6.6564960629921259
20
-2.9822834645669292
11
6.6557754330708656
21
-2.990060275590551
0
LINE
8
BLACK
6
CONTINUOUS
10
6.6557754330708656
20
-2.990060275590551
11
6.6536381102362201
21
-2.9975722440944881
0
LINE
8
BLACK
6
CONTINUOUS
10
6.6536381102362201
20
-2.9975722440944881
11
6.6501568110236216
21
-3.0045635826771653
0
LINE
8
BLACK
6
CONTINUOUS
10
6.6501568110236216
20
-3.0045635826771653
11
6.6454501968503932
21
-3.010796181102362
0
LINE
8
BLACK
6
CONTINUOUS
10
6.6454501968503932
20
-3.010796181102362
11
6.6396784251968501
21
-3.016057834645669
0
LINE
8
BLACK
6
CONTINUOUS
10
6.6396784251968501
20
-3.016057834645669
11
6.6330381496062989
21
-3.0201693307086614
0
LINE
8
BLACK
6
CONTINUOUS
10
6.6330381496062989
20
-3.0201693307086614
11
6.6257554330708661
21
-3.0229906692913384
0
LINE
8
BLACK
6
CONTINUOUS
10
6.6257554330708661
20
-3.0229906692913384
11
6.6180782677165348
21
-3.0244257480314958
0
LINE
8
BLACK
6
CONTINUOUS
10
6.6180782677165348
20
-3.0244257480314958
11
6.6102681889763781
21
-3.0244257480314958
0
LINE
8
BLACK
6
CONTINUOUS
10
6.6102681889763781
20
-3.0244257480314958
11
6.6025910236220469
21
-3.0229906692913384
0
LINE
8
BLACK
6
CONTINUOUS
10
6.6025910236220469
20
-3.0229906692913384
11
6.5953083070866141
21
-3.0201693307086614
0
LINE
8
BLACK
6
CONTINUOUS
10
6.5953083070866141
20
-3.0201693307086614
11
6.5886680314960628
21
-3.016057834645669
0
LINE
8
BLACK
6
CONTINUOUS
10
6.5886680314960628
20
-3.016057834645669
11
6.5828962598425198
21
-3.010796181102362
0
LINE
8
BLACK
6
CONTINUOUS
10
6.5828962598425198
20
-3.010796181102362
11
6.5781896456692914
21
-3.0045635826771653
0
LINE
8
BLACK
6
CONTINUOUS
10
6.5781896456692914
20
-3.0045635826771653
11
6.5747083464566929
21
-2.9975722440944881
0
LINE
8
BLACK
6
CONTINUOUS
10
6.5747083464566929
20
-2.9975722440944881
11
6.5725710236220474
21
-2.990060275590551
0
LINE
8
BLACK
6
CONTINUOUS
10
6.5725710236220474
20
-2.990060275590551
11
6.5718503937007871
21
-2.9822834645669292
0
LINE
8
BLACK
6
CONTINUOUS
10
6.5718503937007871
20
-2.9822834645669292
11
6.5725710236220474
21
-2.9745066535433069
0
LINE
8
BLACK
6
CONTINUOUS
10
6.5725710236220474
20
-2.9745066535433069
11
6.5747083464566929
21
-2.9669946850393698
0
LINE
8
BLACK
6
CONTINUOUS
10
6.5747083464566929
20
-2.9669946850393698
11
6.5781896456692914
21
-2.9600033464566931
0
LINE
8
BLACK
6
CONTINUOUS
10
6.5781896456692914
20
-2.9600033464566931
11
6.5828962598425198
21
-2.9537707480314959
0
LINE
8
BLACK
6
CONTINUOUS
10
6.5828962598425198
20
-2.9537707480314959
11
6.5886680314960628
21
-2.9485090944881889
0
LINE
8
BLACK
6
CONTINUOUS
10
6.5886680314960628
20
-2.9485090944881889
11
6.5953083070866141
21
-2.9443975984251969
0
LINE
8
BLACK
6
CONTINUOUS
10
6.5953083070866141
20
-2.9443975984251969
11
6.6025910236220469
21
-2.9415762598425195
0
LINE
8
BLACK
6
CONTINUOUS
10
6.6025910236220469
20
-2.9415762598425195
11
6.6102681889763781
21
-2.9401411811023621
0
LINE
8
BLACK
6
CONTINUOUS
10
6.6102681889763781
20
-2.9401411811023621
11
6.6180782677165348
21
-2.9401411811023621
0
LINE
8
BLACK
6
CONTINUOUS
10
6.6180782677165348
20
-2.9401411811023621
11
6.6257554330708661
21
-2.9415762598425195
0
LINE
8
BLACK
6
CONTINUOUS
10
6.5783555118110231
20
-2.9898967716535432
11
6.5807211023622045
21
-2.9971773228346454
0
LINE
8
BLACK
6
CONTINUOUS
10
6.5807211023622045
20
-2.9971773228346454
11
6.5845487007874013
21
-3.0038069291338583
0
LINE
8
BLACK
6
CONTINUOUS
10
6.5845487007874013
20
-3.0038069291338583
11
6.5896710629921262
21
-3.0094958661417324
0
LINE
8
BLACK
6
CONTINUOUS
10
6.5896710629921262
20
-3.0094958661417324
11
6.5958642519685036
21
-3.0139955118110238
0
LINE
8
BLACK
6
CONTINUOUS
10
6.5958642519685036
20
-3.0139955118110238
11
6.6028576771653542
21
-3.0171091732283464
0
LINE
8
BLACK
6
CONTINUOUS
10
6.6028576771653542
20
-3.0171091732283464
11
6.6103456299212597
21
-3.0187007874015745
0
LINE
8
BLACK
6
CONTINUOUS
10
6.6103456299212597
20
-3.0187007874015745
11
6.6180008267716532
21
-3.0187007874015745
0
LINE
8
BLACK
6
CONTINUOUS
10
6.6180008267716532
20
-3.0187007874015745
11
6.6254887795275588
21
-3.0171091732283464
0
LINE
8
BLACK
6
CONTINUOUS
10
6.6254887795275588
20
-3.0171091732283464
11
6.6324822047244094
21
-3.0139955118110238
0
LINE
8
BLACK
6
CONTINUOUS
10
6.6324822047244094
20
-3.0139955118110238
11
6.6386753937007876
21
-3.0094958661417324
0
LINE
8
BLACK
6
CONTINUOUS
10
6.6386753937007876
20
-3.0094958661417324
11
6.6437977559055117
21
-3.0038069291338583
0
LINE
8
BLACK
6
CONTINUOUS
10
6.6437977559055117
20
-3.0038069291338583
11
6.6476253543307084
21
-2.9971773228346454
0
LINE
8
BLACK
6
CONTINUOUS
10
6.6476253543307084
20
-2.9971773228346454
11
6.6499909448818899
21
-2.9898967716535432
0
LINE
8
BLACK
6
CONTINUOUS
10
6.6499909448818899
20
-2.9898967716535432
11
6.6507911417322836
21
-2.9822834645669292
0
LINE
8
BLACK
6
CONTINUOUS
10
6.6507911417322836
20
-2.9822834645669292
11
6.6499909448818899
21
-2.9746701574803147
0
LINE
8
BLACK
6
CONTINUOUS
10
6.6499909448818899
20
-2.9746701574803147
11
6.6476253543307084
21
-2.9673896062992124
0
LINE
8
BLACK
6
CONTINUOUS
10
6.6476253543307084
20
-2.9673896062992124
11
6.6437977559055117
21
-2.9607600000000001
0
LINE
8
BLACK
6
CONTINUOUS
10
6.6437977559055117
20
-2.9607600000000001
11
6.6386753937007876
21
-2.955071062992126
0
LINE
8
BLACK
6
CONTINUOUS
10
6.6386753937007876
20
-2.955071062992126
11
6.6324822047244094
21
-2.9505714173228346
0
LINE
8
BLACK
6
CONTINUOUS
10
6.6324822047244094
20
-2.9505714173228346
11
6.6254887795275588
21
-2.947457755905512
0
LINE
8
BLACK
6
CONTINUOUS
10
6.6254887795275588
20
-2.947457755905512
11
6.6180008267716532
21
-2.9458661417322833
0
LINE
8
BLACK
6
CONTINUOUS
10
6.6180008267716532
20
-2.9458661417322833
11
6.6103456299212597
21
-2.9458661417322833
0
LINE
8
BLACK
6
CONTINUOUS
10
6.6103456299212597
20
-2.9458661417322833
11
6.6028576771653542
21
-2.947457755905512
0
LINE
8
BLACK
6
CONTINUOUS
10
6.6028576771653542
20
-2.947457755905512
11
6.5958642913385823
21
-2.9505714173228346
0
LINE
8
BLACK
6
CONTINUOUS
10
6.5958642913385823
20
-2.9505714173228346
11
6.5896710629921262
21
-2.955071062992126
0
LINE
8
BLACK
6
CONTINUOUS
10
6.5896710629921262
20
-2.955071062992126
11
6.5845487007874013
21
-2.9607600000000001
0
LINE
8
BLACK
6
CONTINUOUS
10
6.5845487007874013
20
-2.9607600000000001
11
6.5807211023622045
21
-2.9673896062992124
0
LINE
8
BLACK
6
CONTINUOUS
10
6.5807211023622045
20
-2.9673896062992124
11
6.5783555118110231
21
-2.9746701574803147
0
LINE
8
BLACK
6
CONTINUOUS
10
6.5783555118110231
20
-2.9746701574803147
11
6.5775553149606294
21
-2.9822834645669292
0
LINE
8
BLACK
6
CONTINUOUS
10
6.5775553149606294
20
-2.9822834645669292
11
6.5783555118110231
21
-2.9898967716535432
0
LINE
8
BLACK
6
CONTINUOUS
10
6.4682751181102365
20
-2.7840959448818898
11
6.4755578346456693
21
-2.7869172834645668
0
LINE
8
BLACK
6
CONTINUOUS
10
6.4755578346456693
20
-2.7869172834645668
11
6.4821981102362205
21
-2.7910287795275588
0
LINE
8
BLACK
6
CONTINUOUS
10
6.4821981102362205
20
-2.7910287795275588
11
6.4879698818897635
21
-2.7962904330708662
0
LINE
8
BLACK
6
CONTINUOUS
10
6.4879698818897635
20
-2.7962904330708662
11
6.4926764960629919
21
-2.802523031496063
0
LINE
8
BLACK
6
CONTINUOUS
10
6.4926764960629919
20
-2.802523031496063
11
6.4961577952755905
21
-2.8095143700787402
0
LINE
8
BLACK
6
CONTINUOUS
10
6.4961577952755905
20
-2.8095143700787402
11
6.498295118110236
21
-2.8170263385826773
0
LINE
8
BLACK
6
CONTINUOUS
10
6.498295118110236
20
-2.8170263385826773
11
6.4990157480314963
21
-2.8248031496062991
0
LINE
8
BLACK
6
CONTINUOUS
10
6.4990157480314963
20
-2.8248031496062991
11
6.498295118110236
21
-2.8325799606299213
0
LINE
8
BLACK
6
CONTINUOUS
10
6.498295118110236
20
-2.8325799606299213
11
6.4961577952755905
21
-2.840091929133858
0
LINE
8
BLACK
6
CONTINUOUS
10
6.4961577952755905
20
-2.840091929133858
11
6.4926764960629919
21
-2.8470832677165352
0
LINE
8
BLACK
6
CONTINUOUS
10
6.4926764960629919
20
-2.8470832677165352
11
6.4879698818897635
21
-2.8533158661417324
0
LINE
8
BLACK
6
CONTINUOUS
10
6.4879698818897635
20
-2.8533158661417324
11
6.4821981102362205
21
-2.8585775196850394
0
LINE
8
BLACK
6
CONTINUOUS
10
6.4821981102362205
20
-2.8585775196850394
11
6.4755578346456693
21
-2.8626890157480314
0
LINE
8
BLACK
6
CONTINUOUS
10
6.4755578346456693
20
-2.8626890157480314
11
6.4682751181102365
21
-2.8655103543307088
0
LINE
8
BLACK
6
CONTINUOUS
10
6.4682751181102365
20
-2.8655103543307088
11
6.4605979527559052
21
-2.8669454330708661
0
LINE
8
BLACK
6
CONTINUOUS
10
6.4605979527559052
20
-2.8669454330708661
11
6.4527878740157476
21
-2.8669454330708661
0
LINE
8
BLACK
6
CONTINUOUS
10
6.4527878740157476
20
-2.8669454330708661
11
6.4451107086614172
21
-2.8655103543307088
0
LINE
8
BLACK
6
CONTINUOUS
10
6.4451107086614172
20
-2.8655103543307088
11
6.4378279921259844
21
-2.8626890157480314
0
LINE
8
BLACK
6
CONTINUOUS
10
6.4378279921259844
20
-2.8626890157480314
11
6.4311877165354332
21
-2.8585775196850394
0
LINE
8
BLACK
6
CONTINUOUS
10
6.4311877165354332
20
-2.8585775196850394
11
6.4254159448818893
21
-2.8533158661417324
0
LINE
8
BLACK
6
CONTINUOUS
10
6.4254159448818893
20
-2.8533158661417324
11
6.4207093307086609
21
-2.8470832677165352
0
LINE
8
BLACK
6
CONTINUOUS
10
6.4207093307086609
20
-2.8470832677165352
11
6.4172280314960632
21
-2.840091929133858
0
LINE
8
BLACK
6
CONTINUOUS
10
6.4172280314960632
20
-2.840091929133858
11
6.4150907086614168
21
-2.8325799606299213
0
LINE
8
BLACK
6
CONTINUOUS
10
6.4150907086614168
20
-2.8325799606299213
11
6.4143700787401574
21
-2.8248031496062991
0
LINE
8
BLACK
6
CONTINUOUS
10
6.4143700787401574
20
-2.8248031496062991
11
6.4150907086614168
21
-2.8170263385826773
0
LINE
8
BLACK
6
CONTINUOUS
10
6.4150907086614168
20
-2.8170263385826773
11
6.4172280314960632
21
-2.8095143700787402
0
LINE
8
BLACK
6
CONTINUOUS
10
6.4172280314960632
20
-2.8095143700787402
11
6.4207093307086609
21
-2.802523031496063
0
LINE
8
BLACK
6
CONTINUOUS
10
6.4207093307086609
20
-2.802523031496063
11
6.4254159448818893
21
-2.7962904330708662
0
LINE
8
BLACK
6
CONTINUOUS
10
6.4254159448818893
20
-2.7962904330708662
11
6.4311877165354332
21
-2.7910287795275588
0
LINE
8
BLACK
6
CONTINUOUS
10
6.4311877165354332
20
-2.7910287795275588
11
6.4378279921259844
21
-2.7869172834645668
0
LINE
8
BLACK
6
CONTINUOUS
10
6.4378279921259844
20
-2.7869172834645668
11
6.4451107086614172
21
-2.7840959448818898
0
LINE
8
BLACK
6
CONTINUOUS
10
6.4451107086614172
20
-2.7840959448818898
11
6.4527878740157476
21
-2.782660866141732
0
LINE
8
BLACK
6
CONTINUOUS
10
6.4527878740157476
20
-2.782660866141732
11
6.4605979527559052
21
-2.782660866141732
0
LINE
8
BLACK
6
CONTINUOUS
10
6.4605979527559052
20
-2.782660866141732
11
6.4682751181102365
21
-2.7840959448818898
0
LINE
8
BLACK
6
CONTINUOUS
10
6.4208751968503934
20
-2.8324164566929135
11
6.4232407874015749
21
-2.8396970078740158
0
LINE
8
BLACK
6
CONTINUOUS
10
6.4232407874015749
20
-2.8396970078740158
11
6.4270683858267716
21
-2.8463266141732282
0
LINE
8
BLACK
6
CONTINUOUS
10
6.4270683858267716
20
-2.8463266141732282
11
6.4321907480314957
21
-2.8520155511811023
0
LINE
8
BLACK
6
CONTINUOUS
10
6.4321907480314957
20
-2.8520155511811023
11
6.4383839370078739
21
-2.8565151968503937
0
LINE
8
BLACK
6
CONTINUOUS
10
6.4383839370078739
20
-2.8565151968503937
11
6.4453773622047246
21
-2.8596288582677163
0
LINE
8
BLACK
6
CONTINUOUS
10
6.4453773622047246
20
-2.8596288582677163
11
6.4528653149606301
21
-2.8612204724409449
0
LINE
8
BLACK
6
CONTINUOUS
10
6.4528653149606301
20
-2.8612204724409449
11
6.4605205118110236
21
-2.8612204724409449
0
LINE
8
BLACK
6
CONTINUOUS
10
6.4605205118110236
20
-2.8612204724409449
11
6.4680084645669291
21
-2.8596288582677163
0
LINE
8
BLACK
6
CONTINUOUS
10
6.4680084645669291
20
-2.8596288582677163
11
6.4750018897637798
21
-2.8565151968503937
0
LINE
8
BLACK
6
CONTINUOUS
10
6.4750018897637798
20
-2.8565151968503937
11
6.4811950787401571
21
-2.8520155511811023
0
LINE
8
BLACK
6
CONTINUOUS
10
6.4811950787401571
20
-2.8520155511811023
11
6.4863174409448821
21
-2.8463266141732282
0
LINE
8
BLACK
6
CONTINUOUS
10
6.4863174409448821
20
-2.8463266141732282
11
6.4901450393700788
21
-2.8396970078740158
0
LINE
8
BLACK
6
CONTINUOUS
10
6.4901450393700788
20
-2.8396970078740158
11
6.4925106299212594
21
-2.8324164566929135
0
LINE
8
BLACK
6
CONTINUOUS
10
6.4925106299212594
20
-2.8324164566929135
11
6.4933108267716531
21
-2.8248031496062991
0
LINE
8
BLACK
6
CONTINUOUS
10
6.4933108267716531
20
-2.8248031496062991
11
6.4925106299212594
21
-2.8171898425196851
0
LINE
8
BLACK
6
CONTINUOUS
10
6.4925106299212594
20
-2.8171898425196851
11
6.4901450393700788
21
-2.8099092913385828
0
LINE
8
BLACK
6
CONTINUOUS
10
6.4901450393700788
20
-2.8099092913385828
11
6.4863174409448821
21
-2.80327968503937
0
LINE
8
BLACK
6
CONTINUOUS
10
6.4863174409448821
20
-2.80327968503937
11
6.4811950787401571
21
-2.7975907480314959
0
LINE
8
BLACK
6
CONTINUOUS
10
6.4811950787401571
20
-2.7975907480314959
11
6.4750018897637798
21
-2.7930911023622045
0
LINE
8
BLACK
6
CONTINUOUS
10
6.4750018897637798
20
-2.7930911023622045
11
6.4680084645669291
21
-2.7899774409448819
0
LINE
8
BLACK
6
CONTINUOUS
10
6.4680084645669291
20
-2.7899774409448819
11
6.4605205118110236
21
-2.7883858267716537
0
LINE
8
BLACK
6
CONTINUOUS
10
6.4605205118110236
20
-2.7883858267716537
11
6.4528653149606301
21
-2.7883858267716537
0
LINE
8
BLACK
6
CONTINUOUS
10
6.4528653149606301
20
-2.7883858267716537
11
6.4453773622047246
21
-2.7899774409448819
0
LINE
8
BLACK
6
CONTINUOUS
10
6.4453773622047246
20
-2.7899774409448819
11
6.4383839763779527
21
-2.7930911023622045
0
LINE
8
BLACK
6
CONTINUOUS
10
6.4383839763779527
20
-2.7930911023622045
11
6.4321907480314957
21
-2.7975907480314959
0
LINE
8
BLACK
6
CONTINUOUS
10
6.4321907480314957
20
-2.7975907480314959
11
6.4270683858267716
21
-2.80327968503937
0
LINE
8
BLACK
6
CONTINUOUS
10
6.4270683858267716
20
-2.80327968503937
11
6.4232407874015749
21
-2.8099092913385828
0
LINE
8
BLACK
6
CONTINUOUS
10
6.4232407874015749
20
-2.8099092913385828
11
6.4208751968503934
21
-2.8171898425196851
0
LINE
8
BLACK
6
CONTINUOUS
10
6.4208751968503934
20
-2.8171898425196851
11
6.4200749999999998
21
-2.8248031496062991
0
LINE
8
BLACK
6
CONTINUOUS
10
6.4200749999999998
20
-2.8248031496062991
11
6.4208751968503934
21
-2.8324164566929135
0
LINE
8
BLACK
6
CONTINUOUS
10
5.0334662992125985
20
-2.2388861023622049
11
5.0422357480314961
21
-2.2418966535433071
0
LINE
8
BLACK
6
CONTINUOUS
10
5.0422357480314961
20
-2.2418966535433071
11
5.0503900787401577
21
-2.246309566929134
0
LINE
8
BLACK
6
CONTINUOUS
10
5.0503900787401577
20
-2.246309566929134
11
5.0577068110236221
21
-2.2520044094488187
0
LINE
8
BLACK
6
CONTINUOUS
10
5.0577068110236221
20
-2.2520044094488187
11
5.0639864566929136
21
-2.2588259055118112
0
LINE
8
BLACK
6
CONTINUOUS
10
5.0639864566929136
20
-2.2588259055118112
11
5.0690576377952752
21
-2.2665879527559056
0
LINE
8
BLACK
6
CONTINUOUS
10
5.0690576377952752
20
-2.2665879527559056
11
5.0727820866141728
21
-2.2750788582677166
0
LINE
8
BLACK
6
CONTINUOUS
10
5.0727820866141728
20
-2.2750788582677166
11
5.0750581889763779
21
-2.284066929133858
0
LINE
8
BLACK
6
CONTINUOUS
10
5.0750581889763779
20
-2.284066929133858
11
5.0758238582677162
21
-2.2933070866141732
0
LINE
8
BLACK
6
CONTINUOUS
10
5.0758238582677162
20
-2.2933070866141732
11
5.0750581889763779
21
-2.3025472440944883
0
LINE
8
BLACK
6
CONTINUOUS
10
5.0750581889763779
20
-2.3025472440944883
11
5.0727820866141728
21
-2.3115353149606297
0
LINE
8
BLACK
6
CONTINUOUS
10
5.0727820866141728
20
-2.3115353149606297
11
5.0690576377952752
21
-2.3200262204724411
0
LINE
8
BLACK
6
CONTINUOUS
10
5.0690576377952752
20
-2.3200262204724411
11
5.0639864566929136
21
-2.3277882677165356
0
LINE
8
BLACK
6
CONTINUOUS
10
5.0639864566929136
20
-2.3277882677165356
11
5.0577068110236221
21
-2.3346097637795276
0
LINE
8
BLACK
6
CONTINUOUS
10
5.0577068110236221
20
-2.3346097637795276
11
5.0503900787401577
21
-2.3403046062992123
0
LINE
8
BLACK
6
CONTINUOUS
10
5.0503900787401577
20
-2.3403046062992123
11
5.0422357480314961
21
-2.3447175196850392
0
LINE
8
BLACK
6
CONTINUOUS
10
5.0422357480314961
20
-2.3447175196850392
11
5.0334662992125985
21
-2.3477280708661419
0
LINE
8
BLACK
6
CONTINUOUS
10
5.0334662992125985
20
-2.3477280708661419
11
5.0243209448818895
21
-2.3492541732283465
0
LINE
8
BLACK
6
CONTINUOUS
10
5.0243209448818895
20
-2.3492541732283465
11
5.0150491338582679
21
-2.3492541732283465
0
LINE
8
BLACK
6
CONTINUOUS
10
5.0150491338582679
20
-2.3492541732283465
11
5.0059037795275589
21
-2.3477280708661419
0
LINE
8
BLACK
6
CONTINUOUS
10
5.0059037795275589
20
-2.3477280708661419
11
4.9971343307086613
21
-2.3447175196850392
0
LINE
8
BLACK
6
CONTINUOUS
10
4.9971343307086613
20
-2.3447175196850392
11
4.9889799999999997
21
-2.3403046062992123
0
LINE
8
BLACK
6
CONTINUOUS
10
4.9889799999999997
20
-2.3403046062992123
11
4.9816632677165353
21
-2.3346097637795276
0
LINE
8
BLACK
6
CONTINUOUS
10
4.9816632677165353
20
-2.3346097637795276
11
4.9753836220472438
21
-2.3277882677165356
0
LINE
8
BLACK
6
CONTINUOUS
10
4.9753836220472438
20
-2.3277882677165356
11
4.9703124409448813
21
-2.3200262204724411
0
LINE
8
BLACK
6
CONTINUOUS
10
4.9703124409448813
20
-2.3200262204724411
11
4.9665879921259846
21
-2.3115353149606297
0
LINE
8
BLACK
6
CONTINUOUS
10
4.9665879921259846
20
-2.3115353149606297
11
4.9643118897637795
21
-2.3025472440944883
0
LINE
8
BLACK
6
CONTINUOUS
10
4.9643118897637795
20
-2.3025472440944883
11
4.9635462204724412
21
-2.2933070866141732
0
LINE
8
BLACK
6
CONTINUOUS
10
4.9635462204724412
20
-2.2933070866141732
11
4.9643118897637795
21
-2.284066929133858
0
LINE
8
BLACK
6
CONTINUOUS
10
4.9643118897637795
20
-2.284066929133858
11
4.9665879921259846
21
-2.2750788582677166
0
LINE
8
BLACK
6
CONTINUOUS
10
4.9665879921259846
20
-2.2750788582677166
11
4.9703124409448813
21
-2.2665879527559056
0
LINE
8
BLACK
6
CONTINUOUS
10
4.9703124409448813
20
-2.2665879527559056
11
4.9753836220472438
21
-2.2588259055118112
0
LINE
8
BLACK
6
CONTINUOUS
10
4.9753836220472438
20
-2.2588259055118112
11
4.9816632677165353
21
-2.2520044094488187
0
LINE
8
BLACK
6
CONTINUOUS
10
4.9816632677165353
20
-2.2520044094488187
11
4.9889799999999997
21
-2.246309566929134
0
LINE
8
BLACK
6
CONTINUOUS
10
4.9889799999999997
20
-2.246309566929134
11
4.9971343307086613
21
-2.2418966535433071
0
LINE
8
BLACK
6
CONTINUOUS
10
4.9971343307086613
20
-2.2418966535433071
11
5.0059037795275589
21
-2.2388861023622049
0
LINE
8
BLACK
6
CONTINUOUS
10
5.0059037795275589
20
-2.2388861023622049
11
5.0150491338582679
21
-2.2373599999999998
0
LINE
8
BLACK
6
CONTINUOUS
10
5.0150491338582679
20
-2.2373599999999998
11
5.0243209448818895
21
-2.2373599999999998
0
LINE
8
BLACK
6
CONTINUOUS
10
5.0243209448818895
20
-2.2373599999999998
11
5.0334662992125985
21
-2.2388861023622049
0
LINE
8
BLACK
6
CONTINUOUS
10
4.970025905511811
20
-2.3020633464566931
11
4.9723008661417323
21
-2.3105535039370078
0
LINE
8
BLACK
6
CONTINUOUS
10
4.9723008661417323
20
-2.3105535039370078
11
4.9760155511811019
21
-2.3185196850393699
0
LINE
8
BLACK
6
CONTINUOUS
10
4.9760155511811019
20
-2.3185196850393699
11
4.9810570866141735
21
-2.3257197637795275
0
LINE
8
BLACK
6
CONTINUOUS
10
4.9810570866141735
20
-2.3257197637795275
11
4.9872723622047239
21
-2.3319350393700788
0
LINE
8
BLACK
6
CONTINUOUS
10
4.9872723622047239
20
-2.3319350393700788
11
4.9944724409448815
21
-2.3369765748031495
0
LINE
8
BLACK
6
CONTINUOUS
10
4.9944724409448815
20
-2.3369765748031495
11
5.0024386220472437
21
-2.3406912598425196
0
LINE
8
BLACK
6
CONTINUOUS
10
5.0024386220472437
20
-2.3406912598425196
11
5.0109287795275588
21
-2.3429662204724409
0
LINE
8
BLACK
6
CONTINUOUS
10
5.0109287795275588
20
-2.3429662204724409
11
5.0196850393700787
21
-2.3437322834645671
0
LINE
8
BLACK
6
CONTINUOUS
10
5.0196850393700787
20
-2.3437322834645671
11
5.0284412992125986
21
-2.3429662204724409
0
LINE
8
BLACK
6
CONTINUOUS
10
5.0284412992125986
20
-2.3429662204724409
11
5.0369314566929129
21
-2.3406912598425196
0
LINE
8
BLACK
6
CONTINUOUS
10
5.0369314566929129
20
-2.3406912598425196
11
5.0448976377952759
21
-2.3369765748031495
0
LINE
8
BLACK
6
CONTINUOUS
10
5.0448976377952759
20
-2.3369765748031495
11
5.0520977165354326
21
-2.3319350393700788
0
LINE
8
BLACK
6
CONTINUOUS
10
5.0520977165354326
20
-2.3319350393700788
11
5.058312992125984
21
-2.3257197637795275
0
LINE
8
BLACK
6
CONTINUOUS
10
5.058312992125984
20
-2.3257197637795275
11
5.0633545275590546
21
-2.3185196850393699
0
LINE
8
BLACK
6
CONTINUOUS
10
5.0633545275590546
20
-2.3185196850393699
11
5.0670692125984251
21
-2.3105535039370078
0
LINE
8
BLACK
6
CONTINUOUS
10
5.0670692125984251
20
-2.3105535039370078
11
5.0693441732283464
21
-2.3020633464566931
0
LINE
8
BLACK
6
CONTINUOUS
10
5.0693441732283464
20
-2.3020633464566931
11
5.0701102362204722
21
-2.2933070866141732
0
LINE
8
BLACK
6
CONTINUOUS
10
5.0701102362204722
20
-2.2933070866141732
11
5.0693441732283464
21
-2.2845508267716537
0
LINE
8
BLACK
6
CONTINUOUS
10
5.0693441732283464
20
-2.2845508267716537
11
5.0670692125984251
21
-2.2760606692913385
0
LINE
8
BLACK
6
CONTINUOUS
10
5.0670692125984251
20
-2.2760606692913385
11
5.0633545275590546
21
-2.2680944881889764
0
LINE
8
BLACK
6
CONTINUOUS
10
5.0633545275590546
20
-2.2680944881889764
11
5.058312992125984
21
-2.2608944094488188
0
LINE
8
BLACK
6
CONTINUOUS
10
5.058312992125984
20
-2.2608944094488188
11
5.0520977165354326
21
-2.2546791338582675
0
LINE
8
BLACK
6
CONTINUOUS
10
5.0520977165354326
20
-2.2546791338582675
11
5.0448976377952759
21
-2.2496375984251968
0
LINE
8
BLACK
6
CONTINUOUS
10
5.0448976377952759
20
-2.2496375984251968
11
5.0369314566929129
21
-2.2459229133858267
0
LINE
8
BLACK
6
CONTINUOUS
10
5.0369314566929129
20
-2.2459229133858267
11
5.0284412992125986
21
-2.2436479527559055
0
LINE
8
BLACK
6
CONTINUOUS
10
5.0284412992125986
20
-2.2436479527559055
11
5.0196850393700787
21
-2.2428818897637797
0
LINE
8
BLACK
6
CONTINUOUS
10
5.0196850393700787
20
-2.2428818897637797
11
5.0109287795275588
21
-2.2436479527559055
0
LINE
8
BLACK
6
CONTINUOUS
10
5.0109287795275588
20
-2.2436479527559055
11
5.0024386220472437
21
-2.2459229133858267
0
LINE
8
BLACK
6
CONTINUOUS
10
5.0024386220472437
20
-2.2459229133858267
11
4.9944724409448815
21
-2.2496375984251968
0
LINE
8
BLACK
6
CONTINUOUS
10
4.9944724409448815
20
-2.2496375984251968
11
4.9872723622047239
21
-2.2546791338582675
0
LINE
8
BLACK
6
CONTINUOUS
10
4.9872723622047239
20
-2.2546791338582675
11
4.9810570866141735
21
-2.2608944094488188
0
LINE
8
BLACK
6
CONTINUOUS
10
4.9810570866141735
20
-2.2608944094488188
11
4.9760155511811019
21
-2.2680944881889764
0
LINE
8
BLACK
6
CONTINUOUS
10
4.9760155511811019
20
-2.2680944881889764
11
4.9723008661417323
21
-2.2760606692913385
0
LINE
8
BLACK
6
CONTINUOUS
10
4.9723008661417323
20
-2.2760606692913385
11
4.970025905511811
21
-2.2845508267716537
0
LINE
8
BLACK
6
CONTINUOUS
10
4.970025905511811
20
-2.2845508267716537
11
4.9692598425196852
21
-2.2933070866141732
0
LINE
8
BLACK
6
CONTINUOUS
10
4.9692598425196852
20
-2.2933070866141732
11
4.970025905511811
21
-2.3020633464566931
0
LINE
8
BLACK
6
CONTINUOUS
10
6.7326669685039366
20
-2.0246738976377952
11
6.7327962204724408
21
-2.0246511417322832
0
LINE
8
BLACK
6
CONTINUOUS
10
6.7327962204724408
20
-2.0246511417322832
11
6.7329098031496057
21
-2.0247167322834647
0
LINE
8
BLACK
6
CONTINUOUS
10
6.7329098031496057
20
-2.0247167322834647
11
6.7332933858267712
21
-2.02478437007874
0
LINE
8
BLACK
6
CONTINUOUS
10
6.7332933858267712
20
-2.02478437007874
11
6.7338810629921255
21
-2.0252774803149607
0
LINE
8
BLACK
6
CONTINUOUS
10
6.7338810629921255
20
-2.0252774803149607
11
6.7345453937007873
21
-2.0256610629921261
0
LINE
8
BLACK
6
CONTINUOUS
10
6.7345453937007873
20
-2.0256610629921261
11
6.7346364960629916
21
-2.025911377952756
0
LINE
8
BLACK
6
CONTINUOUS
10
6.7346364960629916
20
-2.025911377952756
11
6.7348406299212593
21
-2.0260826771653542
0
LINE
8
BLACK
6
CONTINUOUS
10
6.7348406299212593
20
-2.0260826771653542
11
6.7349738582677166
21
-2.0268382283464565
0
LINE
8
BLACK
6
CONTINUOUS
10
6.7349738582677166
20
-2.0268382283464565
11
6.7352362204724407
21
-2.0275590551181102
0
LINE
8
BLACK
6
CONTINUOUS
10
6.7352362204724407
20
-2.0275590551181102
11
6.7352362204724407
21
-3.7992125984251968
0
LINE
8
BLACK
6
CONTINUOUS
10
6.7352362204724407
20
-3.7992125984251968
11
6.7345584645669287
21
-3.8130083070866139
0
LINE
8
BLACK
6
CONTINUOUS
10
6.7345584645669287
20
-3.8130083070866139
11
6.7325317716535436
21
-3.8266711811023622
0
LINE
8
BLACK
6
CONTINUOUS
10
6.7325317716535436
20
-3.8266711811023622
11
6.7291756692913385
21
-3.8400696062992123
0
LINE
8
BLACK
6
CONTINUOUS
10
6.7291756692913385
20
-3.8400696062992123
11
6.7245224015748031
21
-3.853074527559055
0
LINE
8
BLACK
6
CONTINUOUS
10
6.7245224015748031
20
-3.853074527559055
11
6.718616889763779
21
-3.8655607480314962
0
LINE
8
BLACK
6
CONTINUOUS
10
6.718616889763779
20
-3.8655607480314962
11
6.7115159055118108
21
-3.8774080314960631
0
LINE
8
BLACK
6
CONTINUOUS
10
6.7115159055118108
20
-3.8774080314960631
11
6.7032878740157482
21
-3.8885022047244093
0
LINE
8
BLACK
6
CONTINUOUS
10
6.7032878740157482
20
-3.8885022047244093
11
6.6940120866141735
21
-3.898736496062992
0
LINE
8
BLACK
6
CONTINUOUS
10
6.6940120866141735
20
-3.898736496062992
11
6.6837777952755903
21
-3.9080122834645667
0
LINE
8
BLACK
6
CONTINUOUS
10
6.6837777952755903
20
-3.9080122834645667
11
6.6726836220472441
21
-3.9162403149606297
0
LINE
8
BLACK
6
CONTINUOUS
10
6.6726836220472441
20
-3.9162403149606297
11
6.6608363385826772
21
-3.9233412992125984
0
LINE
8
BLACK
6
CONTINUOUS
10
6.6608363385826772
20
-3.9233412992125984
11
6.648350118110236
21
-3.9292468110236221
0
LINE
8
BLACK
6
CONTINUOUS
10
6.648350118110236
20
-3.9292468110236221
11
6.6353451968503938
21
-3.9339000787401575
0
LINE
8
BLACK
6
CONTINUOUS
10
6.6353451968503938
20
-3.9339000787401575
11
6.6219467716535432
21
-3.9372561811023621
0
LINE
8
BLACK
6
CONTINUOUS
10
6.6219467716535432
20
-3.9372561811023621
11
6.6082838976377953
21
-3.9392828740157477
0
LINE
8
BLACK
6
CONTINUOUS
10
6.6082838976377953
20
-3.9392828740157477
11
6.5944881889763778
21
-3.9399606299212597
0
LINE
8
BLACK
6
CONTINUOUS
10
6.5944881889763778
20
-3.9399606299212597
11
4.9015748031496065
21
-3.9399606299212597
0
LINE
8
BLACK
6
CONTINUOUS
10
4.9015748031496065
20
-3.9399606299212597
11
4.8942255118110234
21
-3.9393176377952757
0
LINE
8
BLACK
6
CONTINUOUS
10
4.8942255118110234
20
-3.9393176377952757
11
4.8870995275590552
21
-3.9374082677165352
0
LINE
8
BLACK
6
CONTINUOUS
10
4.8870995275590552
20
-3.9374082677165352
11
4.8804133858267713
21
-3.9342904330708661
0
LINE
8
BLACK
6
CONTINUOUS
10
4.8804133858267713
20
-3.9342904330708661
11
4.8743701968503936
21
-3.9300589763779525
0
LINE
8
BLACK
6
CONTINUOUS
10
4.8743701968503936
20
-3.9300589763779525
11
4.8691536220472438
21
-3.9248424015748031
0
LINE
8
BLACK
6
CONTINUOUS
10
4.8691536220472438
20
-3.9248424015748031
11
4.8649221653543302
21
-3.918799212598425
0
LINE
8
BLACK
6
CONTINUOUS
10
4.8649221653543302
20
-3.918799212598425
11
4.8618043307086616
21
-3.9121130708661416
0
LINE
8
BLACK
6
CONTINUOUS
10
4.8618043307086616
20
-3.9121130708661416
11
4.8598949606299211
21
-3.9049870866141729
0
LINE
8
BLACK
6
CONTINUOUS
10
4.8598949606299211
20
-3.9049870866141729
11
4.859251968503937
21
-3.8976377952755903
0
LINE
8
BLACK
6
CONTINUOUS
10
4.859251968503937
20
-3.8976377952755903
11
4.859251968503937
21
-2.204724409448819
0
LINE
8
BLACK
6
CONTINUOUS
10
4.859251968503937
20
-2.204724409448819
11
4.8598949606299211
21
-2.1973751181102363
0
LINE
8
BLACK
6
CONTINUOUS
10
4.8598949606299211
20
-2.1973751181102363
11
4.8618043307086616
21
-2.1902491338582677
0
LINE
8
BLACK
6
CONTINUOUS
10
4.8618043307086616
20
-2.1902491338582677
11
4.8649221653543302
21
-2.1835629921259843
0
LINE
8
BLACK
6
CONTINUOUS
10
4.8649221653543302
20
-2.1835629921259843
11
4.8691536220472438
21
-2.1775198031496061
0
LINE
8
BLACK
6
CONTINUOUS
10
4.8691536220472438
20
-2.1775198031496061
11
4.8743701968503936
21
-2.1723032283464567
0
LINE
8
BLACK
6
CONTINUOUS
10
4.8743701968503936
20
-2.1723032283464567
11
4.8804133858267713
21
-2.1680717716535431
0
LINE
8
BLACK
6
CONTINUOUS
10
4.8804133858267713
20
-2.1680717716535431
11
4.8870995275590552
21
-2.1649539370078741
0
LINE
8
BLACK
6
CONTINUOUS
10
4.8870995275590552
20
-2.1649539370078741
11
4.8942255118110234
21
-2.1630445669291336
0
LINE
8
BLACK
6
CONTINUOUS
10
4.8942255118110234
20
-2.1630445669291336
11
4.9015748031496065
21
-2.1624015748031495
0
LINE
8
BLACK
6
CONTINUOUS
10
4.9015748031496065
20
-2.1624015748031495
11
6.1781496062992121
21
-2.1624015748031495
0
LINE
8
BLACK
6
CONTINUOUS
10
6.1781496062992121
20
-2.1624015748031495
11
6.1781496062992121
21
-2.0275590551181102
0
LINE
8
BLACK
6
CONTINUOUS
10
6.1781496062992121
20
-2.0275590551181102
11
6.1782172047244091
21
-2.0271755118110235
0
LINE
8
BLACK
6
CONTINUOUS
10
6.1782172047244091
20
-2.0271755118110235
11
6.1781944488188971
21
-2.0270462992125982
0
LINE
8
BLACK
6
CONTINUOUS
10
6.1781944488188971
20
-2.0270462992125982
11
6.1782600393700786
21
-2.0269326771653544
0
LINE
8
BLACK
6
CONTINUOUS
10
6.1782600393700786
20
-2.0269326771653544
11
6.1783276771653544
21
-2.0265491338582677
0
LINE
8
BLACK
6
CONTINUOUS
10
6.1783276771653544
20
-2.0265491338582677
11
6.178820787401575
21
-2.0259614173228346
0
LINE
8
BLACK
6
CONTINUOUS
10
6.178820787401575
20
-2.0259614173228346
11
6.1792043700787405
21
-2.025297125984252
0
LINE
8
BLACK
6
CONTINUOUS
10
6.1792043700787405
20
-2.025297125984252
11
6.1794546850393699
21
-2.0252059842519685
0
LINE
8
BLACK
6
CONTINUOUS
10
6.1794546850393699
20
-2.0252059842519685
11
6.1796259842519685
21
-2.0250018897637796
0
LINE
8
BLACK
6
CONTINUOUS
10
6.1796259842519685
20
-2.0250018897637796
11
6.1803815354330709
21
-2.024868622047244
0
LINE
8
BLACK
6
CONTINUOUS
10
6.1803815354330709
20
-2.024868622047244
11
6.1811023622047241
21
-2.0246062992125982
0
LINE
8
BLACK
6
CONTINUOUS
10
6.1811023622047241
20
-2.0246062992125982
11
6.7322834645669287
21
-2.0246062992125982
0
LINE
8
BLACK
6
CONTINUOUS
10
6.7322834645669287
20
-2.0246062992125982
11
6.7326669685039366
21
-2.0246738976377952
0
LINE
8
BLACK
6
CONTINUOUS
10
6.1840551181102361
20
-2.0305118110236222
11
6.1840551181102361
21
-2.1653543307086616
0
LINE
8
BLACK
6
CONTINUOUS
10
6.1840551181102361
20
-2.1653543307086616
11
6.1839874803149604
21
-2.165737834645669
0
LINE
8
BLACK
6
CONTINUOUS
10
6.1839874803149604
20
-2.165737834645669
11
6.1840102755905511
21
-2.1658670866141732
0
LINE
8
BLACK
6
CONTINUOUS
10
6.1840102755905511
20
-2.1658670866141732
11
6.1839446456692908
21
-2.1659806692913386
0
LINE
8
BLACK
6
CONTINUOUS
10
6.1839446456692908
20
-2.1659806692913386
11
6.1838770472440947
21
-2.166364251968504
0
LINE
8
BLACK
6
CONTINUOUS
10
6.1838770472440947
20
-2.166364251968504
11
6.1833838976377953
21
-2.1669519291338584
0
LINE
8
BLACK
6
CONTINUOUS
10
6.1833838976377953
20
-2.1669519291338584
11
6.1830003543307086
21
-2.1676162598425197
0
LINE
8
BLACK
6
CONTINUOUS
10
6.1830003543307086
20
-2.1676162598425197
11
6.1827499999999995
21
-2.1677073622047245
0
LINE
8
BLACK
6
CONTINUOUS
10
6.1827499999999995
20
-2.1677073622047245
11
6.1825787401574805
21
-2.1679114960629922
0
LINE
8
BLACK
6
CONTINUOUS
10
6.1825787401574805
20
-2.1679114960629922
11
6.1818231496062994
21
-2.168044724409449
0
LINE
8
BLACK
6
CONTINUOUS
10
6.1818231496062994
20
-2.168044724409449
11
6.1811023622047241
21
-2.1683070866141732
0
LINE
8
BLACK
6
CONTINUOUS
10
6.1811023622047241
20
-2.1683070866141732
11
4.9015748031496065
21
-2.1683070866141732
0
LINE
8
BLACK
6
CONTINUOUS
10
4.9015748031496065
20
-2.1683070866141732
11
4.8983887007874012
21
-2.1683070866141732
0
LINE
8
BLACK
6
CONTINUOUS
10
4.8983887007874012
20
-2.1683070866141732
11
4.8921133070866141
21
-2.169413622047244
0
LINE
8
BLACK
6
CONTINUOUS
10
4.8921133070866141
20
-2.169413622047244
11
4.8861253937007874
21
-2.1715930314960628
0
LINE
8
BLACK
6
CONTINUOUS
10
4.8861253937007874
20
-2.1715930314960628
11
4.8806068897637793
21
-2.1747791338582676
0
LINE
8
BLACK
6
CONTINUOUS
10
4.8806068897637793
20
-2.1747791338582676
11
4.8757255118110239
21
-2.1788751181102364
0
LINE
8
BLACK
6
CONTINUOUS
10
4.8757255118110239
20
-2.1788751181102364
11
4.8716295275590547
21
-2.1837564960629923
0
LINE
8
BLACK
6
CONTINUOUS
10
4.8716295275590547
20
-2.1837564960629923
11
4.8684434251968502
21
-2.1892749999999999
0
LINE
8
BLACK
6
CONTINUOUS
10
4.8684434251968502
20
-2.1892749999999999
11
4.8662640157480315
21
-2.1952629133858266
0
LINE
8
BLACK
6
CONTINUOUS
10
4.8662640157480315
20
-2.1952629133858266
11
4.8651574803149602
21
-2.2015383070866141
0
LINE
8
BLACK
6
CONTINUOUS
10
4.8651574803149602
20
-2.2015383070866141
11
4.8651574803149602
21
-2.204724409448819
0
LINE
8
BLACK
6
CONTINUOUS
10
4.8651574803149602
20
-2.204724409448819
11
4.8651574803149602
21
-3.8976377952755903
0
LINE
8
BLACK
6
CONTINUOUS
10
4.8651574803149602
20
-3.8976377952755903
11
4.8651574803149602
21
-3.9008238976377951
0
LINE
8
BLACK
6
CONTINUOUS
10
4.8651574803149602
20
-3.9008238976377951
11
4.8662640157480315
21
-3.9070992913385827
0
LINE
8
BLACK
6
CONTINUOUS
10
4.8662640157480315
20
-3.9070992913385827
11
4.8684434251968502
21
-3.9130872047244094
0
LINE
8
BLACK
6
CONTINUOUS
10
4.8684434251968502
20
-3.9130872047244094
11
4.8716295275590547
21
-3.9186057086614174
0
LINE
8
BLACK
6
CONTINUOUS
10
4.8716295275590547
20
-3.9186057086614174
11
4.8757255118110239
21
-3.9234870866141733
0
LINE
8
BLACK
6
CONTINUOUS
10
4.8757255118110239
20
-3.9234870866141733
11
4.8806068897637793
21
-3.9275830708661417
0
LINE
8
BLACK
6
CONTINUOUS
10
4.8806068897637793
20
-3.9275830708661417
11
4.8861253937007874
21
-3.9307691732283465
0
LINE
8
BLACK
6
CONTINUOUS
10
4.8861253937007874
20
-3.9307691732283465
11
4.8921133070866141
21
-3.9329485826771653
0
LINE
8
BLACK
6
CONTINUOUS
10
4.8921133070866141
20
-3.9329485826771653
11
4.8983887007874012
21
-3.9340551181102361
0
LINE
8
BLACK
6
CONTINUOUS
10
4.8983887007874012
20
-3.9340551181102361
11
4.9015748031496065
21
-3.9340551181102361
0
LINE
8
BLACK
6
CONTINUOUS
10
4.9015748031496065
20
-3.9340551181102361
11
6.5944881889763778
21
-3.9340551181102361
0
LINE
8
BLACK
6
CONTINUOUS
10
6.5944881889763778
20
-3.9340551181102361
11
6.6011125590551183
21
-3.9340551181102361
0
LINE
8
BLACK
6
CONTINUOUS
10
6.6011125590551183
20
-3.9340551181102361
11
6.6142975590551183
21
-3.9327565354330707
0
LINE
8
BLACK
6
CONTINUOUS
10
6.6142975590551183
20
-3.9327565354330707
11
6.6272917716535433
21
-3.9301718110236221
0
LINE
8
BLACK
6
CONTINUOUS
10
6.6272917716535433
20
-3.9301718110236221
11
6.6399700393700787
21
-3.9263259055118112
0
LINE
8
BLACK
6
CONTINUOUS
10
6.6399700393700787
20
-3.9263259055118112
11
6.6522103149606302
21
-3.9212558267716533
0
LINE
8
BLACK
6
CONTINUOUS
10
6.6522103149606302
20
-3.9212558267716533
11
6.6638947244094489
21
-3.9150103937007872
0
LINE
8
BLACK
6
CONTINUOUS
10
6.6638947244094489
20
-3.9150103937007872
11
6.6749106692913385
21
-3.9076497637795273
0
LINE
8
BLACK
6
CONTINUOUS
10
6.6749106692913385
20
-3.9076497637795273
11
6.6851521259842519
21
-3.8992448031496063
0
LINE
8
BLACK
6
CONTINUOUS
10
6.6851521259842519
20
-3.8992448031496063
11
6.6945203937007873
21
-3.8898765354330709
0
LINE
8
BLACK
6
CONTINUOUS
10
6.6945203937007873
20
-3.8898765354330709
11
6.7029253543307084
21
-3.8796350787401575
0
LINE
8
BLACK
6
CONTINUOUS
10
6.7029253543307084
20
-3.8796350787401575
11
6.7102859842519686
21
-3.8686191338582678
0
LINE
8
BLACK
6
CONTINUOUS
10
6.7102859842519686
20
-3.8686191338582678
11
6.7165314173228348
21
-3.8569347244094487
0
LINE
8
BLACK
6
CONTINUOUS
10
6.7165314173228348
20
-3.8569347244094487
11
6.7216014960629922
21
-3.8446944488188977
0
LINE
8
BLACK
6
CONTINUOUS
10
6.7216014960629922
20
-3.8446944488188977
11
6.7254474015748027
21
-3.8320161811023623
0
LINE
8
BLACK
6
CONTINUOUS
10
6.7254474015748027
20
-3.8320161811023623
11
6.7280321259842522
21
-3.8190219685039368
0
LINE
8
BLACK
6
CONTINUOUS
10
6.7280321259842522
20
-3.8190219685039368
11
6.7293307086614176
21
-3.8058369685039368
0
LINE
8
BLACK
6
CONTINUOUS
10
6.7293307086614176
20
-3.8058369685039368
11
6.7293307086614176
21
-3.7992125984251968
0
LINE
8
BLACK
6
CONTINUOUS
10
6.7293307086614176
20
-3.7992125984251968
11
6.7293307086614176
21
-2.0305118110236222
0
LINE
8
BLACK
6
CONTINUOUS
10
6.7293307086614176
20
-2.0305118110236222
11
6.1840551181102361
21
-2.0305118110236222
  0
ENDSEC
  0
EOF
