<?xml version="1.0" standalone="no"?>
 <!DOCTYPE svg PUBLIC "-//W3C//DTD SVG 1.1//EN" 
 "http://www.w3.org/Graphics/SVG/1.1/DTD/svg11.dtd"> 
<svg
  xmlns:svg="http://www.w3.org/2000/svg"
  xmlns="http://www.w3.org/2000/svg"
  xmlns:xlink="http://www.w3.org/1999/xlink"
  version="1.1"
  width="29.700220cm" height="21.000720cm" viewBox="0 0 116930 82680">
<title>SVG Picture created as tamaguino-Eco1_User.svg date 2023/01/16 18:37:52 </title>
  <desc>Picture generated by PCBNEW </desc>
<g style="fill:#000000; fill-opacity:1;stroke:#000000; stroke-opacity:1;
stroke-linecap:round; stroke-linejoin:round;"
 transform="translate(0 0) scale(1 1)">
</g>
<g style="fill:#000000; fill-opacity:0.0; 
stroke:#000000; stroke-width:-0.000393701; stroke-opacity:1; 
stroke-linecap:round; stroke-linejoin:round;">
</g>
<g style="fill:#000000; fill-opacity:0.0; 
stroke:#000000; stroke-width:59.0551; stroke-opacity:1; 
stroke-linecap:round; stroke-linejoin:round;">
<path d="M65944.9 39370.1 A1377.95 1377.95 0.0 0 0 67322.8 37992.1" />
<path d="M48622 38976.4 A393.701 393.701 0.0 0 0 49015.7 39370.1" />
<path d="M49015.7 21653.5 A393.701 393.701 0.0 0 0 48622 22047.2" />
<path d="M61811 21653
L49015 21653
" />
<path d="M61811 20275
L61811 21653
" />
<path d="M67322 20275
L61811 20275
" />
<path d="M67322 37992
L67322 20275
" />
<path d="M49015 39370
L65944 39370
" />
<path d="M48622 22047
L48622 38976
" />
<circle cx="65443.3" cy="37598.4" r="531.861" /> 
<circle cx="50196.9" cy="22933.1" r="531.861" /> 
<circle cx="66141.7" cy="29822.8" r="393.701" /> 
<circle cx="64566.9" cy="31397.6" r="393.701" /> 
<circle cx="64566.9" cy="28248" r="393.701" /> 
<circle cx="62992.1" cy="29822.8" r="393.701" /> 
<circle cx="64566.9" cy="29822.8" r="393.701" /> 
<circle cx="65354.3" cy="34645.7" r="1087.14" /> 
<circle cx="59842.5" cy="36811" r="885.827" /> 
<circle cx="55315" cy="36811" r="885.827" /> 
<circle cx="50787.4" cy="36811" r="885.827" /> 
<g >
</g>
<g >
</g>
<g >
</g>
<g >
</g>
<g >
</g>
<g >
</g>
<g >
</g>
<g >
</g>
<g >
</g>
<g >
</g>
<g >
</g>
<g >
</g>
</g> 
</svg>
