<?xml version="1.0" standalone="no"?>
 <!DOCTYPE svg PUBLIC "-//W3C//DTD SVG 1.1//EN" 
 "http://www.w3.org/Graphics/SVG/1.1/DTD/svg11.dtd"> 
<svg
  xmlns:svg="http://www.w3.org/2000/svg"
  xmlns="http://www.w3.org/2000/svg"
  xmlns:xlink="http://www.w3.org/1999/xlink"
  version="1.1"
  width="29.700220cm" height="21.000720cm" viewBox="0 0 116930 82680">
<title>SVG Picture created as tamaguino-Edge_Cuts.svg date 2023/01/16 18:37:52 </title>
  <desc>Picture generated by PCBNEW </desc>
<g style="fill:#000000; fill-opacity:1;stroke:#000000; stroke-opacity:1;
stroke-linecap:round; stroke-linejoin:round;"
 transform="translate(0 0) scale(1 1)">
</g>
<g style="fill:#000000; fill-opacity:0.0; 
stroke:#000000; stroke-width:-0.000393701; stroke-opacity:1; 
stroke-linecap:round; stroke-linejoin:round;">
</g>
<g style="fill:#000000; fill-opacity:0.0; 
stroke:#000000; stroke-width:19.685; stroke-opacity:1; 
stroke-linecap:round; stroke-linejoin:round;">
<circle cx="65445.8" cy="37598.4" r="508.733" /> 
<circle cx="50196.9" cy="22933.1" r="492.126" /> 
<path d="M41338.6 30511.8 A984.252 984.252 0.0 0 0 41338.6 28543.3" />
<path d="M41338 37992
L41338 30511
" />
<path d="M42716.5 21653.5 A1377.95 1377.95 0.0 0 0 41338.6 23031.5" />
<path d="M67322 21653
L42716 21653
" />
<path d="M41338.6 37992.1 A1377.95 1377.95 0.0 0 0 42716.5 39370.1" />
<path d="M65944.9 39370.1 A1377.95 1377.95 0.0 0 0 67322.8 37992.1" />
<path d="M42716 39370
L65944 39370
" />
<path d="M67322 37992
L67322 21653
" />
<path d="M41338 23031
L41338 28543
" />
<g >
</g>
<g >
</g>
<g >
</g>
<g >
</g>
<g >
</g>
<g >
</g>
<g >
</g>
<g >
</g>
<g >
</g>
<g >
</g>
<g >
</g>
<g >
</g>
</g> 
</svg>
