  0
SECTION
  2
HEADER
  9
$ANGBASE
  50
0.0
  9
$ANGDIR
  70
1
  9
$MEASUREMENT
  70
0
  0
ENDSEC
  0
SECTION
  2
TABLES
  0
TABLE
  2
LTYPE
  70
4
  0
LTYPE
  5
40F
  2
CONTINUOUS
  70
0
  3
Solid line
  72
65
  73
0
  40
0.0
  0
LTYPE
  5
410
  2
DASHDOT
 70
0
  3
Dash Dot ____ _ ____ _
 72
65
 73
4
 40
2.0
 49
1.25
 49
-0.25
 49
0.25
 49
-0.25
  0
LTYPE
  5
411
  2
DASHED
 70
0
  3
Dashed __ __ __ __ __
 72
65
 73
2
 40
0.75
 49
0.5
 49
-0.25
  0
LTYPE
  5
43B
  2
DOTTED
 70
0
  3
Dotted .  .  .  .
 72
65
 73
2
 40
0.2
 49
0.0
 49
-0.2
  0
ENDTAB
  0
TABLE
  2
STYLE
  70
4
  0
STYLE
  2
KICAD
  70
0
  40
0
  41
1
  42
1
  50
0
  71
0
  3
isocp.shx
  0
STYLE
  2
KICADB
  70
0
  40
0
  41
1
  42
1
  50
0
  71
0
  3
isocp.shx
  0
STYLE
  2
KICADI
  70
0
  40
0
  41
1
  42
1
  50
15
  71
0
  3
isocp.shx
  0
STYLE
  2
KICADBI
  70
0
  40
0
  41
1
  42
1
  50
15
  71
0
  3
isocp.shx
  0
ENDTAB
  0
TABLE
  2
LAYER
  70
1
  0
LAYER
  2
BLACK
  70
0
  62
7
  6
CONTINUOUS
  0
ENDTAB
  0
ENDSEC
  0
SECTION
  2
ENTITIES
0
LINE
8
BLACK
6
CONTINUOUS
10
6.5535811023622044
20
-3.7087728346456692
11
6.5623124409448819
21
-3.7111124015748032
0
LINE
8
BLACK
6
CONTINUOUS
10
6.5623124409448819
20
-3.7111124015748032
11
6.5705049212598423
21
-3.7149325984251966
0
LINE
8
BLACK
6
CONTINUOUS
10
6.5705049212598423
20
-3.7149325984251966
11
6.5779095275590551
21
-3.7201173622047241
0
LINE
8
BLACK
6
CONTINUOUS
10
6.5779095275590551
20
-3.7201173622047241
11
6.5843012992125987
21
-3.7265091338582677
0
LINE
8
BLACK
6
CONTINUOUS
10
6.5843012992125987
20
-3.7265091338582677
11
6.5894860629921261
21
-3.7339137795275588
0
LINE
8
BLACK
6
CONTINUOUS
10
6.5894860629921261
20
-3.7339137795275588
11
6.5933062598425192
21
-3.7421062204724409
0
LINE
8
BLACK
6
CONTINUOUS
10
6.5933062598425192
20
-3.7421062204724409
11
6.5956458267716531
21
-3.750837559055118
0
LINE
8
BLACK
6
CONTINUOUS
10
6.5956458267716531
20
-3.750837559055118
11
6.5964336614173229
21
-3.7598425196850394
0
LINE
8
BLACK
6
CONTINUOUS
10
6.5964336614173229
20
-3.7598425196850394
11
6.5956458267716531
21
-3.7688474803149608
0
LINE
8
BLACK
6
CONTINUOUS
10
6.5956458267716531
20
-3.7688474803149608
11
6.5933062598425192
21
-3.7775788188976378
0
LINE
8
BLACK
6
CONTINUOUS
10
6.5933062598425192
20
-3.7775788188976378
11
6.5894860629921261
21
-3.7857712992125983
0
LINE
8
BLACK
6
CONTINUOUS
10
6.5894860629921261
20
-3.7857712992125983
11
6.5843012992125987
21
-3.7931759055118111
0
LINE
8
BLACK
6
CONTINUOUS
10
6.5843012992125987
20
-3.7931759055118111
11
6.5779095275590551
21
-3.7995676771653542
0
LINE
8
BLACK
6
CONTINUOUS
10
6.5779095275590551
20
-3.7995676771653542
11
6.5705049212598423
21
-3.8047524409448816
0
LINE
8
BLACK
6
CONTINUOUS
10
6.5705049212598423
20
-3.8047524409448816
11
6.5623124409448819
21
-3.8085726377952756
0
LINE
8
BLACK
6
CONTINUOUS
10
6.5623124409448819
20
-3.8085726377952756
11
6.5535811023622044
21
-3.8109122047244095
0
LINE
8
BLACK
6
CONTINUOUS
10
6.5535811023622044
20
-3.8109122047244095
11
6.544576141732283
21
-3.8117000393700788
0
LINE
8
BLACK
6
CONTINUOUS
10
6.544576141732283
20
-3.8117000393700788
11
6.5355711811023625
21
-3.8109122047244095
0
LINE
8
BLACK
6
CONTINUOUS
10
6.5355711811023625
20
-3.8109122047244095
11
6.526839842519685
21
-3.8085726377952756
0
LINE
8
BLACK
6
CONTINUOUS
10
6.526839842519685
20
-3.8085726377952756
11
6.5186473622047245
21
-3.8047524409448816
0
LINE
8
BLACK
6
CONTINUOUS
10
6.5186473622047245
20
-3.8047524409448816
11
6.5112427559055117
21
-3.7995676771653542
0
LINE
8
BLACK
6
CONTINUOUS
10
6.5112427559055117
20
-3.7995676771653542
11
6.5048509842519682
21
-3.7931759055118111
0
LINE
8
BLACK
6
CONTINUOUS
10
6.5048509842519682
20
-3.7931759055118111
11
6.4996662204724407
21
-3.7857712992125983
0
LINE
8
BLACK
6
CONTINUOUS
10
6.4996662204724407
20
-3.7857712992125983
11
6.4958460236220468
21
-3.7775788188976378
0
LINE
8
BLACK
6
CONTINUOUS
10
6.4958460236220468
20
-3.7775788188976378
11
6.4935064566929128
21
-3.7688474803149608
0
LINE
8
BLACK
6
CONTINUOUS
10
6.4935064566929128
20
-3.7688474803149608
11
6.4927186220472439
21
-3.7598425196850394
0
LINE
8
BLACK
6
CONTINUOUS
10
6.4927186220472439
20
-3.7598425196850394
11
6.4935064566929128
21
-3.750837559055118
0
LINE
8
BLACK
6
CONTINUOUS
10
6.4935064566929128
20
-3.750837559055118
11
6.4958460236220468
21
-3.7421062204724409
0
LINE
8
BLACK
6
CONTINUOUS
10
6.4958460236220468
20
-3.7421062204724409
11
6.4996662204724407
21
-3.7339137795275588
0
LINE
8
BLACK
6
CONTINUOUS
10
6.4996662204724407
20
-3.7339137795275588
11
6.5048509842519682
21
-3.7265091338582677
0
LINE
8
BLACK
6
CONTINUOUS
10
6.5048509842519682
20
-3.7265091338582677
11
6.5112427559055117
21
-3.7201173622047241
0
LINE
8
BLACK
6
CONTINUOUS
10
6.5112427559055117
20
-3.7201173622047241
11
6.5186474015748033
21
-3.7149325984251966
0
LINE
8
BLACK
6
CONTINUOUS
10
6.5186474015748033
20
-3.7149325984251966
11
6.526839842519685
21
-3.7111124015748032
0
LINE
8
BLACK
6
CONTINUOUS
10
6.526839842519685
20
-3.7111124015748032
11
6.5355711811023625
21
-3.7087728346456692
0
LINE
8
BLACK
6
CONTINUOUS
10
6.5355711811023625
20
-3.7087728346456692
11
6.544576141732283
21
-3.7079849999999999
0
LINE
8
BLACK
6
CONTINUOUS
10
6.544576141732283
20
-3.7079849999999999
11
6.5535811023622044
21
-3.7087728346456692
0
LINE
8
BLACK
6
CONTINUOUS
10
6.4952574015748032
20
-3.7685387401574801
11
6.4975167322834642
21
-3.7769707480314958
0
LINE
8
BLACK
6
CONTINUOUS
10
6.4975167322834642
20
-3.7769707480314958
11
6.5012059448818897
21
-3.7848823228346458
0
LINE
8
BLACK
6
CONTINUOUS
10
6.5012059448818897
20
-3.7848823228346458
11
6.5062129527559049
21
-3.7920330314960631
0
LINE
8
BLACK
6
CONTINUOUS
10
6.5062129527559049
20
-3.7920330314960631
11
6.5123856299212601
21
-3.7982057086614174
0
LINE
8
BLACK
6
CONTINUOUS
10
6.5123856299212601
20
-3.7982057086614174
11
6.519536338582677
21
-3.803212716535433
0
LINE
8
BLACK
6
CONTINUOUS
10
6.519536338582677
20
-3.803212716535433
11
6.527447913385827
21
-3.8069019291338582
0
LINE
8
BLACK
6
CONTINUOUS
10
6.527447913385827
20
-3.8069019291338582
11
6.5358799212598422
21
-3.8091612598425195
0
LINE
8
BLACK
6
CONTINUOUS
10
6.5358799212598422
20
-3.8091612598425195
11
6.544576141732283
21
-3.809922086614173
0
LINE
8
BLACK
6
CONTINUOUS
10
6.544576141732283
20
-3.809922086614173
11
6.5532723622047246
21
-3.8091612598425195
0
LINE
8
BLACK
6
CONTINUOUS
10
6.5532723622047246
20
-3.8091612598425195
11
6.5617043700787399
21
-3.8069019291338582
0
LINE
8
BLACK
6
CONTINUOUS
10
6.5617043700787399
20
-3.8069019291338582
11
6.5696159448818898
21
-3.803212716535433
0
LINE
8
BLACK
6
CONTINUOUS
10
6.5696159448818898
20
-3.803212716535433
11
6.5767666535433067
21
-3.7982057086614174
0
LINE
8
BLACK
6
CONTINUOUS
10
6.5767666535433067
20
-3.7982057086614174
11
6.582939330708661
21
-3.7920330314960631
0
LINE
8
BLACK
6
CONTINUOUS
10
6.582939330708661
20
-3.7920330314960631
11
6.5879463385826771
21
-3.7848823228346458
0
LINE
8
BLACK
6
CONTINUOUS
10
6.5879463385826771
20
-3.7848823228346458
11
6.5916355511811018
21
-3.7769707480314958
0
LINE
8
BLACK
6
CONTINUOUS
10
6.5916355511811018
20
-3.7769707480314958
11
6.5938948818897636
21
-3.7685387401574801
0
LINE
8
BLACK
6
CONTINUOUS
10
6.5938948818897636
20
-3.7685387401574801
11
6.594655708661417
21
-3.7598425196850394
0
LINE
8
BLACK
6
CONTINUOUS
10
6.594655708661417
20
-3.7598425196850394
11
6.5938948818897636
21
-3.7511462992125981
0
LINE
8
BLACK
6
CONTINUOUS
10
6.5938948818897636
20
-3.7511462992125981
11
6.5916355511811018
21
-3.7427142913385825
0
LINE
8
BLACK
6
CONTINUOUS
10
6.5916355511811018
20
-3.7427142913385825
11
6.5879463385826771
21
-3.7348027559055117
0
LINE
8
BLACK
6
CONTINUOUS
10
6.5879463385826771
20
-3.7348027559055117
11
6.582939330708661
21
-3.7276520078740156
0
LINE
8
BLACK
6
CONTINUOUS
10
6.582939330708661
20
-3.7276520078740156
11
6.5767666535433067
21
-3.7214793307086613
0
LINE
8
BLACK
6
CONTINUOUS
10
6.5767666535433067
20
-3.7214793307086613
11
6.5696159448818898
21
-3.7164723228346457
0
LINE
8
BLACK
6
CONTINUOUS
10
6.5696159448818898
20
-3.7164723228346457
11
6.5617043700787399
21
-3.7127831102362205
0
LINE
8
BLACK
6
CONTINUOUS
10
6.5617043700787399
20
-3.7127831102362205
11
6.5532723622047246
21
-3.7105237795275592
0
LINE
8
BLACK
6
CONTINUOUS
10
6.5532723622047246
20
-3.7105237795275592
11
6.544576141732283
21
-3.7097629527559053
0
LINE
8
BLACK
6
CONTINUOUS
10
6.544576141732283
20
-3.7097629527559053
11
6.5358799212598422
21
-3.7105237795275592
0
LINE
8
BLACK
6
CONTINUOUS
10
6.5358799212598422
20
-3.7105237795275592
11
6.527447913385827
21
-3.7127831102362205
0
LINE
8
BLACK
6
CONTINUOUS
10
6.527447913385827
20
-3.7127831102362205
11
6.5195363779527558
21
-3.7164723228346457
0
LINE
8
BLACK
6
CONTINUOUS
10
6.5195363779527558
20
-3.7164723228346457
11
6.5123856299212601
21
-3.7214793307086613
0
LINE
8
BLACK
6
CONTINUOUS
10
6.5123856299212601
20
-3.7214793307086613
11
6.5062129527559049
21
-3.7276520078740156
0
LINE
8
BLACK
6
CONTINUOUS
10
6.5062129527559049
20
-3.7276520078740156
11
6.5012059448818897
21
-3.7348027559055117
0
LINE
8
BLACK
6
CONTINUOUS
10
6.5012059448818897
20
-3.7348027559055117
11
6.4975167322834642
21
-3.7427142913385825
0
LINE
8
BLACK
6
CONTINUOUS
10
6.4975167322834642
20
-3.7427142913385825
11
6.4952574015748032
21
-3.7511462992125981
0
LINE
8
BLACK
6
CONTINUOUS
10
6.4952574015748032
20
-3.7511462992125981
11
6.4944965748031498
21
-3.7598425196850394
0
LINE
8
BLACK
6
CONTINUOUS
10
6.4944965748031498
20
-3.7598425196850394
11
6.4952574015748032
21
-3.7685387401574801
0
LINE
8
BLACK
6
CONTINUOUS
10
5.0284016141732284
20
-2.2438728346456691
11
5.0368533858267712
21
-2.2461374803149607
0
LINE
8
BLACK
6
CONTINUOUS
10
5.0368533858267712
20
-2.2461374803149607
11
5.0447834645669287
21
-2.2498353543307088
0
LINE
8
BLACK
6
CONTINUOUS
10
5.0447834645669287
20
-2.2498353543307088
11
5.0519509448818898
21
-2.25485405511811
0
LINE
8
BLACK
6
CONTINUOUS
10
5.0519509448818898
20
-2.25485405511811
11
5.0581380708661419
21
-2.2610411811023621
0
LINE
8
BLACK
6
CONTINUOUS
10
5.0581380708661419
20
-2.2610411811023621
11
5.0631567716535431
21
-2.2682086614173227
0
LINE
8
BLACK
6
CONTINUOUS
10
5.0631567716535431
20
-2.2682086614173227
11
5.0668546456692916
21
-2.2761387401574802
0
LINE
8
BLACK
6
CONTINUOUS
10
5.0668546456692916
20
-2.2761387401574802
11
5.0691192913385823
21
-2.2845905118110235
0
LINE
8
BLACK
6
CONTINUOUS
10
5.0691192913385823
20
-2.2845905118110235
11
5.0698818897637796
21
-2.2933070866141732
0
LINE
8
BLACK
6
CONTINUOUS
10
5.0698818897637796
20
-2.2933070866141732
11
5.0691192913385823
21
-2.3020236614173228
0
LINE
8
BLACK
6
CONTINUOUS
10
5.0691192913385823
20
-2.3020236614173228
11
5.0668546456692916
21
-2.3104754330708661
0
LINE
8
BLACK
6
CONTINUOUS
10
5.0668546456692916
20
-2.3104754330708661
11
5.0631567716535431
21
-2.3184055118110236
0
LINE
8
BLACK
6
CONTINUOUS
10
5.0631567716535431
20
-2.3184055118110236
11
5.0581380708661419
21
-2.3255729921259842
0
LINE
8
BLACK
6
CONTINUOUS
10
5.0581380708661419
20
-2.3255729921259842
11
5.0519509448818898
21
-2.3317601181102363
0
LINE
8
BLACK
6
CONTINUOUS
10
5.0519509448818898
20
-2.3317601181102363
11
5.0447834645669287
21
-2.3367788188976379
0
LINE
8
BLACK
6
CONTINUOUS
10
5.0447834645669287
20
-2.3367788188976379
11
5.0368533858267712
21
-2.3404766929133856
0
LINE
8
BLACK
6
CONTINUOUS
10
5.0368533858267712
20
-2.3404766929133856
11
5.0284016141732284
21
-2.3427413385826772
0
LINE
8
BLACK
6
CONTINUOUS
10
5.0284016141732284
20
-2.3427413385826772
11
5.0196850393700787
21
-2.3435039370078741
0
LINE
8
BLACK
6
CONTINUOUS
10
5.0196850393700787
20
-2.3435039370078741
11
5.010968464566929
21
-2.3427413385826772
0
LINE
8
BLACK
6
CONTINUOUS
10
5.010968464566929
20
-2.3427413385826772
11
5.0025166929133853
21
-2.3404766929133856
0
LINE
8
BLACK
6
CONTINUOUS
10
5.0025166929133853
20
-2.3404766929133856
11
4.9945866141732278
21
-2.3367788188976379
0
LINE
8
BLACK
6
CONTINUOUS
10
4.9945866141732278
20
-2.3367788188976379
11
4.9874191338582676
21
-2.3317601181102363
0
LINE
8
BLACK
6
CONTINUOUS
10
4.9874191338582676
20
-2.3317601181102363
11
4.9812320078740155
21
-2.3255729921259842
0
LINE
8
BLACK
6
CONTINUOUS
10
4.9812320078740155
20
-2.3255729921259842
11
4.9762133070866144
21
-2.3184055118110236
0
LINE
8
BLACK
6
CONTINUOUS
10
4.9762133070866144
20
-2.3184055118110236
11
4.9725154330708659
21
-2.3104754330708661
0
LINE
8
BLACK
6
CONTINUOUS
10
4.9725154330708659
20
-2.3104754330708661
11
4.9702507874015751
21
-2.3020236614173228
0
LINE
8
BLACK
6
CONTINUOUS
10
4.9702507874015751
20
-2.3020236614173228
11
4.9694881889763778
21
-2.2933070866141732
0
LINE
8
BLACK
6
CONTINUOUS
10
4.9694881889763778
20
-2.2933070866141732
11
4.9702507874015751
21
-2.2845905118110235
0
LINE
8
BLACK
6
CONTINUOUS
10
4.9702507874015751
20
-2.2845905118110235
11
4.9725154330708659
21
-2.2761387401574802
0
LINE
8
BLACK
6
CONTINUOUS
10
4.9725154330708659
20
-2.2761387401574802
11
4.9762133070866144
21
-2.2682086614173227
0
LINE
8
BLACK
6
CONTINUOUS
10
4.9762133070866144
20
-2.2682086614173227
11
4.9812320078740155
21
-2.2610411811023621
0
LINE
8
BLACK
6
CONTINUOUS
10
4.9812320078740155
20
-2.2610411811023621
11
4.9874191338582676
21
-2.25485405511811
0
LINE
8
BLACK
6
CONTINUOUS
10
4.9874191338582676
20
-2.25485405511811
11
4.9945866141732278
21
-2.2498353543307088
0
LINE
8
BLACK
6
CONTINUOUS
10
4.9945866141732278
20
-2.2498353543307088
11
5.0025166929133853
21
-2.2461374803149607
0
LINE
8
BLACK
6
CONTINUOUS
10
5.0025166929133853
20
-2.2461374803149607
11
5.010968464566929
21
-2.2438728346456691
0
LINE
8
BLACK
6
CONTINUOUS
10
5.010968464566929
20
-2.2438728346456691
11
5.0196850393700787
21
-2.2431102362204722
0
LINE
8
BLACK
6
CONTINUOUS
10
5.0196850393700787
20
-2.2431102362204722
11
5.0284016141732284
21
-2.2438728346456691
0
LINE
8
BLACK
6
CONTINUOUS
10
4.9720079921259845
20
-2.3017138582677164
11
4.9741921259842519
21
-2.3098651574803148
0
LINE
8
BLACK
6
CONTINUOUS
10
4.9741921259842519
20
-2.3098651574803148
11
4.9777585433070861
21
-2.3175133858267718
0
LINE
8
BLACK
6
CONTINUOUS
10
4.9777585433070861
20
-2.3175133858267718
11
4.9825988582677168
21
-2.3244260629921261
0
LINE
8
BLACK
6
CONTINUOUS
10
4.9825988582677168
20
-2.3244260629921261
11
4.9885660629921258
21
-2.3303932677165355
0
LINE
8
BLACK
6
CONTINUOUS
10
4.9885660629921258
20
-2.3303932677165355
11
4.9954787401574805
21
-2.3352335826771653
0
LINE
8
BLACK
6
CONTINUOUS
10
4.9954787401574805
20
-2.3352335826771653
11
5.0031269685039366
21
-2.3388
0
LINE
8
BLACK
6
CONTINUOUS
10
5.0031269685039366
20
-2.3388
11
5.0112782677165351
21
-2.3409841338582678
0
LINE
8
BLACK
6
CONTINUOUS
10
5.0112782677165351
20
-2.3409841338582678
11
5.0196850393700787
21
-2.3417196456692912
0
LINE
8
BLACK
6
CONTINUOUS
10
5.0196850393700787
20
-2.3417196456692912
11
5.0280918110236223
21
-2.3409841338582678
0
LINE
8
BLACK
6
CONTINUOUS
10
5.0280918110236223
20
-2.3409841338582678
11
5.03624311023622
21
-2.3388
0
LINE
8
BLACK
6
CONTINUOUS
10
5.03624311023622
20
-2.3388
11
5.0438913385826769
21
-2.3352335826771653
0
LINE
8
BLACK
6
CONTINUOUS
10
5.0438913385826769
20
-2.3352335826771653
11
5.0508040157480316
21
-2.3303932677165355
0
LINE
8
BLACK
6
CONTINUOUS
10
5.0508040157480316
20
-2.3303932677165355
11
5.0567712204724407
21
-2.3244260629921261
0
LINE
8
BLACK
6
CONTINUOUS
10
5.0567712204724407
20
-2.3244260629921261
11
5.0616115354330704
21
-2.3175133858267718
0
LINE
8
BLACK
6
CONTINUOUS
10
5.0616115354330704
20
-2.3175133858267718
11
5.0651779527559055
21
-2.3098651574803148
0
LINE
8
BLACK
6
CONTINUOUS
10
5.0651779527559055
20
-2.3098651574803148
11
5.0673620866141729
21
-2.3017138582677164
0
LINE
8
BLACK
6
CONTINUOUS
10
5.0673620866141729
20
-2.3017138582677164
11
5.0680975984251964
21
-2.2933070866141732
0
LINE
8
BLACK
6
CONTINUOUS
10
5.0680975984251964
20
-2.2933070866141732
11
5.0673620866141729
21
-2.28490031496063
0
LINE
8
BLACK
6
CONTINUOUS
10
5.0673620866141729
20
-2.28490031496063
11
5.0651779527559055
21
-2.2767490157480315
0
LINE
8
BLACK
6
CONTINUOUS
10
5.0651779527559055
20
-2.2767490157480315
11
5.0616115354330704
21
-2.2691008267716537
0
LINE
8
BLACK
6
CONTINUOUS
10
5.0616115354330704
20
-2.2691008267716537
11
5.0567712204724407
21
-2.2621881102362202
0
LINE
8
BLACK
6
CONTINUOUS
10
5.0567712204724407
20
-2.2621881102362202
11
5.0508040157480316
21
-2.2562209055118108
0
LINE
8
BLACK
6
CONTINUOUS
10
5.0508040157480316
20
-2.2562209055118108
11
5.0438913385826769
21
-2.251380590551181
0
LINE
8
BLACK
6
CONTINUOUS
10
5.0438913385826769
20
-2.251380590551181
11
5.03624311023622
21
-2.2478141732283463
0
LINE
8
BLACK
6
CONTINUOUS
10
5.03624311023622
20
-2.2478141732283463
11
5.0280918110236223
21
-2.2456300393700785
0
LINE
8
BLACK
6
CONTINUOUS
10
5.0280918110236223
20
-2.2456300393700785
11
5.0196850393700787
21
-2.2448945275590551
0
LINE
8
BLACK
6
CONTINUOUS
10
5.0196850393700787
20
-2.2448945275590551
11
5.0112782677165351
21
-2.2456300393700785
0
LINE
8
BLACK
6
CONTINUOUS
10
5.0112782677165351
20
-2.2456300393700785
11
5.0031269685039366
21
-2.2478141732283463
0
LINE
8
BLACK
6
CONTINUOUS
10
5.0031269685039366
20
-2.2478141732283463
11
4.9954787795275593
21
-2.251380590551181
0
LINE
8
BLACK
6
CONTINUOUS
10
4.9954787795275593
20
-2.251380590551181
11
4.9885660629921258
21
-2.2562209055118108
0
LINE
8
BLACK
6
CONTINUOUS
10
4.9885660629921258
20
-2.2562209055118108
11
4.9825988582677168
21
-2.2621881102362202
0
LINE
8
BLACK
6
CONTINUOUS
10
4.9825988582677168
20
-2.2621881102362202
11
4.9777585433070861
21
-2.2691008267716537
0
LINE
8
BLACK
6
CONTINUOUS
10
4.9777585433070861
20
-2.2691008267716537
11
4.9741921259842519
21
-2.2767490157480315
0
LINE
8
BLACK
6
CONTINUOUS
10
4.9741921259842519
20
-2.2767490157480315
11
4.9720079921259845
21
-2.28490031496063
0
LINE
8
BLACK
6
CONTINUOUS
10
4.9720079921259845
20
-2.28490031496063
11
4.9712724803149602
21
-2.2933070866141732
0
LINE
8
BLACK
6
CONTINUOUS
10
4.9712724803149602
20
-2.2933070866141732
11
4.9720079921259845
21
-2.3017138582677164
0
LINE
8
BLACK
6
CONTINUOUS
10
6.7322834645669287
20
-2.1643700787401574
11
6.7329794488188979
21
-2.1646583464566929
0
LINE
8
BLACK
6
CONTINUOUS
10
6.7329794488188979
20
-2.1646583464566929
11
6.7332677165354333
21
-2.1653543307086616
0
LINE
8
BLACK
6
CONTINUOUS
10
6.7332677165354333
20
-2.1653543307086616
11
6.7332677165354333
21
-3.7992125984251968
0
LINE
8
BLACK
6
CONTINUOUS
10
6.7332677165354333
20
-3.7992125984251968
11
6.7325994488188972
21
-3.8128153543307084
0
LINE
8
BLACK
6
CONTINUOUS
10
6.7325994488188972
20
-3.8128153543307084
11
6.730601102362205
21
-3.8262871259842517
0
LINE
8
BLACK
6
CONTINUOUS
10
6.730601102362205
20
-3.8262871259842517
11
6.727291929133858
21
-3.8394981496062992
0
LINE
8
BLACK
6
CONTINUOUS
10
6.727291929133858
20
-3.8394981496062992
11
6.7227037401574803
21
-3.8523212204724411
0
LINE
8
BLACK
6
CONTINUOUS
10
6.7227037401574803
20
-3.8523212204724411
11
6.7168807874015748
21
-3.8646327952755906
0
LINE
8
BLACK
6
CONTINUOUS
10
6.7168807874015748
20
-3.8646327952755906
11
6.7098791338582675
21
-3.8763143700787399
0
LINE
8
BLACK
6
CONTINUOUS
10
6.7098791338582675
20
-3.8763143700787399
11
6.7017662204724404
21
-3.8872533858267717
0
LINE
8
BLACK
6
CONTINUOUS
10
6.7017662204724404
20
-3.8872533858267717
11
6.692620118110236
21
-3.897344527559055
0
LINE
8
BLACK
6
CONTINUOUS
10
6.692620118110236
20
-3.897344527559055
11
6.6825289763779523
21
-3.9064906299212598
0
LINE
8
BLACK
6
CONTINUOUS
10
6.6825289763779523
20
-3.9064906299212598
11
6.6715899606299214
21
-3.9146035433070865
0
LINE
8
BLACK
6
CONTINUOUS
10
6.6715899606299214
20
-3.9146035433070865
11
6.6599083858267711
21
-3.9216051968503938
0
LINE
8
BLACK
6
CONTINUOUS
10
6.6599083858267711
20
-3.9216051968503938
11
6.6475968110236217
21
-3.9274281496062993
0
LINE
8
BLACK
6
CONTINUOUS
10
6.6475968110236217
20
-3.9274281496062993
11
6.6347737401574802
21
-3.932016338582677
0
LINE
8
BLACK
6
CONTINUOUS
10
6.6347737401574802
20
-3.932016338582677
11
6.6215627165354327
21
-3.9353255118110235
0
LINE
8
BLACK
6
CONTINUOUS
10
6.6215627165354327
20
-3.9353255118110235
11
6.6080909448818899
21
-3.9373238582677166
0
LINE
8
BLACK
6
CONTINUOUS
10
6.6080909448818899
20
-3.9373238582677166
11
6.5944881889763778
21
-3.9379921259842519
0
LINE
8
BLACK
6
CONTINUOUS
10
6.5944881889763778
20
-3.9379921259842519
11
4.2716535433070861
21
-3.9379921259842519
0
LINE
8
BLACK
6
CONTINUOUS
10
4.2716535433070861
20
-3.9379921259842519
11
4.2580507874015749
21
-3.9373238582677166
0
LINE
8
BLACK
6
CONTINUOUS
10
4.2580507874015749
20
-3.9373238582677166
11
4.2445790157480312
21
-3.9353255118110235
0
LINE
8
BLACK
6
CONTINUOUS
10
4.2445790157480312
20
-3.9353255118110235
11
4.2313679921259846
21
-3.932016338582677
0
LINE
8
BLACK
6
CONTINUOUS
10
4.2313679921259846
20
-3.932016338582677
11
4.2185449212598423
21
-3.9274281496062993
0
LINE
8
BLACK
6
CONTINUOUS
10
4.2185449212598423
20
-3.9274281496062993
11
4.2062333464566928
21
-3.9216051968503938
0
LINE
8
BLACK
6
CONTINUOUS
10
4.2062333464566928
20
-3.9216051968503938
11
4.1945517716535434
21
-3.9146035433070865
0
LINE
8
BLACK
6
CONTINUOUS
10
4.1945517716535434
20
-3.9146035433070865
11
4.1836127559055116
21
-3.9064906299212598
0
LINE
8
BLACK
6
CONTINUOUS
10
4.1836127559055116
20
-3.9064906299212598
11
4.1735216141732279
21
-3.897344527559055
0
LINE
8
BLACK
6
CONTINUOUS
10
4.1735216141732279
20
-3.897344527559055
11
4.1643755118110235
21
-3.8872533858267717
0
LINE
8
BLACK
6
CONTINUOUS
10
4.1643755118110235
20
-3.8872533858267717
11
4.1562625984251964
21
-3.8763143700787399
0
LINE
8
BLACK
6
CONTINUOUS
10
4.1562625984251964
20
-3.8763143700787399
11
4.14926094488189
21
-3.8646327952755906
0
LINE
8
BLACK
6
CONTINUOUS
10
4.14926094488189
20
-3.8646327952755906
11
4.1434379921259845
21
-3.8523212204724411
0
LINE
8
BLACK
6
CONTINUOUS
10
4.1434379921259845
20
-3.8523212204724411
11
4.1388498031496059
21
-3.8394981496062992
0
LINE
8
BLACK
6
CONTINUOUS
10
4.1388498031496059
20
-3.8394981496062992
11
4.1355406299212598
21
-3.8262871259842517
0
LINE
8
BLACK
6
CONTINUOUS
10
4.1355406299212598
20
-3.8262871259842517
11
4.1335422834645668
21
-3.8128153543307084
0
LINE
8
BLACK
6
CONTINUOUS
10
4.1335422834645668
20
-3.8128153543307084
11
4.1328740157480315
21
-3.7992125984251968
0
LINE
8
BLACK
6
CONTINUOUS
10
4.1328740157480315
20
-3.7992125984251968
11
4.1328740157480315
21
-3.0511811023622046
0
LINE
8
BLACK
6
CONTINUOUS
10
4.1328740157480315
20
-3.0511811023622046
11
4.1329222047244096
21
-3.0510647244094486
0
LINE
8
BLACK
6
CONTINUOUS
10
4.1329222047244096
20
-3.0510647244094486
11
4.1329222047244096
21
-3.0508769685039367
0
LINE
8
BLACK
6
CONTINUOUS
10
4.1329222047244096
20
-3.0508769685039367
11
4.1331031102362203
21
-3.0506278740157478
0
LINE
8
BLACK
6
CONTINUOUS
10
4.1331031102362203
20
-3.0506278740157478
11
4.1331622834645669
21
-3.0504851181102364
0
LINE
8
BLACK
6
CONTINUOUS
10
4.1331622834645669
20
-3.0504851181102364
11
4.1332260629921258
21
-3.0504586614173226
0
LINE
8
BLACK
6
CONTINUOUS
10
4.1332260629921258
20
-3.0504586614173226
11
4.1332797244094488
21
-3.0503848425196849
0
LINE
8
BLACK
6
CONTINUOUS
10
4.1332797244094488
20
-3.0503848425196849
11
4.1338582677165352
21
-3.0501968503937009
0
LINE
8
BLACK
6
CONTINUOUS
10
4.1338582677165352
20
-3.0501968503937009
11
4.1397523622047245
21
-3.0501968503937009
0
LINE
8
BLACK
6
CONTINUOUS
10
4.1397523622047245
20
-3.0501968503937009
11
4.1514546062992128
21
-3.0487759448818896
0
LINE
8
BLACK
6
CONTINUOUS
10
4.1514546062992128
20
-3.0487759448818896
11
4.1629002362204721
21
-3.0459548425196852
0
LINE
8
BLACK
6
CONTINUOUS
10
4.1629002362204721
20
-3.0459548425196852
11
4.1739223622047241
21
-3.0417747244094486
0
LINE
8
BLACK
6
CONTINUOUS
10
4.1739223622047241
20
-3.0417747244094486
11
4.1843603149606299
21
-3.0362964566929134
0
LINE
8
BLACK
6
CONTINUOUS
10
4.1843603149606299
20
-3.0362964566929134
11
4.1940617716535433
21
-3.0295999999999998
0
LINE
8
BLACK
6
CONTINUOUS
10
4.1940617716535433
20
-3.0295999999999998
11
4.202885354330709
21
-3.021782992125984
0
LINE
8
BLACK
6
CONTINUOUS
10
4.202885354330709
20
-3.021782992125984
11
4.2107023622047244
21
-3.0129594094488188
0
LINE
8
BLACK
6
CONTINUOUS
10
4.2107023622047244
20
-3.0129594094488188
11
4.2173988188976379
21
-3.0032579527559053
0
LINE
8
BLACK
6
CONTINUOUS
10
4.2173988188976379
20
-3.0032579527559053
11
4.2228770866141732
21
-2.99282
0
LINE
8
BLACK
6
CONTINUOUS
10
4.2228770866141732
20
-2.99282
11
4.2270572047244093
21
-2.981797874015748
0
LINE
8
BLACK
6
CONTINUOUS
10
4.2270572047244093
20
-2.981797874015748
11
4.2298783070866142
21
-2.9703522440944883
0
LINE
8
BLACK
6
CONTINUOUS
10
4.2298783070866142
20
-2.9703522440944883
11
4.231299212598425
21
-2.95865
0
LINE
8
BLACK
6
CONTINUOUS
10
4.231299212598425
20
-2.95865
11
4.231299212598425
21
-2.9468618110236218
0
LINE
8
BLACK
6
CONTINUOUS
10
4.231299212598425
20
-2.9468618110236218
11
4.2298783070866142
21
-2.9351595669291339
0
LINE
8
BLACK
6
CONTINUOUS
10
4.2298783070866142
20
-2.9351595669291339
11
4.2270572047244093
21
-2.9237139370078737
0
LINE
8
BLACK
6
CONTINUOUS
10
4.2270572047244093
20
-2.9237139370078737
11
4.2228770866141732
21
-2.9126918110236222
0
LINE
8
BLACK
6
CONTINUOUS
10
4.2228770866141732
20
-2.9126918110236222
11
4.2173988188976379
21
-2.9022538582677164
0
LINE
8
BLACK
6
CONTINUOUS
10
4.2173988188976379
20
-2.9022538582677164
11
4.2107023622047244
21
-2.892552401574803
0
LINE
8
BLACK
6
CONTINUOUS
10
4.2107023622047244
20
-2.892552401574803
11
4.202885354330709
21
-2.8837288188976378
0
LINE
8
BLACK
6
CONTINUOUS
10
4.202885354330709
20
-2.8837288188976378
11
4.1940617716535433
21
-2.8759118110236219
0
LINE
8
BLACK
6
CONTINUOUS
10
4.1940617716535433
20
-2.8759118110236219
11
4.1843603149606299
21
-2.8692153543307084
0
LINE
8
BLACK
6
CONTINUOUS
10
4.1843603149606299
20
-2.8692153543307084
11
4.1739223622047241
21
-2.8637370866141731
0
LINE
8
BLACK
6
CONTINUOUS
10
4.1739223622047241
20
-2.8637370866141731
11
4.1629002362204721
21
-2.859556968503937
0
LINE
8
BLACK
6
CONTINUOUS
10
4.1629002362204721
20
-2.859556968503937
11
4.1514546062992128
21
-2.8567358661417321
0
LINE
8
BLACK
6
CONTINUOUS
10
4.1514546062992128
20
-2.8567358661417321
11
4.1397523622047245
21
-2.8553149606299213
0
LINE
8
BLACK
6
CONTINUOUS
10
4.1397523622047245
20
-2.8553149606299213
11
4.1338582677165352
21
-2.8553149606299213
0
LINE
8
BLACK
6
CONTINUOUS
10
4.1338582677165352
20
-2.8553149606299213
11
4.1332797244094488
21
-2.8551269685039369
0
LINE
8
BLACK
6
CONTINUOUS
10
4.1332797244094488
20
-2.8551269685039369
11
4.1332260629921258
21
-2.8550531102362204
0
LINE
8
BLACK
6
CONTINUOUS
10
4.1332260629921258
20
-2.8550531102362204
11
4.1331622834645669
21
-2.8550266929133858
0
LINE
8
BLACK
6
CONTINUOUS
10
4.1331622834645669
20
-2.8550266929133858
11
4.1331031102362203
21
-2.8548838976377953
0
LINE
8
BLACK
6
CONTINUOUS
10
4.1331031102362203
20
-2.8548838976377953
11
4.1329222047244096
21
-2.854634842519685
0
LINE
8
BLACK
6
CONTINUOUS
10
4.1329222047244096
20
-2.854634842519685
11
4.1329222047244096
21
-2.8544470472440944
0
LINE
8
BLACK
6
CONTINUOUS
10
4.1329222047244096
20
-2.8544470472440944
11
4.1328740157480315
21
-2.8543307086614171
0
LINE
8
BLACK
6
CONTINUOUS
10
4.1328740157480315
20
-2.8543307086614171
11
4.1328740157480315
21
-2.3031496062992125
0
LINE
8
BLACK
6
CONTINUOUS
10
4.1328740157480315
20
-2.3031496062992125
11
4.1335422834645668
21
-2.2895468503937009
0
LINE
8
BLACK
6
CONTINUOUS
10
4.1335422834645668
20
-2.2895468503937009
11
4.1355406299212598
21
-2.2760750787401576
0
LINE
8
BLACK
6
CONTINUOUS
10
4.1355406299212598
20
-2.2760750787401576
11
4.1388498031496059
21
-2.2628640551181101
0
LINE
8
BLACK
6
CONTINUOUS
10
4.1388498031496059
20
-2.2628640551181101
11
4.1434379921259845
21
-2.2500409842519686
0
LINE
8
BLACK
6
CONTINUOUS
10
4.1434379921259845
20
-2.2500409842519686
11
4.14926094488189
21
-2.2377294094488187
0
LINE
8
BLACK
6
CONTINUOUS
10
4.14926094488189
20
-2.2377294094488187
11
4.1562625984251964
21
-2.2260478346456694
0
LINE
8
BLACK
6
CONTINUOUS
10
4.1562625984251964
20
-2.2260478346456694
11
4.1643755118110235
21
-2.2151088188976376
0
LINE
8
BLACK
6
CONTINUOUS
10
4.1643755118110235
20
-2.2151088188976376
11
4.1735216141732279
21
-2.2050176771653542
0
LINE
8
BLACK
6
CONTINUOUS
10
4.1735216141732279
20
-2.2050176771653542
11
4.1836127559055116
21
-2.1958715748031494
0
LINE
8
BLACK
6
CONTINUOUS
10
4.1836127559055116
20
-2.1958715748031494
11
4.1945517716535434
21
-2.1877586614173228
0
LINE
8
BLACK
6
CONTINUOUS
10
4.1945517716535434
20
-2.1877586614173228
11
4.2062333464566928
21
-2.1807570078740155
0
LINE
8
BLACK
6
CONTINUOUS
10
4.2062333464566928
20
-2.1807570078740155
11
4.2185449212598423
21
-2.17493405511811
0
LINE
8
BLACK
6
CONTINUOUS
10
4.2185449212598423
20
-2.17493405511811
11
4.2313679921259846
21
-2.1703458661417323
0
LINE
8
BLACK
6
CONTINUOUS
10
4.2313679921259846
20
-2.1703458661417323
11
4.2445790157480312
21
-2.1670366929133857
0
LINE
8
BLACK
6
CONTINUOUS
10
4.2445790157480312
20
-2.1670366929133857
11
4.2580507874015749
21
-2.1650383464566927
0
LINE
8
BLACK
6
CONTINUOUS
10
4.2580507874015749
20
-2.1650383464566927
11
4.2716535433070861
21
-2.1643700787401574
0
LINE
8
BLACK
6
CONTINUOUS
10
4.2716535433070861
20
-2.1643700787401574
11
6.7322834645669287
21
-2.1643700787401574
0
LINE
8
BLACK
6
CONTINUOUS
10
4.2716535433070861
20
-2.1663385826771653
11
4.2649324409448814
21
-2.1663385826771653
0
LINE
8
BLACK
6
CONTINUOUS
10
4.2649324409448814
20
-2.1663385826771653
11
4.2515549999999998
21
-2.1676561417322833
0
LINE
8
BLACK
6
CONTINUOUS
10
4.2515549999999998
20
-2.1676561417322833
11
4.2383711023622048
21
-2.1702785826771653
0
LINE
8
BLACK
6
CONTINUOUS
10
4.2383711023622048
20
-2.1702785826771653
11
4.2255077165354331
21
-2.1741806299212598
0
LINE
8
BLACK
6
CONTINUOUS
10
4.2255077165354331
20
-2.1741806299212598
11
4.2130887401574801
21
-2.1793247637795274
0
LINE
8
BLACK
6
CONTINUOUS
10
4.2130887401574801
20
-2.1793247637795274
11
4.2012337795275592
21
-2.1856613385826771
0
LINE
8
BLACK
6
CONTINUOUS
10
4.2012337795275592
20
-2.1856613385826771
11
4.1900570078740156
21
-2.1931294488188975
0
LINE
8
BLACK
6
CONTINUOUS
10
4.1900570078740156
20
-2.1931294488188975
11
4.1796660629921263
21
-2.2016570866141731
0
LINE
8
BLACK
6
CONTINUOUS
10
4.1796660629921263
20
-2.2016570866141731
11
4.1701610236220468
21
-2.2111621259842518
0
LINE
8
BLACK
6
CONTINUOUS
10
4.1701610236220468
20
-2.2111621259842518
11
4.1616333858267716
21
-2.2215530708661415
0
LINE
8
BLACK
6
CONTINUOUS
10
4.1616333858267716
20
-2.2215530708661415
11
4.1541652755905512
21
-2.2327298425196851
0
LINE
8
BLACK
6
CONTINUOUS
10
4.1541652755905512
20
-2.2327298425196851
11
4.1478287007874011
21
-2.2445848031496061
0
LINE
8
BLACK
6
CONTINUOUS
10
4.1478287007874011
20
-2.2445848031496061
11
4.1426845669291339
21
-2.257003779527559
0
LINE
8
BLACK
6
CONTINUOUS
10
4.1426845669291339
20
-2.257003779527559
11
4.138782519685039
21
-2.2698671653543308
0
LINE
8
BLACK
6
CONTINUOUS
10
4.138782519685039
20
-2.2698671653543308
11
4.1361600787401578
21
-2.2830510629921261
0
LINE
8
BLACK
6
CONTINUOUS
10
4.1361600787401578
20
-2.2830510629921261
11
4.1348425196850389
21
-2.2964285039370078
0
LINE
8
BLACK
6
CONTINUOUS
10
4.1348425196850389
20
-2.2964285039370078
11
4.1348425196850389
21
-2.3031496062992125
0
LINE
8
BLACK
6
CONTINUOUS
10
4.1348425196850389
20
-2.3031496062992125
11
4.1348425196850389
21
-2.8534059842519683
0
LINE
8
BLACK
6
CONTINUOUS
10
4.1348425196850389
20
-2.8534059842519683
11
4.145840748031496
21
-2.8540712598425197
0
LINE
8
BLACK
6
CONTINUOUS
10
4.145840748031496
20
-2.8540712598425197
11
4.1576485039370077
21
-2.8562351181102361
0
LINE
8
BLACK
6
CONTINUOUS
10
4.1576485039370077
20
-2.8562351181102361
11
4.1691093307086611
21
-2.8598064566929131
0
LINE
8
BLACK
6
CONTINUOUS
10
4.1691093307086611
20
-2.8598064566929131
11
4.1800561417322832
21
-2.8647332283464566
0
LINE
8
BLACK
6
CONTINUOUS
10
4.1800561417322832
20
-2.8647332283464566
11
4.190329251968504
21
-2.8709435433070865
0
LINE
8
BLACK
6
CONTINUOUS
10
4.190329251968504
20
-2.8709435433070865
11
4.1997789370078742
21
-2.8783468503937009
0
LINE
8
BLACK
6
CONTINUOUS
10
4.1997789370078742
20
-2.8783468503937009
11
4.2082673228346454
21
-2.8868352362204726
0
LINE
8
BLACK
6
CONTINUOUS
10
4.2082673228346454
20
-2.8868352362204726
11
4.2156706299212594
21
-2.8962849212598423
0
LINE
8
BLACK
6
CONTINUOUS
10
4.2156706299212594
20
-2.8962849212598423
11
4.2218809448818897
21
-2.9065580314960631
0
LINE
8
BLACK
6
CONTINUOUS
10
4.2218809448818897
20
-2.9065580314960631
11
4.2268077165354327
21
-2.9175048425196848
0
LINE
8
BLACK
6
CONTINUOUS
10
4.2268077165354327
20
-2.9175048425196848
11
4.2303790551181102
21
-2.9289656692913386
0
LINE
8
BLACK
6
CONTINUOUS
10
4.2303790551181102
20
-2.9289656692913386
11
4.232542913385827
21
-2.9407734251968503
0
LINE
8
BLACK
6
CONTINUOUS
10
4.232542913385827
20
-2.9407734251968503
11
4.2332677165354333
21
-2.9527559055118111
0
LINE
8
BLACK
6
CONTINUOUS
10
4.2332677165354333
20
-2.9527559055118111
11
4.232542913385827
21
-2.9647383858267715
0
LINE
8
BLACK
6
CONTINUOUS
10
4.232542913385827
20
-2.9647383858267715
11
4.2303790551181102
21
-2.9765461417322836
0
LINE
8
BLACK
6
CONTINUOUS
10
4.2303790551181102
20
-2.9765461417322836
11
4.2268077165354327
21
-2.988006968503937
0
LINE
8
BLACK
6
CONTINUOUS
10
4.2268077165354327
20
-2.988006968503937
11
4.2218809448818897
21
-2.9989537795275591
0
LINE
8
BLACK
6
CONTINUOUS
10
4.2218809448818897
20
-2.9989537795275591
11
4.2156706299212594
21
-3.0092268897637795
0
LINE
8
BLACK
6
CONTINUOUS
10
4.2156706299212594
20
-3.0092268897637795
11
4.2082673228346454
21
-3.0186765748031497
0
LINE
8
BLACK
6
CONTINUOUS
10
4.2082673228346454
20
-3.0186765748031497
11
4.1997789370078742
21
-3.0271649606299214
0
LINE
8
BLACK
6
CONTINUOUS
10
4.1997789370078742
20
-3.0271649606299214
11
4.190329251968504
21
-3.0345682677165353
0
LINE
8
BLACK
6
CONTINUOUS
10
4.190329251968504
20
-3.0345682677165353
11
4.1800561417322832
21
-3.0407785826771652
0
LINE
8
BLACK
6
CONTINUOUS
10
4.1800561417322832
20
-3.0407785826771652
11
4.1691093307086611
21
-3.0457053543307087
0
LINE
8
BLACK
6
CONTINUOUS
10
4.1691093307086611
20
-3.0457053543307087
11
4.1576485039370077
21
-3.0492766929133857
0
LINE
8
BLACK
6
CONTINUOUS
10
4.1576485039370077
20
-3.0492766929133857
11
4.145840748031496
21
-3.0514405511811025
0
LINE
8
BLACK
6
CONTINUOUS
10
4.145840748031496
20
-3.0514405511811025
11
4.1348425196850389
21
-3.0521057874015747
0
LINE
8
BLACK
6
CONTINUOUS
10
4.1348425196850389
20
-3.0521057874015747
11
4.1348425196850389
21
-3.7992125984251968
0
LINE
8
BLACK
6
CONTINUOUS
10
4.1348425196850389
20
-3.7992125984251968
11
4.1348425196850389
21
-3.8059337007874015
0
LINE
8
BLACK
6
CONTINUOUS
10
4.1348425196850389
20
-3.8059337007874015
11
4.1361600787401578
21
-3.8193111417322836
0
LINE
8
BLACK
6
CONTINUOUS
10
4.1361600787401578
20
-3.8193111417322836
11
4.138782519685039
21
-3.8324950393700785
0
LINE
8
BLACK
6
CONTINUOUS
10
4.138782519685039
20
-3.8324950393700785
11
4.1426845669291339
21
-3.8453584251968502
0
LINE
8
BLACK
6
CONTINUOUS
10
4.1426845669291339
20
-3.8453584251968502
11
4.1478287007874011
21
-3.8577774015748032
0
LINE
8
BLACK
6
CONTINUOUS
10
4.1478287007874011
20
-3.8577774015748032
11
4.1541652755905512
21
-3.8696323622047242
0
LINE
8
BLACK
6
CONTINUOUS
10
4.1541652755905512
20
-3.8696323622047242
11
4.1616333858267716
21
-3.8808091338582678
0
LINE
8
BLACK
6
CONTINUOUS
10
4.1616333858267716
20
-3.8808091338582678
11
4.1701610236220468
21
-3.8912000787401575
0
LINE
8
BLACK
6
CONTINUOUS
10
4.1701610236220468
20
-3.8912000787401575
11
4.1796660629921263
21
-3.9007051181102361
0
LINE
8
BLACK
6
CONTINUOUS
10
4.1796660629921263
20
-3.9007051181102361
11
4.1900570078740156
21
-3.9092327559055118
0
LINE
8
BLACK
6
CONTINUOUS
10
4.1900570078740156
20
-3.9092327559055118
11
4.2012337795275592
21
-3.9167008661417322
0
LINE
8
BLACK
6
CONTINUOUS
10
4.2012337795275592
20
-3.9167008661417322
11
4.2130887401574801
21
-3.9230374409448818
0
LINE
8
BLACK
6
CONTINUOUS
10
4.2130887401574801
20
-3.9230374409448818
11
4.2255077165354331
21
-3.9281815748031494
0
LINE
8
BLACK
6
CONTINUOUS
10
4.2255077165354331
20
-3.9281815748031494
11
4.2383711023622048
21
-3.9320836220472439
0
LINE
8
BLACK
6
CONTINUOUS
10
4.2383711023622048
20
-3.9320836220472439
11
4.2515549999999998
21
-3.934706062992126
0
LINE
8
BLACK
6
CONTINUOUS
10
4.2515549999999998
20
-3.934706062992126
11
4.2649324409448814
21
-3.936023622047244
0
LINE
8
BLACK
6
CONTINUOUS
10
4.2649324409448814
20
-3.936023622047244
11
4.2716535433070861
21
-3.936023622047244
0
LINE
8
BLACK
6
CONTINUOUS
10
4.2716535433070861
20
-3.936023622047244
11
6.5944881889763778
21
-3.936023622047244
0
LINE
8
BLACK
6
CONTINUOUS
10
6.5944881889763778
20
-3.936023622047244
11
6.6012092913385825
21
-3.936023622047244
0
LINE
8
BLACK
6
CONTINUOUS
10
6.6012092913385825
20
-3.936023622047244
11
6.6145867322834642
21
-3.934706062992126
0
LINE
8
BLACK
6
CONTINUOUS
10
6.6145867322834642
20
-3.934706062992126
11
6.62777062992126
21
-3.9320836220472439
0
LINE
8
BLACK
6
CONTINUOUS
10
6.62777062992126
20
-3.9320836220472439
11
6.6406340157480317
21
-3.9281815748031494
0
LINE
8
BLACK
6
CONTINUOUS
10
6.6406340157480317
20
-3.9281815748031494
11
6.6530529921259838
21
-3.9230374409448818
0
LINE
8
BLACK
6
CONTINUOUS
10
6.6530529921259838
20
-3.9230374409448818
11
6.6649079527559056
21
-3.9167008661417322
0
LINE
8
BLACK
6
CONTINUOUS
10
6.6649079527559056
20
-3.9167008661417322
11
6.6760847244094483
21
-3.9092327559055118
0
LINE
8
BLACK
6
CONTINUOUS
10
6.6760847244094483
20
-3.9092327559055118
11
6.6864756692913385
21
-3.9007051181102361
0
LINE
8
BLACK
6
CONTINUOUS
10
6.6864756692913385
20
-3.9007051181102361
11
6.6959807086614171
21
-3.8912000787401575
0
LINE
8
BLACK
6
CONTINUOUS
10
6.6959807086614171
20
-3.8912000787401575
11
6.7045083464566924
21
-3.8808091338582678
0
LINE
8
BLACK
6
CONTINUOUS
10
6.7045083464566924
20
-3.8808091338582678
11
6.7119764566929137
21
-3.8696323622047242
0
LINE
8
BLACK
6
CONTINUOUS
10
6.7119764566929137
20
-3.8696323622047242
11
6.7183130314960628
21
-3.8577774015748032
0
LINE
8
BLACK
6
CONTINUOUS
10
6.7183130314960628
20
-3.8577774015748032
11
6.7234571653543309
21
-3.8453584251968502
0
LINE
8
BLACK
6
CONTINUOUS
10
6.7234571653543309
20
-3.8453584251968502
11
6.727359212598425
21
-3.8324950393700785
0
LINE
8
BLACK
6
CONTINUOUS
10
6.727359212598425
20
-3.8324950393700785
11
6.729981653543307
21
-3.8193111417322836
0
LINE
8
BLACK
6
CONTINUOUS
10
6.729981653543307
20
-3.8193111417322836
11
6.731299212598425
21
-3.8059337007874015
0
LINE
8
BLACK
6
CONTINUOUS
10
6.731299212598425
20
-3.8059337007874015
11
6.731299212598425
21
-3.7992125984251968
0
LINE
8
BLACK
6
CONTINUOUS
10
6.731299212598425
20
-3.7992125984251968
11
6.731299212598425
21
-2.1663385826771653
0
LINE
8
BLACK
6
CONTINUOUS
10
6.731299212598425
20
-2.1663385826771653
11
4.2716535433070861
21
-2.1663385826771653
  0
ENDSEC
  0
EOF
